<svg xmlns="http://www.w3.org/2000/svg" viewBox="0 0 402.83 423.71"><defs><style>.cls-1{fill:#b5b7b8;}.cls-2{fill:#afb2b3;}.cls-3{fill:#adb0b1;}.cls-4{fill:#aeb0b1;}.cls-5{fill:#f2f2f3;}.cls-6{fill:#f3f3f4;}.cls-7{fill:#acaeaf;}.cls-8{fill:#cdcecf;}.cls-9{fill:#cbcccd;}.cls-10{fill:#dc3922;}.cls-11{fill:#ce1a27;}.cls-12{fill:#ebebec;}.cls-13{fill:#c4cacc;}.cls-14{fill:#c4c6c7;}.cls-15{fill:#cd1321;}.cls-16{fill:#bec0c2;}.cls-17{fill:#dadbdc;}.cls-18{fill:#dc2f1b;}.cls-19{fill:#cb0b19;}.cls-20{fill:#c90312;}.cls-21{fill:#da2c14;}.cls-22{fill:#da2a11;}.cls-23{fill:#ca0a18;}.cls-24{fill:#ca0d15;}.cls-25{fill:#da2b12;}.cls-26{fill:#cc0e1c;}.cls-27{fill:#cb0b16;}.cls-28{fill:#ca0916;}.cls-29{fill:#c60a1e;}.cls-30{fill:#ba111f;}.cls-31{fill:#c2d4d7;}.cls-32{fill:#dc361e;}.cls-33{fill:#df270d;}.cls-34{fill:#d65d4c;}.cls-35{fill:#d2d4d5;}.cls-36{fill:#e02005;}.cls-37{fill:#df2309;}.cls-38{fill:#e02208;}.cls-39{fill:#edecee;}.cls-40{fill:#cb0b11;}.cls-41{fill:#989a9b;}.cls-42{fill:#f1f1f2;}.cls-43{fill:#c4d9d9;}.cls-44{fill:#f2f1f2;}</style></defs><title>logo-icon</title><g id="Layer_2" data-name="Layer 2"><g id="Layer_1-2" data-name="Layer 1"><path class="cls-1" d="M385.58,249.78c-4.77-3.28-5.89-7.21-3.23-11.3a17.86,17.86,0,0,0,2.64-2.34c1.78-1.37,3.68-1.07,5.61-.43,1,.8,2.09,1.51,3.11,2.29a4.5,4.5,0,0,1,1.32,2.77c-.14,1.2.45,2.39,0,3.59-.3,2.33-1.79,3.77-3.65,4.95-1.67,0-3.19.93-4.88.8A1.07,1.07,0,0,1,385.58,249.78Z"/><path class="cls-2" d="M393.71,238c-1.53-.13-2.24-1.74-3.67-2l.56-.25A4.86,4.86,0,0,1,393.71,238Z"/><path class="cls-3" d="M386.44,249.82a9.5,9.5,0,0,1,4.95-.52l-1.73.58a3.62,3.62,0,0,1-2.94.2Z"/><path class="cls-4" d="M385,236.14a3.56,3.56,0,0,1-2.64,2.34A4.79,4.79,0,0,1,385,236.14Z"/><path class="cls-5" d="M385.58,249.78l.86,0,0,0c1,.55,2.18-.14,3.18.42C387.86,251.09,386.57,250.93,385.58,249.78Z"/><path class="cls-6" d="M395.51,241.2c0-.07,0-.16,0-.21a1.76,1.76,0,0,1,.26-.22,10.8,10.8,0,0,1,.05,3.58s-.11.09-.16.09a.6.6,0,0,1-.2-.08A2.87,2.87,0,0,1,395.51,241.2Z"/><path class="cls-7" d="M395,244.36a3.42,3.42,0,0,1,0-3.59,1.47,1.47,0,0,1,.06.41,5.46,5.46,0,0,1,0,3.2Z"/><path class="cls-8" d="M395.07,244.38q0-1.6,0-3.2l.43,0q0,1.58,0,3.16Z"/><path class="cls-9" d="M389.6,250.27c-1.06-.13-2.21.39-3.18-.42l3.24,0Q389.62,250.08,389.6,250.27Z"/><path class="cls-6" d="M389.08,234.56a1.91,1.91,0,0,1-1.78.1C387.92,234.12,388.54,234.56,389.08,234.56Z"/><path class="cls-10" d="M32.95,286.22C31,281,29,275.81,29,270.13c-.56-1.28-.28-2.64-.43-4-.07-.67-.42-1-.25-.4,0,0-.27.17-.41.25a21.61,21.61,0,0,1-1.74-8.45c.31-1.27,1.23-2.59-.3-3.7-2.87-13.2-2.6-26.55-2-39.92.26-6.17.2-12.38,2.08-18.36.75.75,1,1.52.54,1.95a12.13,12.13,0,0,0-.27-5.65,158.1,158.1,0,0,1,9.87-37.69c1.55.06,3,.81,4.61.5,2,0,3.55,1,5.14,2A28.3,28.3,0,0,0,54,160.25c2.15.85,4.51,1.21,6.35,2.74,1,2.44,2.8,1,4.33.78a6.32,6.32,0,0,1,2.78,0A20.24,20.24,0,0,1,71.32,165a4.52,4.52,0,0,1,.92.9c4.51,1.26,9.24-.58,13.72,1,.63.23,1,.25.32.08-.06,0-.06-.31-.08-.49a2.46,2.46,0,0,1,.54-1.25,2.78,2.78,0,0,1,2-.34,5,5,0,0,1,1.6.81c0-.17.62.73.31-.16a1.47,1.47,0,0,0-.17-.45,1.69,1.69,0,0,1,.51-1.05,4.89,4.89,0,0,1,1.81-.7c3.42-.83,7-1.11,10.27-2.45a48,48,0,0,0,6.22-3,2.87,2.87,0,0,1,2.16.31c4,4.34,8.08,8.5,13.46,11.29,19.79,10.22,44.46-.24,51.18-21.52,6-19-1.68-36.83-15.78-46.22a9.47,9.47,0,0,1-3.32-3,7.83,7.83,0,0,1-.66-3.23c.22-1.62-.06-3.53,2.2-4a3.93,3.93,0,0,1,.71,3,19.59,19.59,0,0,0-.28-3.84c.59-7.81.82-15.58-2-23.1-1.34-1.41-1.63-3.27-2.21-5a64.08,64.08,0,0,0-4-12.78A35.45,35.45,0,0,0,147.69,44c-.65-1.9-1.75-3.77-.29-5.77,19.91-7.25,40.39-11.73,61.63-12,40.87-.59,78.08,10.77,111.28,34.78,7.95,5.75,15.85,11.65,22.52,18.84,6.92,7.45,14.3,14.55,20,23.09-.19,1.71,1.38,2.86,1.43,4.51a218.36,218.36,0,0,1-3.87,72.29c-.85,3.77-1.45,7.62-3.1,11.16a5.34,5.34,0,0,1-1,1.3,11.21,11.21,0,0,1-4.71,1.65c-14.45,2.64-16.81,20.11-10.31,28.3a14.67,14.67,0,0,1,2,2.92,4.11,4.11,0,0,1,.26,1.55c-2.3,7.32-6.67,13.58-10.7,19.94-26.47,41.86-63.21,70.7-110.44,85.82-13.33,4.27-27.11,6.39-41.08,7.74a174,174,0,0,1-32.71-.18c-2-.18-4.08-.19-5.44-2.06-1.1-1.83-.94-3.88-1-5.88-.09-9.94-5.65-16.37-14-20.36-9.13-4.36-17.34-1.51-24.58,4.85-2.84,2.49-3.9,6.24-6.21,9.12-1.78,1.29-3.55.59-5.26-.12a192.48,192.48,0,0,1-57.27-37.11C34.12,287.64,34.24,286.29,32.95,286.22Z"/><path class="cls-11" d="M143.46,337.53a109,109,0,0,0,30.48,1.89c13.83-1,27.63-2.68,41.07-6.37a196.14,196.14,0,0,0,68.9-34.32c25.27-19.57,44.48-44,58.82-72.48,1.87-.68,3.18.7,4.68,1.3,9.2,3.67,18.22.12,22.37-8.84a18.36,18.36,0,0,0-7.87-23.42c-2-1.08-4.62-1.24-6-3.43a232.84,232.84,0,0,0,8-73.51c-.19-4.15-1.26-8.27-1-12.48a1.31,1.31,0,0,1,2,0A43.47,43.47,0,0,1,372.06,117c.78.91.39,2.65,2.07,2.92a188.08,188.08,0,0,1,24.05,60.84c-.67,1,0,2.25-.5,3.31a.86.86,0,0,0,.75-.47,4,4,0,0,1,.84,3.2c-.76,2.11.07,4.2.31,6.24s0,3.88.69,6.31c0,.1.9-.47.24-.33-.22,0-.3-.08-.38-.32a2.86,2.86,0,0,1,.41-3.14c2,8.09,2.23,16.31,1.94,24.58a15.46,15.46,0,0,0,0,9.16c.29,8.28.06,16.51-1.91,24.62-.6-.39-.89-.82-.13-1.35-.71.1-.59.67-.57,1.12,0,1-.24,2,.4,2.88a21.91,21.91,0,0,1-1.79,9.38c-.54-.45-.83-.93-.17-1.51a1,1,0,0,0-.47,1c.09,1.08-.26,2.22.36,3.24-1.56,9.17-4.55,17.92-7.79,26.6-2,1.46-2,3.66-2.21,5.81-3.21,10-8.59,18.89-13.2,28.19-2.1,7.69-7.18,13.54-12,19.54a7.23,7.23,0,0,1-2.52,2.22c-1.78.39-2.19,1.91-2.74,3.32a18.55,18.55,0,0,1-5.27,7.25c-8.13,7.45-15.26,15.94-24,22.77a21.71,21.71,0,0,1-3.2,2.42c-.73.42-1.49.79-2.23,1.22a18.83,18.83,0,0,0-3.3,2.74c-.91,1.06-2.35.79-3.44,1.4-5.19,3-10.29,6.25-15.58,9.1-17,9.19-35,15.91-54.16,19.12-1.45-.82-3-.25-4.23-.38a1.53,1.53,0,0,1,1.44.58c-14.39,3.35-29,3.66-43.6,2.54C156.67,419.81,119,402.9,87.1,373.28c-3.68-3.41-7-7.36-10.56-10.95-.91-3-3.6-4.55-5.69-6.57-9.25-10-16.49-21.33-23-33.21A238.7,238.7,0,0,1,34,291a18.53,18.53,0,0,1-1-4.81c5.86,2.12,9.15,7.5,13.91,11.06,14.82,11.06,30.29,20.92,47.53,27.8a9.58,9.58,0,0,0,2.47.29,2.32,2.32,0,0,1,.52,1.36c-1.6,8.66-.68,16.7,5.53,23.57a22.41,22.41,0,0,0,36.86-4.87c1.23-2.4,1.86-5,3.12-7.43Z"/><path class="cls-12" d="M4.81,109.87C-4.84,80.72.14,54,18.68,29.85,30.58,14.32,46.37,5,65.69,1.38,87.6-2.76,107.15,2.58,125,15.2a59.26,59.26,0,0,1,16.4,16.86,2.15,2.15,0,0,1,.23,1.63c.54,7-.46,14,.61,21,.88,5-.74,9.56-2.51,14.09a4.11,4.11,0,0,1-1.13,1.07,4.39,4.39,0,0,1-2.19.37c-4.92.78-6.39,3.25-5.35,9a7.72,7.72,0,0,1,2.86,3.68,4.66,4.66,0,0,1,0,1.47q-17.84,36.6-57.5,45.81c-2.92.69-5.88,1.6-9,.85-5.2-1-10.49-.41-15.73-.91a1.71,1.71,0,0,1-1.26.32,2.42,2.42,0,0,1-.93-1c-1-3.71-1.58-7.67-5.67-9.49-4.67-2.08-8.67-.36-12.44,5.27a3.52,3.52,0,0,1-1.32.65C20,123.26,11.85,117.44,4.81,109.87Z"/><path class="cls-13" d="M141.37,33.05a8,8,0,0,0,0-1c2.44,1.61,2.52,5.53,6,6.13L148.54,44c1.12,1.66,1.47,3.78,3,5.19,2.18,4.15,3.85,8.44,4,13.2,2.95,8,2.23,16.33,2.43,24.6.07,3-1.94,5.77-.53,8.78l-.25,2.9c.49,1.93-.5,3.57-1,5.31a13.45,13.45,0,0,0-1.57,5.08,7.63,7.63,0,0,1-.52,2c-1.47,3.13-2.92,6.28-4.09,9.54a22.38,22.38,0,0,1-4.93,9.06c-2.31,2.61-4.8,5.1-6.3,8.32a34.91,34.91,0,0,1-10,10.2,9.21,9.21,0,0,0-3.53,2.71,21.83,21.83,0,0,0-5.26,3.31,7.16,7.16,0,0,1-1.63,1.11,10.23,10.23,0,0,0-4.2,2.7,3.45,3.45,0,0,1-3.12.75l-1.82-.14c-1.88,1.49-4.42,1.67-6.27,3.21-3.12,1.95-6.74,2-10.2,2.7a1.9,1.9,0,0,0-1.38-.42c-.33,0-.69-.18-1,.1a.83.83,0,0,1,.73.59l-.55.71c-.5.76-1.12.65-1.77.23l-2,.06a3.57,3.57,0,0,1-2.26.57,32.11,32.11,0,0,0-10.78,0,3.43,3.43,0,0,1-2.24-.59l-4.29-1a1.92,1.92,0,0,1,2.1-.62c-1.66.17-3.92-.66-6.16.33a3.27,3.27,0,0,1-2.73-.71l-7.11-2.48c-2.32-2.16-5.5-2.43-8.23-3.68-1.66-.63-2.9-2.25-4.89-2.09a7.9,7.9,0,0,1-4-2.19c-5.12-5-10.91-9.21-15.58-14.71C13.4,130,7.48,120.86,4.81,109.87c7.09,4.53,13.3,10.42,21.23,13.64,1.37.56,2.76,1.08,4.14,1.63,1.86,2.66,1.15,6,2.35,8.83-.07,1.76.52,2.94,2.55,2.79,6.14,2.14,10.73.45,13.68-5.43a2.36,2.36,0,0,1,1.55-1.16l1-.05a57.69,57.69,0,0,1,16.16,0c15-1.09,28.26-6.63,40.2-15.48,11.09-8.22,19.44-18.82,25.67-31.1a4.19,4.19,0,0,1,3,0c3.9.79,6.79-.61,7.88-4.41s-.25-6.61-3.93-8.23a4,4,0,0,1-2-1.48c1.64-4.57,3.09-9.19,3-14.13a4,4,0,0,1-.24-3.22,89.21,89.21,0,0,0,0-15.76A4,4,0,0,1,141.37,33.05Z"/><path class="cls-12" d="M362,348.69l13-19.4c5.64,3.8,11.26,7.62,15.25,13.32a2.93,2.93,0,0,0-.7,1.26c.23,4.45-.4,8.92.44,13.35a6.88,6.88,0,0,1-.77,5.09,5,5,0,0,1-.91,1.09c-2.81,1.56-4.66,3.47-2.46,6.85a4.88,4.88,0,0,1,0,1.49c-6.93,15.72-25,27.35-41.56,26.78-2-.07-4,0-5.66-1.54-4-6.59-4.47-6.71-11-2.57a5.52,5.52,0,0,1-5.44-2.52c-.16-1.54-.44-3.1.26-4.59l2.06-1.05c1.72.25,2.35-.93,2.89-2.22,8.11-7.74,16.28-15.44,24.3-23.27a66.75,66.75,0,0,0,5.25-6.54,3.63,3.63,0,0,1,2.37-2.88C361.37,351.57,361.81,350.24,362,348.69Z"/><path class="cls-14" d="M388.24,362.81l1-5.07a.84.84,0,0,1-.31-.7c0-.27.07-.4.12-.39a2,2,0,0,1,1.08-.31c.71-3.25-1.77-7.23,2.19-9.73,12.21,19.58,7.43,48.73-13.71,62.78a42.72,42.72,0,0,1-59.77-12.45c-1-1.5-1.68-3.18-2.51-4.77l3.14-2.16c1.14,0,2.27.08,3,1.16l4.9,2.95.6.38a6.29,6.29,0,0,1,.68,1.32c2.45,6,4.86,6.3,9,1.2a3.14,3.14,0,0,1,1.11-.85c9.2,2.94,17.56,0,25.65-4,9.39-4.6,16.06-12,20.82-21.25C391.59,369.27,391.81,368.69,388.24,362.81Z"/><path class="cls-15" d="M400.55,195.58l-.39,3.33c-.25-4.07-3.41-7.92-.88-12.08A23.66,23.66,0,0,1,400.55,195.58Z"/><path class="cls-16" d="M392.32,346.61c-1.88,3.44-.68,7.18-1.06,10.76,0,.12-.18.21-.28.32l-.72-1a19.09,19.09,0,0,1,0-13.25Z"/><path class="cls-17" d="M390.29,343.48q0,6.63,0,13.25l-.94.07a39.83,39.83,0,0,1-.06-14.21l1,0A4.88,4.88,0,0,1,390.29,343.48Z"/><path class="cls-18" d="M36.2,153.24c1.75,0,3.24.46,4,2.19-2,1.71-3-.1-4.18-1.24A2.35,2.35,0,0,1,36.2,153.24Z"/><path class="cls-19" d="M388.21,301.1c-.69-2.48-.74-4.71,2.21-5.81A15.59,15.59,0,0,1,388.21,301.1Z"/><path class="cls-20" d="M402.49,229.31a8.73,8.73,0,0,1,0-9.16A30.84,30.84,0,0,1,402.49,229.31Z"/><path class="cls-21" d="M26.19,191.88c1.67,1.9.63,4,.13,6.07l-.41-2.36Z"/><path class="cls-22" d="M27.92,266a2.91,2.91,0,0,1,.32-.91c.29-.36.79-.7.81.16,0,1.62,0,3.24-.05,4.85C27.56,269.05,27.87,267.51,27.92,266Z"/><path class="cls-23" d="M398.21,268.7c-1.15-1-.83-2.3-.78-3.54,0-.16.34-.3.52-.45l.55,1.24Z"/><path class="cls-24" d="M374.13,119.95c-2.77.5-1.79-1.66-2.07-2.92C373.43,117.52,373.61,118.85,374.13,119.95Z"/><path class="cls-25" d="M25.88,253.88c2.54,1,1.06,2.4.3,3.7Z"/><path class="cls-26" d="M400.28,256.57c-1.07-.82-.91-2-.87-3.12,0-.37-.07-1.09.62-.79.31.14.38.82.55,1.26Z"/><path class="cls-27" d="M364.93,105.88h-2c-.22-1-1.57-1.93-.14-3Z"/><path class="cls-28" d="M398.44,183.62a3.93,3.93,0,0,1-.3,1c-.05.09-.62,0-.63,0-.17-1.32-.47-2.68.67-3.77Z"/><path class="cls-29" d="M144.41,129.14a28.49,28.49,0,0,0,5.19-9.07c1.35-3,3.21-5.76,3.7-9.09l.28-2c1.39-1.42,1.09-3.47,1.88-5.11a9.21,9.21,0,0,1,1.81-5.25c14.29,7.41,22.1,19.72,22.27,35.22.3,27.18-22,46.63-48.9,39.52-8.08-2.14-15.34-6.7-19.53-14.67l3-1.45c1.08-1.34,2.8-1.75,4.08-2.79l1-.92c2.2-1.11,4.34-2.32,6.55-3.41a3.85,3.85,0,0,1,3-2.66l9.8-10.18C140.49,134.58,142.61,132,144.41,129.14Z"/><path class="cls-29" d="M96.89,326.4q0-.52,0-1c3.32-12.5,16.4-18.44,25.84-17,11.9,1.79,22.05,13.67,20.78,24.65a40,40,0,0,0,0,4.53h-.06c-1.54,1.39-3.38,1.34-5.25,1.05a184.35,184.35,0,0,1-37.61-9.68C99.12,328.38,97.68,327.85,96.89,326.4Z"/><path class="cls-30" d="M355.89,191.86C364,193.46,369.48,198,372,206c2.36,7.61-.44,15.69-7.62,21.29-5.13,4-13.77,4-20,0-.56-.36-1.11-.75-1.67-1.12q0-.48-.07-1c1.67-7.95,5.67-15,8.43-22.58,1.34-3.66,1.11-8.15,4.79-10.8Z"/><path class="cls-29" d="M355.88,191.89c-3.78,11.38-7.23,22.88-13.22,33.39-7.19-5.38-7.07-14.21-5.4-20.09C339.72,196.52,345.9,192.5,355.88,191.89Z"/><path class="cls-31" d="M157.51,95.72c-1.91-2.93-.78-6.19-.88-9.28-.24-7.66.54-15.39-1.75-22.9-.09-.3.47-.8.73-1.2,1.66.88.26,3.21,1.94,4.08.45.88-.23,2.08.82,2.79.33,1.66.16,3.38.72,5a23.29,23.29,0,0,1,.52,5.43q0,3.23,0,6.46c0,.81,0,1.62,0,2.43a3.86,3.86,0,0,1-1.13,2.92Z"/><path class="cls-32" d="M157.38,68.48c-1.38-.81.57-1.34.17-2.07,3.9,2.17,1.71,6.11,2.4,9.14,1.14,4.94,1.55,10.13-.32,15.14-.74-.47-.33-1.5-1-2l0-2.06a12.29,12.29,0,0,0,0-7L158.51,74C157.51,72.29,159,70.08,157.38,68.48Z"/><path class="cls-33" d="M86.72,166.52c-4.9,2.34-10,.63-15,.83-.07,0-.2-.25-.2-.38a1.39,1.39,0,0,1,.19-.46A26.72,26.72,0,0,1,86.72,166.52Z"/><path class="cls-34" d="M86.72,166.52H71.67l-.11-.81,2.15-.33a39.68,39.68,0,0,1,11,0l2.15.34Q86.78,166.12,86.72,166.52Z"/><path class="cls-35" d="M45.13,157.52c3.09.45,6.46.29,8.23,3.68C50.48,160.29,47.58,159.41,45.13,157.52Z"/><path class="cls-31" d="M103,161.76c1.55-2.13,3.79-2.89,6.27-3.21C108,161.19,105.4,161.26,103,161.76Z"/><path class="cls-31" d="M63.46,163.54c2.48-.94,4.8.29,7.21.75l-3.4.4h-2.8C63.53,164.83,63.21,164.43,63.46,163.54Z"/><path class="cls-36" d="M158.65,88.68a2.17,2.17,0,0,1,1,2q0,2.4,0,4.79l-.65.09-.53-4.12Z"/><path class="cls-37" d="M63.46,163.54l1,1.15c-3.18,1.49-3.88,1.31-4-1Z"/><path class="cls-38" d="M88.85,165.66l1.77-.23,2.86.51C91.5,166.79,90.1,166.91,88.85,165.66Z"/><path class="cls-31" d="M91.16,164.72,88,164.16c2.25-.71,3.6-1.09,4.84.3Z"/><path class="cls-30" d="M96.89,326.4c13.27,4.49,26.62,8.68,40.55,10.64,2,.28,4,.34,6,.5a23.66,23.66,0,0,1-23.58,21.83c-12.93.17-22-9.13-23.94-20.42C95.13,334.67,94.54,330.42,96.89,326.4Z"/><path class="cls-30" d="M308.05,339.55c7.32,0,12.58,5.7,12.41,13.46-.19,9.12-6.32,13.11-12.62,13.7-6.69.63-13.75-7.16-13.61-14.13C294.4,345,300.18,339.5,308.05,339.55Z"/><path class="cls-39" d="M362,348.69c.67,2.38.19,3-2.18,2.85a.55.55,0,0,1-.19-.62q.12-.29.23-.29Z"/><path class="cls-40" d="M359.9,350.63q0,.46,0,.91L357,354.21C357,352.26,357.18,350.41,359.9,350.63Z"/><path class="cls-41" d="M50.33,130.16c-2.49,8.13-9,11.11-16.2,7.13a4.73,4.73,0,0,1-2.06-2,15.28,15.28,0,0,1-1.88-10.11,6.37,6.37,0,0,1,.79-.24c6.63,1,13.27,2,19.28,5.31Z"/><path class="cls-1" d="M50.25,130.21c-6.56-1.28-13.28-2-19.28-5.31,1.74-5.51,5.66-7.88,11.44-6.91C47.42,118.84,50.33,123.37,50.25,130.21Z"/><path class="cls-42" d="M67.53,130.11H51.38l.3-1.93C56.74,130.65,62.49,127.51,67.53,130.11Z"/><path class="cls-41" d="M124.27,136.88c-.56,2.89-2.09,5.31-5.45,5.2a5.44,5.44,0,0,1-5.57-5.89c0-3.4,2.13-5.9,5.65-5.73S124,133.28,124.27,136.88Z"/><path class="cls-31" d="M153.3,111c.62,3.78-1,6.68-3.7,9.09C149.74,116.59,151.31,113.7,153.3,111Z"/><path class="cls-31" d="M144.41,129.14c-1,3.4-2.6,6.4-5.92,8.14C139.24,133.67,141.87,131.44,144.41,129.14Z"/><path class="cls-1" d="M54.45,131.42H65.31A22.21,22.21,0,0,1,54.45,131.42Z"/><path class="cls-31" d="M84.68,165.38h-11A15.56,15.56,0,0,1,84.68,165.38Z"/><path class="cls-31" d="M125.8,150.37c-2.2,1.07-3.74,3.51-6.62,3.16,1.66-1.88,3.57-3.28,6.21-3.29Z"/><path class="cls-31" d="M155.45,103.87c-.3,1.82,1.47,4.41-1.88,5.11A6,6,0,0,1,155.45,103.87Z"/><path class="cls-31" d="M118.19,154.44c-.69,1.91-2.51,2.17-4.08,2.79C114.56,155,116.39,154.72,118.19,154.44Z"/><path class="cls-43" d="M125.8,150.37l-.41-.13c-.06-2.31,1.34-2.88,3.3-2.78Z"/><path class="cls-35" d="M32.07,135.25l2.06,2C32.3,137.76,31.64,137.06,32.07,135.25Z"/><path class="cls-44" d="M389.26,342.59q0,7.1.06,14.21,0,.47-.09.94A24.21,24.21,0,0,1,389.26,342.59Z"/><path class="cls-10" d="M158.72,79.59a6.25,6.25,0,0,1,0,7Z"/></g></g></svg>