<svg xmlns="http://www.w3.org/2000/svg" viewBox="0 0 715.12 301.12"><defs><style>.cls-1{fill:#dc3922;}.cls-2{fill:#ce1a27;}.cls-3{fill:#ebebec;}.cls-4{fill:#c4cacc;}.cls-5{fill:#c4c6c7;}.cls-6{fill:#cd1321;}.cls-7{fill:#bec0c2;}.cls-8{fill:#dadbdc;}.cls-9{fill:#cb0e19;}.cls-10{fill:#dc2f1b;}.cls-11{fill:#cb0b19;}.cls-12{fill:#c90312;}.cls-13{fill:#da2c14;}.cls-14{fill:#da2a11;}.cls-15{fill:#ca0a18;}.cls-16{fill:#ca0d15;}.cls-17{fill:#da2b12;}.cls-18{fill:#cc0e1c;}.cls-19{fill:#cb0b16;}.cls-20{fill:#ca0916;}.cls-21{fill:#c60a1e;}.cls-22{fill:#ba111f;}.cls-23{fill:#c2d4d7;}.cls-24{fill:#dc361e;}.cls-25{fill:#df270d;}.cls-26{fill:#d65d4c;}.cls-27{fill:#d2d4d5;}.cls-28{fill:#e02005;}.cls-29{fill:#df2309;}.cls-30{fill:#e02208;}.cls-31{fill:#f2f8f8;}.cls-32{fill:#edecee;}.cls-33{fill:#f0fbfc;}.cls-34{fill:#cb0b11;}.cls-35{fill:#989a9b;}.cls-36{fill:#b5b7b8;}.cls-37{fill:#f1f1f2;}.cls-38{fill:#c4d9d9;}.cls-39{fill:#b3b5b6;}.cls-40{fill:#97999a;}.cls-41{fill:#b7b9ba;}.cls-42{fill:#f2f1f2;}.cls-43{fill:#969899;}.cls-44{fill:#002e49;}.cls-45{fill:#fff;}.cls-46{fill:#fefefe;}.cls-47{fill:#c4c6c6;}.cls-48{fill:#bcbdbe;}.cls-49{fill:#c1c2c3;}.cls-50{fill:#d8dbdf;}.cls-51{fill:#e5e6e7;}.cls-52{fill:#c5c6c7;}.cls-53{fill:#b8babb;}.cls-54{fill:#b8baba;}.cls-55{fill:#b7b8b9;}.cls-56{fill:#c7c8c8;}.cls-57{fill:#cfd0d1;}.cls-58{fill:#bebfc0;}.cls-59{fill:#c6c8c8;}.cls-60{fill:#bdbfc0;}.cls-61{fill:#fcfdfd;}.cls-62{fill:#012541;}.cls-63{fill:#051936;}.cls-64{fill:#071e3b;}.cls-65{fill:#000929;}.cls-66{fill:#011d3a;}.cls-67{fill:#babcbd;}.cls-68{fill:#b9bbbc;}.cls-69{fill:#cacbcc;}.cls-70{fill:#bbbdbd;}.cls-71{fill:#c2c4c5;}</style></defs><title>venus-logo</title><g id="Layer_2" data-name="Layer 2"><g id="Layer_1-2" data-name="Layer 1"><path class="cls-1" d="M23.42,203.4c-1.36-3.7-2.8-7.39-2.8-11.43a9.09,9.09,0,0,1-.3-2.81c-.05-.48-.3-.74-.17-.28,0,0-.19.12-.29.18a15.36,15.36,0,0,1-1.24-6c.22-.9.87-1.84-.22-2.63-2-9.38-1.85-18.87-1.45-28.37.18-4.38.14-8.8,1.48-13.05.53.53.74,1.08.38,1.38a8.62,8.62,0,0,0-.19-4,112.35,112.35,0,0,1,7-26.79c1.1,0,2.14.57,3.27.35a6.73,6.73,0,0,1,3.65,1.41,20.12,20.12,0,0,0,5.82,2.54c1.53.6,3.2.86,4.51,1.95.74,1.73,2,.68,3.08.55a4.49,4.49,0,0,1,2,0,14.38,14.38,0,0,1,2.76.87,3.21,3.21,0,0,1,.66.64c3.2.9,6.57-.41,9.75.74.45.16.69.18.23.06,0,0,0-.22-.06-.35a1.75,1.75,0,0,1,.38-.88,2,2,0,0,1,1.4-.24,3.58,3.58,0,0,1,1.14.58c0-.12.44.52.22-.11a1,1,0,0,0-.12-.32,1.2,1.2,0,0,1,.36-.75,3.48,3.48,0,0,1,1.28-.5c2.43-.59,5-.79,7.3-1.74a34.09,34.09,0,0,0,4.42-2.13,2,2,0,0,1,1.53.22c2.85,3.08,5.74,6,9.57,8,14.06,7.26,31.6-.17,36.37-15.29,4.27-13.53-1.2-26.18-11.22-32.85a6.73,6.73,0,0,1-2.36-2.17,5.56,5.56,0,0,1-.47-2.3c.16-1.15,0-2.51,1.56-2.86a2.79,2.79,0,0,1,.5,2.14,13.92,13.92,0,0,0-.2-2.73c.42-5.55.58-11.07-1.39-16.42-1-1-1.16-2.33-1.57-3.57a45.54,45.54,0,0,0-2.82-9.08A25.19,25.19,0,0,0,105,31.25c-.46-1.35-1.24-2.68-.21-4.1,14.15-5.15,28.7-8.34,43.8-8.55,29-.42,55.49,7.65,79.08,24.71,5.65,4.08,11.26,8.28,16,13.39C248.55,62,253.8,67,257.83,73.1c-.14,1.22,1,2,1,3.2a155.18,155.18,0,0,1-2.75,51.37,38.23,38.23,0,0,1-2.21,7.93,3.8,3.8,0,0,1-.72.92,8,8,0,0,1-3.35,1.17c-10.27,1.88-11.95,14.29-7.33,20.11a10.43,10.43,0,0,1,1.41,2.07,2.92,2.92,0,0,1,.19,1.1c-1.63,5.2-4.74,9.65-7.6,14.17-18.81,29.75-44.92,50.24-78.49,61a139.26,139.26,0,0,1-29.19,5.5,123.66,123.66,0,0,1-23.24-.13c-1.44-.13-2.9-.14-3.87-1.47-.78-1.3-.67-2.76-.68-4.18-.06-7.07-4-11.64-9.95-14.47-6.49-3.1-12.32-1.07-17.47,3.45-2,1.77-2.77,4.44-4.41,6.48-1.27.91-2.52.42-3.74-.09a136.79,136.79,0,0,1-40.7-26.37C24.25,204.41,24.33,203.46,23.42,203.4Z"/><path class="cls-2" d="M102,239.87a77.45,77.45,0,0,0,21.66,1.34,148.87,148.87,0,0,0,29.19-4.53,139.39,139.39,0,0,0,49-24.39c18-13.9,31.61-31.3,41.8-51.51,1.33-.48,2.26.5,3.33.92,6.54,2.61,13,.09,15.89-6.28a13,13,0,0,0-5.59-16.64c-1.45-.77-3.28-.88-4.28-2.44A165.47,165.47,0,0,0,258.6,84.1c-.13-3-.9-5.88-.68-8.87a.93.93,0,0,1,1.41,0,30.89,30.89,0,0,1,5.07,7.93c.56.64.28,1.88,1.47,2.07A133.66,133.66,0,0,1,283,128.47c-.48.73,0,1.6-.35,2.35a.61.61,0,0,0,.54-.33,2.84,2.84,0,0,1,.59,2.27c-.54,1.5,0,3,.22,4.44a21.32,21.32,0,0,0,.49,4.48c0,.07.64-.33.17-.24-.15,0-.21-.05-.27-.23a2,2,0,0,1,.29-2.23A63.24,63.24,0,0,1,286,156.45a11,11,0,0,0,0,6.51,64.13,64.13,0,0,1-1.35,17.49c-.43-.28-.63-.58-.09-1-.5.07-.42.48-.4.79,0,.69-.17,1.41.28,2A15.57,15.57,0,0,1,283.2,189c-.38-.32-.59-.66-.12-1.07a.73.73,0,0,0-.33.73c.06.77-.19,1.58.26,2.3a104.47,104.47,0,0,1-5.53,18.9c-1.41,1-1.45,2.6-1.57,4.13-2.28,7.07-6.11,13.42-9.38,20-1.49,5.46-5.11,9.62-8.54,13.89a5.14,5.14,0,0,1-1.79,1.58c-1.26.28-1.56,1.36-1.95,2.36a13.18,13.18,0,0,1-3.74,5.15c-5.77,5.29-10.84,11.33-17,16.18a15.43,15.43,0,0,1-2.27,1.72c-.52.3-1.06.56-1.58.86a13.38,13.38,0,0,0-2.35,2c-.64.76-1.67.56-2.45,1-3.69,2.16-7.31,4.44-11.07,6.46a124,124,0,0,1-38.49,13.59c-1-.58-2.14-.18-3-.27a1.09,1.09,0,0,1,1,.41c-10.22,2.38-20.6,2.6-31,1.81-30.93-2.36-57.69-14.38-80.37-35.43-2.62-2.43-5-5.23-7.51-7.78-.65-2.16-2.56-3.23-4-4.67-6.57-7.08-11.72-15.16-16.31-23.6a169.63,169.63,0,0,1-9.88-22.4,13.17,13.17,0,0,1-.74-3.42c4.17,1.51,6.5,5.33,9.89,7.86,10.54,7.86,21.52,14.87,33.78,19.75a6.81,6.81,0,0,0,1.76.21,1.65,1.65,0,0,1,.37,1c-1.14,6.16-.48,11.87,3.93,16.75a15.93,15.93,0,0,0,26.19-3.46c.88-1.71,1.32-3.59,2.22-5.28Z"/><path class="cls-3" d="M3.42,78.08C-3.44,57.37.1,38.4,13.27,21.22,21.73,10.18,33,3.58,46.68,1,62.26-2,76.15,1.83,88.84,10.8a42.11,42.11,0,0,1,11.66,12,1.53,1.53,0,0,1,.16,1.16c.39,5-.32,10,.43,14.92.63,3.55-.53,6.79-1.78,10a2.92,2.92,0,0,1-.8.76,3.12,3.12,0,0,1-1.55.26c-3.5.55-4.54,2.31-3.8,6.4a5.49,5.49,0,0,1,2,2.62,3.31,3.31,0,0,1,0,1Q82.53,86,54.35,92.51c-2.08.49-4.18,1.14-6.37.6-3.69-.73-7.46-.29-11.18-.65a1.21,1.21,0,0,1-.9.23,1.72,1.72,0,0,1-.66-.71c-.7-2.63-1.12-5.45-4-6.75C27.9,83.76,25.06,85,22.37,89a2.5,2.5,0,0,1-.93.46C14.21,87.59,8.42,83.46,3.42,78.08Z"/><path class="cls-4" d="M100.46,23.49a5.68,5.68,0,0,0,0-.71c1.73,1.15,1.79,3.93,4.26,4.36l.81,4.09c.8,1.18,1,2.69,2.15,3.69a22.09,22.09,0,0,1,2.88,9.38c2.09,5.68,1.58,11.6,1.73,17.48.05,2.11-1.38,4.1-.38,6.24l-.18,2.06c.35,1.37-.35,2.54-.71,3.77a9.56,9.56,0,0,0-1.12,3.61,5.42,5.42,0,0,1-.37,1.43c-1,2.23-2.07,4.46-2.91,6.78a15.9,15.9,0,0,1-3.5,6.44A25.72,25.72,0,0,0,98.67,98a24.81,24.81,0,0,1-7.11,7.25A6.55,6.55,0,0,0,89,107.18a15.51,15.51,0,0,0-3.74,2.35,5.09,5.09,0,0,1-1.15.79,7.27,7.27,0,0,0-3,1.92,2.45,2.45,0,0,1-2.21.53l-1.3-.1c-1.33,1.06-3.14,1.19-4.45,2.28-2.22,1.38-4.79,1.44-7.25,1.92a1.35,1.35,0,0,0-1-.3c-.24,0-.49-.13-.71.07a.59.59,0,0,1,.52.42l-.39.5c-.36.54-.79.46-1.26.16l-1.43,0a2.54,2.54,0,0,1-1.6.4,22.82,22.82,0,0,0-7.66,0,2.44,2.44,0,0,1-1.59-.42l-3-.72a1.36,1.36,0,0,1,1.49-.44c-1.18.12-2.79-.47-4.38.23a2.32,2.32,0,0,1-1.94-.5l-5.05-1.76c-1.65-1.54-3.91-1.73-5.85-2.62-1.18-.45-2.06-1.6-3.48-1.49a5.62,5.62,0,0,1-2.87-1.56c-3.64-3.54-7.75-6.54-11.07-10.46C9.52,92.39,5.32,85.89,3.42,78.08c5,3.22,9.45,7.41,15.09,9.7,1,.4,2,.77,2.94,1.16,1.32,1.89.82,4.26,1.67,6.27,0,1.25.37,2.09,1.82,2,4.36,1.52,7.62.32,9.72-3.86a1.68,1.68,0,0,1,1.1-.82l.74,0a41,41,0,0,1,11.48,0,53.88,53.88,0,0,0,28.57-11,61.68,61.68,0,0,0,18.24-22.1,3,3,0,0,1,2.1,0c2.77.56,4.82-.44,5.6-3.13a4.51,4.51,0,0,0-2.79-5.85,2.84,2.84,0,0,1-1.41-1.05,28.81,28.81,0,0,0,2.16-10,2.83,2.83,0,0,1-.17-2.29,63.4,63.4,0,0,0,0-11.2A2.84,2.84,0,0,1,100.46,23.49Z"/><path class="cls-3" d="M257.29,247.8,266.5,234c4,2.7,8,5.42,10.84,9.46a2.08,2.08,0,0,0-.5.89c.17,3.16-.28,6.34.31,9.49a4.89,4.89,0,0,1-.54,3.62,3.57,3.57,0,0,1-.65.78c-2,1.11-3.31,2.47-1.75,4.87a3.47,3.47,0,0,1,0,1.06c-4.93,11.17-17.75,19.43-29.53,19-1.43,0-2.88,0-4-1.1-2.84-4.69-3.17-4.77-7.79-1.82A3.92,3.92,0,0,1,229,278.5a5.89,5.89,0,0,1,.19-3.26l1.46-.75c1.23.18,1.67-.66,2.05-1.58,5.77-5.5,11.57-11,17.27-16.54a47.44,47.44,0,0,0,3.73-4.65,2.58,2.58,0,0,1,1.68-2C256.81,249.84,257.13,248.9,257.29,247.8Z"/><path class="cls-5" d="M275.91,257.83l.7-3.6a.6.6,0,0,1-.22-.5c0-.19,0-.28.09-.28a1.41,1.41,0,0,1,.77-.22c.5-2.31-1.25-5.14,1.56-6.92,8.68,13.91,5.28,34.63-9.74,44.62a30.36,30.36,0,0,1-42.48-8.85c-.69-1.06-1.19-2.26-1.78-3.39l2.23-1.53a2.35,2.35,0,0,1,2.13.82l3.48,2.09.42.27a4.47,4.47,0,0,1,.48.94c1.74,4.25,3.45,4.48,6.37.85a2.23,2.23,0,0,1,.79-.61c6.54,2.09,12.48,0,18.22-2.82,6.68-3.27,11.41-8.55,14.8-15.1C278.29,262.43,278.44,262,275.91,257.83Z"/><path class="cls-6" d="M284.65,139l-.28,2.37c-.18-2.89-2.42-5.63-.63-8.59A16.81,16.81,0,0,1,284.65,139Z"/><path class="cls-7" d="M278.81,246.32c-1.33,2.44-.48,5.1-.75,7.65,0,.08-.13.15-.2.23l-.51-.68a13.57,13.57,0,0,1,0-9.42Z"/><path class="cls-8" d="M277.36,244.1q0,4.71,0,9.42l-.67,0a28.31,28.31,0,0,1,0-10.1h.71A3.47,3.47,0,0,1,277.36,244.1Z"/><path class="cls-9" d="M50.35,252.82c2.15.86,3.88,2.09,4,4.67A16,16,0,0,1,50.35,252.82Z"/><path class="cls-10" d="M25.72,108.9a2.79,2.79,0,0,1,2.87,1.56c-1.44,1.21-2.13-.07-3-.88A1.67,1.67,0,0,1,25.72,108.9Z"/><path class="cls-11" d="M275.89,214c-.49-1.76-.52-3.35,1.57-4.13A11.08,11.08,0,0,1,275.89,214Z"/><path class="cls-12" d="M286,163a6.21,6.21,0,0,1,0-6.51A21.92,21.92,0,0,1,286,163Z"/><path class="cls-13" d="M18.61,136.36c1.19,1.35.45,2.83.09,4.31L18.42,139Z"/><path class="cls-14" d="M19.84,189.06a2.07,2.07,0,0,1,.23-.64c.21-.26.56-.5.58.11,0,1.15,0,2.3,0,3.45C19.59,191.2,19.8,190.11,19.84,189.06Z"/><path class="cls-15" d="M283,191c-.82-.7-.59-1.64-.56-2.52,0-.11.24-.21.37-.32l.39.88Z"/><path class="cls-16" d="M265.88,85.24c-2,.36-1.27-1.18-1.47-2.07C265.38,83.51,265.51,84.46,265.88,85.24Z"/><path class="cls-17" d="M18.39,180.42c1.8.73.76,1.7.22,2.63Z"/><path class="cls-18" d="M284.46,182.34c-.76-.58-.65-1.42-.62-2.22,0-.26,0-.77.44-.56.22.1.27.58.39.89Z"/><path class="cls-19" d="M259.34,75.24h-1.41c-.16-.71-1.12-1.37-.1-2.13Z"/><path class="cls-18" d="M173.25,298.9a2,2,0,0,1-.65-.18c-.36-.25-.28-.54.14-.56.88,0,1.82-.25,2.5.6Z"/><path class="cls-20" d="M283.15,130.49a2.79,2.79,0,0,1-.21.68c0,.06-.44,0-.45,0-.12-.94-.33-1.91.48-2.68Z"/><path class="cls-21" d="M102.63,91.77a20.25,20.25,0,0,0,3.69-6.45c1-2.12,2.28-4.09,2.63-6.46l.2-1.42c1-1,.77-2.46,1.33-3.63a6.55,6.55,0,0,1,1.29-3.73c10.15,5.26,15.71,14,15.83,25,.21,19.32-15.64,33.14-34.75,28.09-5.74-1.52-10.9-4.76-13.88-10.43l2.14-1c.77-.95,2-1.24,2.9-2l.7-.65c1.56-.79,3.09-1.65,4.66-2.42a2.73,2.73,0,0,1,2.11-1.89l7-7.24C99.84,95.64,101.35,93.79,102.63,91.77Z"/><path class="cls-21" d="M68.85,232l0-.74c2.36-8.88,11.66-13.1,18.37-12.09,8.46,1.27,15.67,9.71,14.77,17.52a28.45,28.45,0,0,0,0,3.22h0a4.19,4.19,0,0,1-3.73.75,131,131,0,0,1-26.73-6.88A4.36,4.36,0,0,1,68.85,232Z"/><path class="cls-22" d="M252.91,136.35c5.77,1.14,9.66,4.35,11.44,10.08,1.68,5.41-.31,11.15-5.41,15.13-3.64,2.84-9.79,2.86-14.18,0-.4-.26-.79-.53-1.19-.8q0-.34,0-.69c1.18-5.65,4-10.68,6-16,1-2.6.79-5.79,3.4-7.68Z"/><path class="cls-21" d="M252.91,136.37c-2.69,8.08-5.14,16.26-9.39,23.73-5.11-3.82-5-10.1-3.84-14.28C241.43,139.66,245.81,136.8,252.91,136.37Z"/><path class="cls-23" d="M111.94,68c-1.35-2.08-.55-4.4-.62-6.59-.17-5.45.38-10.93-1.24-16.27-.06-.21.33-.57.52-.86,1.18.62.19,2.28,1.38,2.9.32.62-.17,1.48.58,2a26.36,26.36,0,0,0,.51,3.55,16.55,16.55,0,0,1,.37,3.86q0,2.3,0,4.59c0,.58,0,1.15,0,1.73a2.74,2.74,0,0,1-.8,2.08Z"/><path class="cls-24" d="M111.85,48.67c-1-.57.41-1,.12-1.47,2.77,1.54,1.21,4.34,1.71,6.49.81,3.51,1.1,7.2-.23,10.76-.52-.33-.24-1.06-.7-1.43l0-1.47a8.74,8.74,0,0,0,0-5l-.15-4C111.94,51.38,113,49.8,111.85,48.67Z"/><path class="cls-25" d="M61.63,118.34c-3.48,1.66-7.12.45-10.69.59,0,0-.14-.18-.14-.27a1,1,0,0,1,.13-.33A19,19,0,0,1,61.63,118.34Z"/><path class="cls-26" d="M61.63,118.34H50.93l-.08-.58,1.53-.23a28.2,28.2,0,0,1,7.8,0l1.53.24Q61.67,118.05,61.63,118.34Z"/><path class="cls-27" d="M32.07,111.94c2.2.32,4.59.2,5.85,2.62A18.18,18.18,0,0,1,32.07,111.94Z"/><path class="cls-23" d="M73.21,115a6.05,6.05,0,0,1,4.45-2.28C76.75,114.55,74.9,114.6,73.21,115Z"/><path class="cls-23" d="M45.1,116.22c1.76-.67,3.41.21,5.12.53L47.8,117h-2C45.15,117.14,44.92,116.85,45.1,116.22Z"/><path class="cls-28" d="M112.75,63a1.54,1.54,0,0,1,.7,1.43q0,1.7,0,3.41l-.46.06L112.61,65Z"/><path class="cls-29" d="M45.1,116.22l.71.82c-2.26,1.06-2.76.93-2.84-.72Z"/><path class="cls-30" d="M63.14,117.73l1.26-.16,2,.37C65,118.53,64,118.61,63.14,117.73Z"/><path class="cls-23" d="M64.79,117.06l-2.26-.4c1.6-.5,2.56-.78,3.44.21Z"/><path class="cls-22" d="M68.85,232c9.43,3.19,18.92,6.17,28.82,7.56,1.4.2,2.83.24,4.24.35a16.81,16.81,0,0,1-16.76,15.51c-9.19.12-15.6-6.49-17-14.51C67.61,237.83,67.19,234.81,68.85,232Z"/><path class="cls-22" d="M218.92,241.31c5.2,0,8.94,4.05,8.82,9.57-.14,6.48-4.49,9.31-9,9.74-4.76.45-9.78-5.09-9.67-10C209.22,245.14,213.33,241.27,218.92,241.31Z"/><path class="cls-31" d="M229.17,278c-.78-.1-1.66.06-2.13-.82.62-.76,1.05-1.73,2.16-1.93A2.54,2.54,0,0,1,229.17,278Z"/><path class="cls-32" d="M257.29,247.8c.48,1.69.14,2.14-1.55,2a.39.39,0,0,1-.14-.44q.09-.21.16-.21Z"/><path class="cls-33" d="M232.71,272.91c0,1.67-.37,2-2.05,1.58Z"/><path class="cls-34" d="M255.77,249.18q0,.32,0,.65l-2,1.9C253.73,250.34,253.83,249,255.77,249.18Z"/><path class="cls-35" d="M35.77,92.5c-1.77,5.78-6.43,7.9-11.51,5.06a3.36,3.36,0,0,1-1.46-1.45,10.86,10.86,0,0,1-1.34-7.19,4.52,4.52,0,0,1,.56-.17c4.71.74,9.43,1.43,13.7,3.77Z"/><path class="cls-36" d="M35.71,92.54c-4.66-.91-9.44-1.4-13.7-3.77,1.24-3.92,4-5.6,8.13-4.91C33.7,84.45,35.77,87.68,35.71,92.54Z"/><path class="cls-37" d="M48,92.47H36.51l.22-1.37C40.32,92.85,44.41,90.62,48,92.47Z"/><path class="cls-35" d="M88.32,97.28c-.39,2.05-1.48,3.78-3.87,3.69a3.86,3.86,0,0,1-4-4.19c0-2.42,1.51-4.2,4-4.07S88.1,94.72,88.32,97.28Z"/><path class="cls-23" d="M108.94,78.86c.44,2.69-.68,4.74-2.63,6.46A11.71,11.71,0,0,1,108.94,78.86Z"/><path class="cls-23" d="M102.63,91.77c-.73,2.42-1.85,4.55-4.21,5.78C99,95,100.82,93.41,102.63,91.77Z"/><path class="cls-36" d="M38.69,93.4h7.72A15.78,15.78,0,0,1,38.69,93.4Z"/><path class="cls-23" d="M60.18,117.53h-7.8A11.06,11.06,0,0,1,60.18,117.53Z"/><path class="cls-23" d="M89.4,106.86c-1.56.76-2.66,2.5-4.7,2.24a5.81,5.81,0,0,1,4.42-2.33Z"/><path class="cls-23" d="M110.47,73.82c-.22,1.3,1,3.13-1.33,3.63A4.28,4.28,0,0,1,110.47,73.82Z"/><path class="cls-23" d="M84,109.76c-.49,1.35-1.79,1.54-2.9,2C81.42,110.13,82.71,110,84,109.76Z"/><path class="cls-38" d="M89.4,106.86l-.29-.09c0-1.64,1-2,2.35-2Z"/><path class="cls-27" d="M22.79,96.12l1.46,1.45C23,97.9,22.49,97.4,22.79,96.12Z"/><path class="cls-39" d="M240.71,281.54l-.07.79a8.43,8.43,0,0,1-7.74-2.15l-.25-.09c1.25-1.62,2.49-3.43,4.91-2.75A4,4,0,0,1,240.71,281.54Z"/><path class="cls-40" d="M275.91,257.83c1.88.84,3.44,2,2.47,4.31-.89,2.12-2.57,2.63-4.64,1.49a6.27,6.27,0,0,1-.12-.65,5.33,5.33,0,0,1,2.32-5.1Z"/><path class="cls-41" d="M275.93,257.87l-2.32,5.1C271.78,260.07,272.2,259.15,275.93,257.87Z"/><path class="cls-42" d="M276.63,243.47q0,5,0,10.1,0,.34-.06.67A17.21,17.21,0,0,1,276.63,243.47Z"/><path class="cls-40" d="M232.9,280.18l7.74,2.15c-.9,2.1-2.14,4-4.76,3.19S232.44,282.77,232.9,280.18Z"/><path class="cls-43" d="M270.07,284.58a1.93,1.93,0,0,1-2.11,2,1.9,1.9,0,0,1-2.08-2c-.07-1.23.48-2.21,1.78-2.22S269.74,283.36,270.07,284.58Z"/><path class="cls-1" d="M112.79,56.56a4.44,4.44,0,0,1,0,5Z"/><path class="cls-44" d="M354.49,166.47l1.26-1.42h0c.4-1,.52-2.2,1.56-2.87a4,4,0,0,1,1.46-3.64,1.41,1.41,0,0,1,.71-1.39,4.35,4.35,0,0,1,.87-3.57,6,6,0,0,1,1.41-3.65H362a1.61,1.61,0,0,0,.22,0l.28-.51c0,.17-.08.33-.11.5s-.15.47-.23.7a4.51,4.51,0,0,1-1.08,2.68c0,.12-.08.24-.11.36s-.19.53-.27.79c0,0,0,0,0,0a6.25,6.25,0,0,1-.32,1.2c-.11.43-.21.85-.33,1.27a13.66,13.66,0,0,1-.77,1.75c-.22.39-.42.8-.6,1.21a3.93,3.93,0,0,1-.56,1.47c0,.1-.07.19-.1.29a7,7,0,0,1-.36.85l-.27.52a6.36,6.36,0,0,1-.81,2.37c-.32.62-.48.55-.58.31C355.67,166.21,355.35,166.76,354.49,166.47Z"/><path class="cls-44" d="M363.81,145.67a10.44,10.44,0,0,1-1.3,3.73C362.82,148.12,363.42,146.93,363.81,145.67Z"/><path class="cls-44" d="M361.12,128.42c.46-.2.92-.39,1.4-.56a3.17,3.17,0,0,1,3.83,2.36,16,16,0,0,1-.2,7.37,9.48,9.48,0,0,1-.19,1c-.12.48-.25,1-.38,1.44a9,9,0,0,1-1.4,4.23l-.33.7a.51.51,0,0,1-.27-.15c-.19-.17-.26-.44-.42-.63.7-1.91,1.39-3.83,2.09-5.74v-.78c1.7-2.3,1-4.82.71-7.31a3.6,3.6,0,0,0-3.55-2C361.85,128.73,361.35,128.93,361.12,128.42Z"/><path class="cls-45" d="M445.86,126.76c-.5.22-.27.79-.56,1.14.27-.79-.17-1.67.41-2.38-.83-5-2.42-9.71-5.76-13.66-1.26-1.1-2.83-1.93-3.38-3.68-6.61-6-14.08-5.37-21.8-2.87-.56.68-1.58.48-2.16,1.12l-.16.13c-5.72,4.78-5.91,6.8-1.33,12.82a19.36,19.36,0,0,0,3.13,3.39,3.07,3.07,0,0,1,1.74,3c2.21,5.13,5,10.07,5.39,15.81a1.22,1.22,0,0,0,1.22,1.26h0l.17,0c.28-.22.06-.68.44-.82a.6.6,0,0,0-.11.12c-.15.53-.27,1-.37,1.57h0c-.06.31-.11.63-.15,1a27.26,27.26,0,0,0,0,6c0,.44.08.87.13,1.31l.12,1a1,1,0,0,0-.23-.22.15.15,0,0,0-.07,0l-.09-.07c-1.91,1.16-1.33,3-1.17,4.64a5.69,5.69,0,0,0,.67,1.51,2,2,0,0,0,.1.21,2.41,2.41,0,0,1,.16.54.74.74,0,0,0-.28-.35l0,0-.11,0c-1.62.6-1.27,2.11-1.51,3.33a107,107,0,0,1-8.84,27.5,132.47,132.47,0,0,1-10.25,16.74,8.14,8.14,0,0,1-.68,1.71,0,0,0,0,0,0,0,6.67,6.67,0,0,1-2.71,2.71h0a8.1,8.1,0,0,1-1.27.55c-2.16.55-3.64,2.24-5.48,3.33l-.14.12a2.78,2.78,0,0,1-.41.29h0c-1.33.84-2.95.84-4.4,1.32-4.67,0-6.78-1.38-8.08-5.71-1.77-5.93-.72-11.85.7-17.66,4.48-18.25,12.52-35.4,16.41-53.88,1.55-7.36,2.81-14.42,1.22-21.79-1.78-8.28-7.24-12.66-15.13-13a38.3,38.3,0,0,0-20.21,5,10.72,10.72,0,0,0-3,1.35.56.56,0,0,1-.54.11,5.51,5.51,0,0,0-.87.54.86.86,0,0,1-.68.14c-.77.67-1.63,1.24-2.44,1.86a24.08,24.08,0,0,0-2.67,1.81l-.27.23c-.91.58-1.91,1.09-2.27,2.24-.56,1.8-2.2,2.22-3.66,2.87a53.68,53.68,0,0,0-14.12,16c-2.69,4.58-5.91,9-6.06,14.68a15.6,15.6,0,0,1,.27,3.8v5a15.4,15.4,0,0,1-.22,3.71,2.72,2.72,0,0,0,.42,1.94,6.8,6.8,0,0,1,1.82,3.63,2.33,2.33,0,0,0,.4.84c1.34,1,1.86,2.56,2.57,4a21.22,21.22,0,0,0,16.12,7.87,9.84,9.84,0,0,0,1.07-.15h0c1.88-.35,3.77-1,5.5.19a4.12,4.12,0,0,1,.76.66c.12,3.45-2.17,6.44-1.86,9.93a6.46,6.46,0,0,1,0,1.81h0a15,15,0,0,0-.32,3.32,4.3,4.3,0,0,0,.22,1c.08.23.13.51-.3.42.39-.47.16-.62-.13-.73l-.11,0h0l-.21-.08c-1.2.71-1.12,1.75-.73,2.88a1.74,1.74,0,0,1,.3.31h0a1.66,1.66,0,0,1,.22.32,2,2,0,0,1,.23.75,1,1,0,0,0-.38-.44l-.05,0a1.81,1.81,0,0,0-.44-.2,2.25,2.25,0,0,0-1,1.78c-.65,8.38-.17,16.56,4.27,24,.55.53,1.11,1.06,1.65,1.6a0,0,0,0,0,0,0,40.31,40.31,0,0,1,4.12,4.64h0s0,0,0,0c.45.63.9,1.27,1.31,2a9.1,9.1,0,0,0,3.86,2.5,34.43,34.43,0,0,0,22.77,1c.32-.14.64-.27,1-.39l.69-.25a16.13,16.13,0,0,0,3.59-1.5,6.19,6.19,0,0,1,.62-.12c1.93-1.2,3.93-2.3,5.8-3.61l4.36-3.49c.6-1,1.21-1.91,2.47-2.09l2.56-2.4c1.34-1.48,2.44-3.2,4.37-4,7.49-7.07,12.89-15.7,17.9-24.55a129.94,129.94,0,0,0,14.85-40.75C446.62,146.77,447.68,136.81,445.86,126.76Zm-87.1,3.06a13.1,13.1,0,0,1,2.36-1.4,1.73,1.73,0,0,1-.11-.6c5.32-3.79,6.93-3.93,10-.88.61.87,1.4,1.69.78,2.88-.06,8.56-3.85,16.09-6.63,23.9-1.43,4-3,8-4.47,12-1.32,3.46-3.16,3.67-6.22.74-2.62-.75-4.51-2.59-6.5-4.29-.52-.72-1-1.43-1.55-2.15a15.73,15.73,0,0,1-.52-13.82C348.67,139.6,352.72,133.9,358.76,129.82ZM350.53,204c0,.31,0,.63,0,1h0a5.06,5.06,0,0,0,.09.54,1.28,1.28,0,0,1-.14-.37A3.57,3.57,0,0,1,350.53,204Z"/><path class="cls-46" d="M354.36,182.69c.15,3.61-2.55,6.64-2.09,10.31-.65,1.84-.63,3.86-1.51,5.64a4.48,4.48,0,0,0-.6,3.07q.31.25.17.43a.34.34,0,0,1-.25.16,39.54,39.54,0,0,0,3.72,26c2,2.55,4.45,4.64,6.4,7.19,7.33,5.51,15.62,5.28,24.09,4,.81-.12,1.62-.33,2.42-.49.78-.41,1.42-.42,1.72.58-.86,1-2.29,1.11-3.28,1.92-2.16.06-4,1.58-6.29,1.13l-.7.77c-3.77.11-7.54.62-11.3-.11a36.09,36.09,0,0,1-4.76-1,10.31,10.31,0,0,1-3.32-1.37,24,24,0,0,0-2.79-1l-1.37-1.54a10.41,10.41,0,0,1-3.78-3.77A13.84,13.84,0,0,1,348,229a3,3,0,0,1-1.41-2.26l-.72-1.21a27.79,27.79,0,0,1-.72-3.8l-.73-1.23c-.37-4.64-.37-9.29-.32-13.94.32-1.15.32-2.4,1.06-3.42v-1.33a7.63,7.63,0,0,1,1.43-5.84q0-.32,0-.64a6.13,6.13,0,0,1,1.44-4.4v-.72c-.66-1.38,1.28-2.65.17-4.05-2.93-.41-5.91-.39-8.75-1.32a9.54,9.54,0,0,1-3.62-1.07l-1.55,0a10.57,10.57,0,0,0-4.12-2l-1-1a33.58,33.58,0,0,1-3.48-3.27c-.73-.82-1.74-1.4-2.08-2.54-1.78-1.5-2.25-3.66-2.92-5.73-1.16-1.22-1.16-2.82-1.39-4.33l0-2.13a3.52,3.52,0,0,1,0-4.23v-2c.11-1.83.14-3.69,1.44-5.2l0-.74c.24-1.81.45-3.63,2.08-4.84a40.7,40.7,0,0,1,7.94-13.49c.82-1,2-1.73,2.2-3.16,2.17-1.34,3.5-3.66,5.71-5a7.31,7.31,0,0,1,3.62-3c.72-.81,1.15-1.94,2.39-2.17,1.74-1.34,3-3.4,5.51-3.58.69-.23.93,0,.76.71l-2.27,2.12c-.54,1.57-1.9,2.23-3.24,2.9-9.57,8.19-17.2,17.68-20.27,30.24a3.33,3.33,0,0,1,.11,2.22,33.47,33.47,0,0,0,0,8.44,3.11,3.11,0,0,1-.14,2.21,1.33,1.33,0,0,0,.56,1.5,21.83,21.83,0,0,1,1.48,3.59l.25.69c1.3.88,1.72,2.42,2.67,3.57a23,23,0,0,0,15.52,8c1.95.14,3.89-.28,5.83-.09C352.46,181.7,353.74,181.31,354.36,182.69Z"/><path class="cls-45" d="M421.95,159.12c-1.78,9.83-4.2,19.46-8.4,28.59a100.39,100.39,0,0,1-11.73,19.44,11.36,11.36,0,0,1-5.26,5.25c-2,.64-3.15,2.72-5.33,3-.8.33-.93-.09-.84-.75a64.92,64.92,0,0,0,16.35-21.85c.78-1.62,1.59-3.22,2.39-4.82.63-.87.11-2.31,1.43-2.84l0-.8c.62-.85.09-2.27,1.4-2.77l0-.83c.16-1.26.09-2.62,1.41-3.4l0-.81a33.45,33.45,0,0,1,2.16-8.63q0-.31,0-.61a39.6,39.6,0,0,1,1.05-7.42,32.68,32.68,0,0,1,.16-3.56,118.48,118.48,0,0,0,.24-12.08,5.26,5.26,0,0,0-.75-3c-.68-1.32-.14-2.84-.69-4.18a46.23,46.23,0,0,0-11.49-17.89c-1-1.73-2.12-3.45,0-5.2.36-2.45,2-4.08,3.6-5.76,1.77-.64,3.15-2.88,5.46-1.34-5,3.32-5.61,6.59-2,11.08,1.26,1.56,2.55,3.11,3.82,4.66.55.66,1.8.86,1.38,2.14A47.13,47.13,0,0,1,422.63,143a19.28,19.28,0,0,1,0,9.55,15.79,15.79,0,0,0-.53,5.31C422.42,158.33,422.51,158.76,421.95,159.12Z"/><path class="cls-45" d="M713.14,148.29c.15,1.55-1.28,2.09-2,3.09"/><path class="cls-45" d="M417,144.25a24.78,24.78,0,0,1,.07,12.27c-.82-.54-.12-1.58-.72-2.19C416.36,151,415.84,147.55,417,144.25Z"/><path class="cls-47" d="M366.64,242.78c3.79,1.17,7.74-.47,11.52.67a23,23,0,0,1-12.26,0A1.46,1.46,0,0,1,366.64,242.78Z"/><path class="cls-48" d="M344.42,217.39c.16,4.31-.53,8.66.61,12.93a1.29,1.29,0,0,1-.65,1.49c-1.3-5-.68-10.06-.61-15.1C344.39,216.55,344.75,216.63,344.42,217.39Z"/><path class="cls-49" d="M339.35,195.91c3.24.94,6.77-.14,9.93,1.38-.23.51-.55.85-1.18.62a21.38,21.38,0,0,1-8.75-1.42q-.34-.19-.23-.38C339.2,196,339.27,195.91,339.35,195.91Z"/><path class="cls-45" d="M447.31,168.81a1.34,1.34,0,0,0-1.56-.75c1.53-.93,1.07-3.78,3.61-3.73a.92.92,0,0,1,.57.69Z"/><path class="cls-45" d="M416.92,160c-.52,2.43-.16,5-1.35,7.33-.95-2.54,0-4.91.68-7.3Q416.57,159.51,416.92,160Z"/><path class="cls-45" d="M434.88,202.39l0,5.82q-.36.48-.7,0a5.94,5.94,0,0,1,0-5.77Q434.54,201.93,434.88,202.39Z"/><path class="cls-45" d="M415.57,167.92a44,44,0,0,1-2.16,8.63A12.12,12.12,0,0,1,415.57,167.92Z"/><path class="cls-45" d="M392.48,237.6c1.19-2.41,3.73-2.64,5.81-3.61C396.67,235.71,395.2,237.66,392.48,237.6Z"/><path class="cls-45" d="M437.15,187.28c-.22,2.53-.32,5.09-2.14,7.14A11.1,11.1,0,0,1,437.15,187.28Z"/><path class="cls-50" d="M388.21,239.77l-1.5-.73c1.67-.61,3.18-1.85,5.15-1.32-.33,1.64-1.66,1.85-3,2.1C388.65,240.1,388.42,240.1,388.21,239.77Z"/><path class="cls-51" d="M390.38,214.67l.84.75c-1.37,1.74-3.23,1.61-5.13,1.33C387.18,215.35,389,215.51,390.38,214.67Z"/><path class="cls-52" d="M378.87,242.68c2.19-.29,4.12-1.69,6.43-1.45a.55.55,0,0,1,.87.06C383.85,242.35,381.61,243.82,378.87,242.68Z"/><path class="cls-45" d="M434.2,208.19h.7l.7,6.49a1.4,1.4,0,0,1-.64.71C433.56,213.12,434.53,210.59,434.2,208.19Z"/><path class="cls-45" d="M434.88,202.39l-.64,0c.22-2.36-.57-4.83.77-7.07C436,197.72,434.53,200,434.88,202.39Z"/><path class="cls-45" d="M407.67,226c.9-1.94,1.74-4,4.37-4C410.72,223.46,409.65,225.22,407.67,226Z"/><path class="cls-52" d="M348,202.25c-.54,1.45-.43,3.11-1.44,4.4C345.45,204.67,346,203.22,348,202.25Z"/><path class="cls-45" d="M711.15,151.38"/><path class="cls-53" d="M348.11,197.91l1.18-.62-1.3,4.24C346.48,200.27,348.26,199.12,348.11,197.91Z"/><path class="cls-45" d="M435,215.41l.64-.71.83,5C434.56,218.75,435.1,217,435,215.41Z"/><path class="cls-54" d="M350.84,246l3.78,3.77A4.25,4.25,0,0,1,350.84,246Z"/><path class="cls-55" d="M345.12,233a4.36,4.36,0,0,1,.72,3.8C345.19,235.65,344.06,234.55,345.12,233Z"/><path class="cls-45" d="M436.41,219.66c1,1.28,1.05,2.91,1.47,4.4A3.44,3.44,0,0,1,436.41,219.66Z"/><path class="cls-53" d="M366.64,242.78l-.73.67a10,10,0,0,1-4.22-.91q-.27-.16-.2-.34t.16-.19Z"/><path class="cls-45" d="M413.37,177.36l-1.41,3.4C411.34,179.18,411.52,177.92,413.37,177.36Z"/><path class="cls-45" d="M415.59,137.1c1.33,1.21.51,2.78.69,4.18A4.07,4.07,0,0,1,415.59,137.1Z"/><path class="cls-56" d="M361.65,242c0,.18,0,.36,0,.54a3.76,3.76,0,0,1-2.94-1.18q-.58-.42,0-.81C359.66,241.17,361,240.95,361.65,242Z"/><path class="cls-57" d="M344.42,217.39l-.65-.68a1.93,1.93,0,0,1,1.35-2.25C345.05,215.47,345.37,216.58,344.42,217.39Z"/><path class="cls-58" d="M386.17,241.29l-.87-.06a4.51,4.51,0,0,1,2.91-1.46,2.91,2.91,0,0,0,.68,0A3.39,3.39,0,0,1,386.17,241.29Z"/><path class="cls-45" d="M410.55,185.15c-.58.89-.42,2.16-1.43,2.84C409.1,186.8,408.68,185.4,410.55,185.15Z"/><path class="cls-59" d="M346.55,238.05l1.41,2.26C346.42,240.22,345.88,239.52,346.55,238.05Z"/><path class="cls-45" d="M412,181.59c-.62.85-.43,2.1-1.4,2.77C410.62,183.22,410,181.75,412,181.59Z"/><path class="cls-45" d="M402.64,230.5a2,2,0,0,1,2.47-2.1A5.59,5.59,0,0,1,402.64,230.5Z"/><path class="cls-60" d="M358.77,251.89l0,.81a4.66,4.66,0,0,1-2.76-1.41A3.25,3.25,0,0,1,358.77,251.89Z"/><path class="cls-45" d="M437.93,206.72a25,25,0,0,1,0-7.86A10.27,10.27,0,0,1,437.93,206.72Z"/><path class="cls-45" d="M708.16,145.81v.33"/><path class="cls-45" d="M438.64,213.2l-.17-2,.34-2.39C439.25,210.35,439.8,211.84,438.64,213.2Z"/><path class="cls-46" d="M346.44,171.36c.51.72,1,1.43,1.55,2.15C347.19,173,346.26,172.58,346.44,171.36Z"/><path class="cls-46" d="M362.23,149.91l.28-.51c0,.17-.08.33-.11.5s-.15.47-.23.7c-.34.91-.77,1.77-1.08,2.68,0,.12-.08.24-.11.36s-.19.53-.27.79c0,0,0,0,0,0-.12.4-.22.8-.32,1.2s-.21.85-.33,1.27a13.66,13.66,0,0,1-.77,1.75c-.22.39-.42.8-.6,1.21a13.08,13.08,0,0,0-.56,1.47c0,.1-.07.19-.1.29a7,7,0,0,1-.36.85l-.27.52c-.4.77-.75,1.56-1.15,2.34a2.94,2.94,0,0,0-.24.34c-.34.53-.66,1.08-1.52.79l1.26-1.42h0c.4-1,.52-2.2,1.56-2.87a4,4,0,0,1,1.46-3.64,1.41,1.41,0,0,1,.71-1.39,4.35,4.35,0,0,1,.87-3.57,6,6,0,0,1,1.41-3.65H362A1.61,1.61,0,0,0,362.23,149.91Z"/><path class="cls-46" d="M366.15,137.59a9.48,9.48,0,0,1-.19,1c-.12.48-.25,1-.38,1.44-.4,1.43-.86,2.84-1.4,4.23l-.33.7a.51.51,0,0,1-.27-.15c-.19-.17-.26-.44-.42-.63.7-1.91,1.39-3.83,2.09-5.74v-.78c1.7-2.3,1-4.82.71-7.31a3.6,3.6,0,0,0-3.55-2c-.56.36-1.06.56-1.29,0,.46-.2.92-.39,1.4-.56a3.17,3.17,0,0,1,3.83,2.36A16,16,0,0,1,366.15,137.59Z"/><path class="cls-61" d="M362.23,149.91l.28-.51c0,.17-.08.33-.11.5s-.15.47-.23.7a4.51,4.51,0,0,1-1.08,2.68c0,.12-.08.24-.11.36s-.19.53-.27.79c0,0,0,0,0,0a6.25,6.25,0,0,1-.32,1.2c-.11.43-.21.85-.33,1.27a13.66,13.66,0,0,1-.77,1.75c-.22.39-.42.8-.6,1.21a3.93,3.93,0,0,1-.56,1.47c0,.1-.07.19-.1.29a7,7,0,0,1-.36.85l-.27.52a6.36,6.36,0,0,1-.81,2.37c-.32.62-.48.55-.58.31-.34.53-.66,1.08-1.52.79l1.26-1.42h0c1.31-.52.86-2,1.56-2.85l0,0c.66-1.13.84-2.47,1.44-3.63a1.41,1.41,0,0,1,.71-1.39c.53-1.16.52-2.49,1.18-3.6a.08.08,0,0,1,0,0c.31-1.24,1.07-2.32,1.32-3.59A1.61,1.61,0,0,0,362.23,149.91Z"/><path class="cls-61" d="M362.51,149.4c.31-1.28.91-2.47,1.3-3.73A10.44,10.44,0,0,1,362.51,149.4Z"/><path class="cls-61" d="M366.15,137.59a9.48,9.48,0,0,1-.19,1c-.12.48-.25,1-.38,1.44a9,9,0,0,1-1.4,4.23l-.33.7a.51.51,0,0,1-.27-.15l0-.12c.65-2.06,1.94-3.94,1.64-6.25v-.78c1.7-2.3,1-4.82.71-7.31a3.6,3.6,0,0,0-3.55-2c-.56.36-1.06.56-1.29,0,.46-.2.92-.39,1.4-.56a3.17,3.17,0,0,1,3.83,2.36A16,16,0,0,1,366.15,137.59Z"/><path class="cls-45" d="M422.63,152.56q0-4.77,0-9.55l.33-3.08.35,0v16.4l-.38,0Z"/><path class="cls-62" d="M354.36,194c-2.88-.9-6,.39-8.82-1C348.6,192.33,351.78,190.52,354.36,194Z"/><path class="cls-63" d="M360.21,246.84a16.51,16.51,0,0,1-6.4-7.19A17.1,17.1,0,0,1,360.21,246.84Z"/><path class="cls-45" d="M396.55,212.4l5.26-5.25A6.2,6.2,0,0,1,396.55,212.4Z"/><path class="cls-64" d="M350.77,210a8.85,8.85,0,0,1,1.51-5.64l-.78,7.27H351Z"/><path class="cls-65" d="M350.08,213.64a.44.44,0,0,1,.09-.59c1.32,1.31.38,2.82.18,4.26Z"/><path class="cls-66" d="M348,173.51c-1.64.09-2.29-.53-1.55-2.15C347,172.08,347.47,172.79,348,173.51Z"/><path class="cls-45" d="M421.95,159.12l.15-1.25c1,.78.59,1.8.24,2.86Z"/><path class="cls-67" d="M365.58,140.07a9,9,0,0,1-1.4,4.23l-.33.7a.51.51,0,0,1-.27-.15c-.19-.17-.26-.44-.42-.63.7-1.91,1.39-3.83,2.09-5.74A4.27,4.27,0,0,1,365.58,140.07Z"/><path class="cls-68" d="M362.51,149.4c.31-1.28.91-2.47,1.3-3.73A10.44,10.44,0,0,1,362.51,149.4Z"/><path class="cls-68" d="M363.58,144.85c-.19-.17-.26-.44-.42-.63l.45.51.24.27A.51.51,0,0,1,363.58,144.85Z"/><path class="cls-69" d="M362.23,149.91l-.06.69a4.51,4.51,0,0,1-1.08,2.68,3,3,0,0,1-.25.25h-.17c-.1,0-.21,0-.31,0a6,6,0,0,1,1.41-3.65H362A1.61,1.61,0,0,0,362.23,149.91Z"/><path class="cls-70" d="M357.4,174.33a6.36,6.36,0,0,1-.81,2.37c-.32.62-.48.55-.58.31s-.16-.49-.25-.63h0c.4-1,.52-2.2,1.56-2.87h0a0,0,0,0,1,0,0h0A3,3,0,0,1,357.4,174.33Z"/><path class="cls-68" d="M358.78,169.86a7.36,7.36,0,0,1-.09,1.34,3.93,3.93,0,0,1-.56,1.47,3.17,3.17,0,0,1-.78.82l0,0v0A4,4,0,0,1,358.78,169.86Z"/><path class="cls-71" d="M360.84,153.53c0,.3-.07.6-.13.9,0,0,0,0,0,0a6.25,6.25,0,0,1-.32,1.2,4.32,4.32,0,0,1-.9,1.5,4.35,4.35,0,0,1,.87-3.57c.1,0,.21,0,.31,0Z"/><path class="cls-45" d="M701.67,128.68a32.84,32.84,0,0,0-17.81,5.52c-1.7,1.58-4,2.51-5.17,4.65,0,.11-.09.21-.15.32a16.54,16.54,0,0,1-1.29,2.23c-.08.14-.17.27-.26.4l-.44.67A23.56,23.56,0,0,0,675,160.3c3.32,11.38,7.92,22.33,12.13,33.41a2,2,0,0,1,.7,0l.17.07a.39.39,0,0,1,.14.42,1.56,1.56,0,0,1-.17.44,1.12,1.12,0,0,1-.12.21,4.35,4.35,0,0,0-.45,1.3,6.62,6.62,0,0,1-3.7,5.52c-2.8.85-4.64-1.29-6.87-2.21a3.06,3.06,0,0,1-2.39-2.33c-3.16-4.24-5.18-8.59-1.37-13.56a4.05,4.05,0,0,0,.42-1.3c-.18-1.91.24-3.81.1-5.72-3-7.79-9-11.36-14.21-7.11a4.06,4.06,0,0,0-.79.76c-.16.23-.31.44-.44.67h0c-2.32,3.67-2.87,7.87-3.34,12.06a8.17,8.17,0,0,1-2,5.15h0c-1.41,1.53-2.2,3.51-3.65,5a2.27,2.27,0,0,1-1.52,1.39c-.84,2.29-3.43,2.36-4.9,3.85-2.71,1.47-4.91.33-5.09-2.73-.22-3.53,1.15-6.76,2.05-10.08,2.55-9.5,6.3-18.67,8-28.41-.55-.54-.24-1.27-.42-1.89.23.43,0,1,.51,1.34,1-4.32,1.5-8.58-1.51-12.41a11.47,11.47,0,0,1-3.59-3.48c-4.9-3.66-10.12-3.91-15.59-1.44a2.54,2.54,0,0,0-1.85,2.75c.15,7.88-1.16,15.66-1.37,23.52a5.16,5.16,0,0,0,.77,1.82c0,.09.09.17.13.26s.11.24.15.37.64.5,0,.71a.63.63,0,0,0-.29-.84l-.08,0a.85.85,0,0,0-.17-.06c-1.24.56-1.14,1.63-1,2.72a2.11,2.11,0,0,0,.54,1.16l.16.24a1.14,1.14,0,0,1,.07,1.24c.16-.5.12-.84-.25-1h-.05a1.82,1.82,0,0,0-.47,0c-2.13,4.94-2.67,10.25-3.55,15.49a5.15,5.15,0,0,1-.15,2.09,1.62,1.62,0,0,1-.37.55h0a2.48,2.48,0,0,1-.67.41,11.41,11.41,0,0,0-1.18.55l-.06,0-.08,0a5.15,5.15,0,0,0-1.94,2.47,23.36,23.36,0,0,0-3.51,3h0c-1.9,1.19-3.73,2.8-6.19,1.4s-2.55-3.83-2.59-6.25c0-1.31,0-2.63,0-3.94a4.67,4.67,0,0,1-.09-3.23s0-.07,0-.1a.53.53,0,0,1,0,.13,4.86,4.86,0,0,0,.13,1.64,2,2,0,0,0,0,.24,52.5,52.5,0,0,1,4.81-15.15,87.37,87.37,0,0,0,7-19.35c.72-3.17,1.7-6.46-.33-9.59a1.53,1.53,0,0,1-1.42-1.34c-.89-1-2.08-.75-3.24-.81-4.23-.23-7.68,1.78-11.15,3.75a14.68,14.68,0,0,0-2,2l-.44.63h0a9.61,9.61,0,0,1-1.65,1.89,5.14,5.14,0,0,1-.87.64l-.18.1-.14.08c-1.25.27-1.89,1.27-2.6,2.18l-.24.32-.33.43c-.14.17-.28.35-.41.53a25.32,25.32,0,0,0-1.59,2.25h0l0,.07-.15.28c-.07.12-.14.24-.2.36-4.47,6.74-7.72,13.76-5.13,22.15a12.13,12.13,0,0,1,.53,1.76h0a5.57,5.57,0,0,1,.12,1.13,3.35,3.35,0,0,1-.75,2.11h0a3.7,3.7,0,0,1-.55.58s0,0,0,0a4.07,4.07,0,0,0-.31.39,2.6,2.6,0,0,0-.17.28.75.75,0,0,0-.07.12c-1,1.63-1.32,3.65-3,4.87a.34.34,0,0,1-.46.1c-1.06,2.93-3.56,4.92-5,7.64l-.06.17-.06.18c0,.07,0,.13-.07.19h0a6,6,0,0,1-1.82,2.5h0a4.68,4.68,0,0,1-.77.51l-.37.16-.33.15-.17.08a3.34,3.34,0,0,0-1.6,1.79l-.15.59a3.31,3.31,0,0,1-.12.42,1.65,1.65,0,0,1-2,1.37,12.44,12.44,0,0,0-1.33.49c-1.6.81-3.22,1.87-4.94.37-1.54-1.35-1.42-3.23-1.1-5,.51-2.81,1.11-5.61,1.85-8.37,2.5-9.28,6.42-18.16,8-27.7.69-4.18,1.49-8.49-.95-12.49-1-.36-.91-1.47-1.53-2.08-2.13-3.2-6.07-4.33-10.34-3.26S548,151.1,545,154.11c-2,.1-2.94,1.42-3.65,3l-.7.71c-.5.87-1.23,1.58-1.81,2.39l-.07.09,0,0a4.59,4.59,0,0,0-1.35,2.39,2.59,2.59,0,0,1-.14.81h0a2.35,2.35,0,0,1-.31.56v0a1.86,1.86,0,0,1-.21.28,2.35,2.35,0,0,1-.3.33,9.55,9.55,0,0,1-.75.66c-3.7,3.4-4.87,8.32-7.53,12.38.14-1.64,1.65-3.16.39-4.88.14-.72.29-1.45.43-2.17a2.71,2.71,0,0,1-.18-1.29c0-.31-.12-.62.05-.91a1,1,0,0,0,.35.87,50.25,50.25,0,0,0,2.1-17.27c-.21-4.11-1.51-5.14-5.52-5.23a11.88,11.88,0,0,0-8.14,3,25.93,25.93,0,0,1-6.63,6.42l0,0-1.18.86-.09.08h0a5.77,5.77,0,0,0-.63.58l0,0c-6.43,8.08-10.37,16.77-6.75,27.33.07.27.13.54.21.8l.06.23a1.38,1.38,0,0,1,.06.26,1.71,1.71,0,0,1,.08.53c0,1.07-.78,1.83-1.42,2.65l-.09.12-.09.11h0l-.07.1c.57,1.6-1.46,1.61-1.68,2.72a.24.24,0,0,0,0,.08.61.61,0,0,0-.07.1c-.38.52-.67,1.09-1,1.61-.1.13-.2.26-.31.38a1.54,1.54,0,0,1-.17.19c-1.28,1-1.62,2.75-3.12,3.51a44.9,44.9,0,0,1-10,9.7,18.78,18.78,0,0,1-10.07,5c-3.37.66-6.73,1.19-10.1,0-1.24.17-1.71-.61-2-1.62-1.3-2.11-2.45-4.27-2.39-6.86a.41.41,0,0,0-.33-.51.59.59,0,0,1-.2-.06c-.71-.25.15-.93-.17-1.28,0-.16,0-.31-.07-.46s-.06-.3-.1-.45c-.24-.92.13-1.4,1.07-1.45a46,46,0,0,0,17.41-8.3l.07,0,.26-.23a10.43,10.43,0,0,0,1.33-1.62c.19-.28.37-.57.55-.85,0,0,0,0,0,0,.33-.52.66-1,1-1.54a7.52,7.52,0,0,1,2.15-2.13c4.45-4.07,5.49-9.46,5.85-15.11a5.47,5.47,0,0,1,0-4.31c-.21-11.4-7.34-17.43-18.51-16.13-6.3.73-10.87,4.27-15.26,8.31-1.59.28-2.31,1.63-3.3,2.66l0,.1a3.78,3.78,0,0,1-.12.36,14.62,14.62,0,0,1-2,2.74l-.06.09a2.32,2.32,0,0,0-.17.26,19.46,19.46,0,0,0-2.26,3.15l-.21.31c-.15.24-.31.47-.47.7a60.56,60.56,0,0,0-6.4,13.51c-1.82,5.3-3.17,10.74-2.87,16.43a17,17,0,0,1,.42,3V202a0,0,0,0,0,0,0s0,0,0,0a13.87,13.87,0,0,1,0,1.58h0s0,0,0,0v.06a15.15,15.15,0,0,1-.5,3.17c-.16,1.52-.55,3.1,1,4.26a2.21,2.21,0,0,0,.32-.07l.08,0a.61.61,0,0,0,.37-.42,4.83,4.83,0,0,1-.2.77l-.14.36a6.85,6.85,0,0,0-.54,1.62,21.06,21.06,0,0,0,5.71,13.82,8.21,8.21,0,0,1,1.27.72,7.36,7.36,0,0,1,1.79,1.73h0a7.72,7.72,0,0,1,.81,1.37,8.79,8.79,0,0,0,6.28,2.82c.51-.07,1-.12,1.54-.15h0a45.39,45.39,0,0,1,8.24.23l2.15.25c6.24-.09,11.33-3,16.18-6.55a10.49,10.49,0,0,1,1.29-1.64h0a7,7,0,0,1,1-.89l.19-.13a6.9,6.9,0,0,1,1-.62h0a7,7,0,0,1,1.27-.45,7.72,7.72,0,0,1,1.25-.54l.49-.19a4.76,4.76,0,0,0,.52-.22,8.58,8.58,0,0,0,1.81-1.9,2.75,2.75,0,0,0,.19-.28,41.71,41.71,0,0,1,6.47-6.27l.13-.11.13-.11a4.26,4.26,0,0,0,.52-.52l.12-.16.2-.3a4,4,0,0,0,.36-.88,1.15,1.15,0,0,0,.09-.26c.13-.45.17-1,.67-1.1.29-.08.48.09.63.32s.18.31.27.45a24,24,0,0,0,3.88,10c2.55,3.6,5.4,7.1,10.48,7.09a8.72,8.72,0,0,1,1.22-.23h0a14.09,14.09,0,0,1,3.18,0c.79.06,1.58.17,2.37.28,2.46-.24,2.53-2.23,2.65-3.94.18-2.47.05-5,.05-7.45a8.15,8.15,0,0,1-.05-4.46c.15-1.27-.13-2.57.33-3.81-.34-3.79.57-7.52.62-11.27.11-6.5,3.44-11,8.14-15,1.16-1.86,3.49-2.3,4.85-3.92a4.9,4.9,0,0,1,1-.9h0c1.12-.76,2.11-.41,3,.67a0,0,0,0,1,0,0,7.29,7.29,0,0,1,.56.79,6,6,0,0,1,.51,1.58v0c.08.43.14.85.22,1.27h0l0,.17c.07.31,0,.38-.1.34a1.08,1.08,0,0,1-.21-.11c-.19-.12-.4-.25-.46,0a26.36,26.36,0,0,0-2.69,9,6.07,6.07,0,0,0,.2,2.17h0a2.15,2.15,0,0,1-.37,2,0,0,0,0,1,0,0,2.79,2.79,0,0,1-.95.63c-1.57,2.56-1.82,5.44-1.93,8.34.14.7.39,1.38.5,2.08a.73.73,0,0,0,0,.14h0c0,.12.12.24.18.36.21.35.42.7,0,1.13,0-.51-.05-.69-.23-.72h-.07a2.43,2.43,0,0,0-.72.24c-1.44,3.41-1.18,6.86-.17,10.32a2.39,2.39,0,0,1,.8,0,.52.52,0,0,1,.24.09c.22.13.25.37.16.68h0a2.58,2.58,0,0,1-.16.43c0,.09-.09.19-.15.29a2.75,2.75,0,0,0-.22,1,3.54,3.54,0,0,0,1.28,3,2.47,2.47,0,0,1,.8.31,7.81,7.81,0,0,1,1.88,2,3.56,3.56,0,0,0,1.23,1,5.18,5.18,0,0,0,1,.26l.92.07h0c2.27.11,4.54-.13,6.8.11,0,0,0,0,0,0,.4,0,.77.1,1.17.18,4,.3,6.7-2.37,9.81-4.1l.36-.31c.11-.1.22-.2.34-.29h0c.83-.67,1.71-1.26,2.6-1.85l.2-.14.14-.09a37,37,0,0,1,4.88-4.56l3-3.53a29,29,0,0,1,2.44-2l.26-.21.23-.18c.17-.15.33-.3.49-.47l.17-.19c.11-.12.22-.24.32-.37a4.65,4.65,0,0,0,.85-1.58,4.25,4.25,0,0,0,.09-.44c0-.21.08-.39.2-.37a.37.37,0,0,1,.18.08c.21.17.18.6.35.85.42,1.23.33,2.57.68,3.8.59,2.08-.13,4.54,1.75,6.25a1.61,1.61,0,0,0,.41-.15h0a.75.75,0,0,0,.35-.47.94.94,0,0,1-.17.64,2.83,2.83,0,0,1-.2.28,1.78,1.78,0,0,0-.36.6c.83,4.51,3.42,6.93,8,7.45a6.66,6.66,0,0,1,4,0c3.29.2,5.86-1.41,8.35-3.23l.16-.12a.94.94,0,0,1,.1-.1,6.39,6.39,0,0,1,.68-.59l.79-.84a1.8,1.8,0,0,1,.38-.35l.2-.11a4.13,4.13,0,0,0,.49-.32c.6-.66,1.43-1.13,1.61-2.11a60.59,60.59,0,0,0,8-11.48,3.11,3.11,0,0,0,1.15-.81l.21-.24a8.46,8.46,0,0,0,.76-1.23c.53-.72.47-1.81,1.73-2.47a28.59,28.59,0,0,0,.44,12.48c1,3.67,3.19,5.43,7.08,5.79a7.69,7.69,0,0,1,4.53,0,3.92,3.92,0,0,0,3.87-1.12,11.09,11.09,0,0,1,1.18-1h0a7.94,7.94,0,0,1,3.38-1.53s0,0,0,0a8.66,8.66,0,0,1,.89-.11,8.5,8.5,0,0,0,3.7-1.93l.08,0,.49-.37h0c.19-.13.38-.27.56-.42s.24-.2.35-.31l.1-.09a15,15,0,0,1,3.26-3l4.24-4.38a12.59,12.59,0,0,0,1.31-1.11c.16-.15.31-.3.45-.46a3.58,3.58,0,0,0,.27-.28c1.74-1,1.93.51,2.38,1.48,1,2.21,1.94,4.51,4,6a5,5,0,0,1,.95.49s0,0,0,0a6.17,6.17,0,0,1,1.64,1.66,20.59,20.59,0,0,1,1.09,1.75,8.46,8.46,0,0,0,3.88,2.44c11.71,4,22.21,1.64,31.67-6.1a10.18,10.18,0,0,1,.8-1.31h0c.3-.45.64-.87,1-1.29.52-.61,1.06-1.21,1.58-1.81a7.43,7.43,0,0,0,3.14-3.7A32,32,0,0,0,709.18,183c-1.9-7.94-6.07-14.92-9.13-22.37-1.3-3.18-2.86-6.31-1.86-9.93a1.65,1.65,0,0,0,.41-.81c.21-1.69,1.44-1.81,2.76-1.81,3.93-.38,7.84.7,11.78.24.23-.67.45-1.35.7-2C717.66,135.88,712.69,128.69,701.67,128.68Zm-242.18,57.9c.53-4.94.66-10,3.53-14.33l.44-.23a3.9,3.9,0,0,1,.39-1.84c0-.24.1-.47.15-.71l2.63-2.23c2.75-.36,4.56.78,5.25,3.47.91,3.59,1,7.15-.55,10.49a3.41,3.41,0,0,1-1.49,2.51l-.12.12a3.11,3.11,0,0,1-2.22,1.65c-1.38,2.09-4,2.31-6.12,3.24C460.08,189.31,459.34,188,459.49,186.58Zm-20.6,23.73c0-.32-.08-.7-.09-1.1A3,3,0,0,1,438.89,210.31Zm143.82,7.27a3.7,3.7,0,0,0-.19-.91h0C583,216.92,582.77,217.27,582.71,217.58Z"/></g></g></svg>