<svg xmlns="http://www.w3.org/2000/svg" xmlns:xlink="http://www.w3.org/1999/xlink" viewBox="0 0 266.84 253.19"><defs><style>.cls-1{isolation:isolate;}.cls-2{fill:url(#radial-gradient);}.cls-3{fill:url(#radial-gradient-2);}.cls-123,.cls-133,.cls-134,.cls-139,.cls-142,.cls-143,.cls-155,.cls-156,.cls-4,.cls-6,.cls-60,.cls-61,.cls-68,.cls-7,.cls-70,.cls-71,.cls-72,.cls-73,.cls-74,.cls-75,.cls-76,.cls-78,.cls-79,.cls-8,.cls-80,.cls-85,.cls-9,.cls-91{mix-blend-mode:screen;}.cls-4{fill:url(#radial-gradient-3);}.cls-5{opacity:0.7;}.cls-6{fill:url(#radial-gradient-4);}.cls-7{fill:url(#radial-gradient-5);}.cls-8{fill:url(#radial-gradient-6);}.cls-9{fill:url(#radial-gradient-7);}.cls-10,.cls-11,.cls-12,.cls-121,.cls-13,.cls-14,.cls-146,.cls-147,.cls-15,.cls-154,.cls-16,.cls-17,.cls-18,.cls-19,.cls-20,.cls-21,.cls-22,.cls-23,.cls-24,.cls-25,.cls-26,.cls-27,.cls-28,.cls-29,.cls-30,.cls-31,.cls-32,.cls-33,.cls-34,.cls-35,.cls-36,.cls-37,.cls-38,.cls-39,.cls-40,.cls-41,.cls-42,.cls-43,.cls-44,.cls-45,.cls-46,.cls-47,.cls-48,.cls-49,.cls-50,.cls-51,.cls-52,.cls-53,.cls-54,.cls-55,.cls-56,.cls-57,.cls-58,.cls-59,.cls-60,.cls-64,.cls-69,.cls-70,.cls-84,.cls-90{opacity:0.5;}.cls-10,.cls-100,.cls-105,.cls-11,.cls-112,.cls-114,.cls-115,.cls-116,.cls-117,.cls-12,.cls-121,.cls-13,.cls-136,.cls-137,.cls-138,.cls-14,.cls-144,.cls-146,.cls-147,.cls-15,.cls-152,.cls-154,.cls-16,.cls-17,.cls-18,.cls-19,.cls-20,.cls-21,.cls-22,.cls-23,.cls-24,.cls-25,.cls-26,.cls-27,.cls-28,.cls-29,.cls-30,.cls-31,.cls-32,.cls-33,.cls-34,.cls-35,.cls-36,.cls-37,.cls-38,.cls-39,.cls-40,.cls-41,.cls-42,.cls-43,.cls-44,.cls-45,.cls-46,.cls-47,.cls-48,.cls-49,.cls-50,.cls-51,.cls-52,.cls-53,.cls-54,.cls-55,.cls-56,.cls-57,.cls-58,.cls-59,.cls-64,.cls-66,.cls-69,.cls-82,.cls-84,.cls-87,.cls-88,.cls-90,.cls-96,.cls-99{mix-blend-mode:multiply;}.cls-10{fill:url(#radial-gradient-8);}.cls-11{fill:url(#radial-gradient-9);}.cls-12{fill:url(#radial-gradient-10);}.cls-13{fill:url(#radial-gradient-11);}.cls-14{fill:url(#radial-gradient-12);}.cls-15{fill:url(#radial-gradient-13);}.cls-16{fill:url(#radial-gradient-14);}.cls-17{fill:url(#radial-gradient-15);}.cls-18{fill:url(#radial-gradient-16);}.cls-19{fill:url(#radial-gradient-17);}.cls-20{fill:url(#radial-gradient-18);}.cls-21{fill:url(#radial-gradient-19);}.cls-22{fill:url(#radial-gradient-20);}.cls-23{fill:url(#radial-gradient-21);}.cls-24{fill:url(#radial-gradient-22);}.cls-25{fill:url(#radial-gradient-23);}.cls-26{fill:url(#radial-gradient-24);}.cls-27{fill:url(#radial-gradient-25);}.cls-28{fill:url(#radial-gradient-26);}.cls-29{fill:url(#radial-gradient-27);}.cls-30{fill:url(#radial-gradient-28);}.cls-31{fill:url(#radial-gradient-29);}.cls-32{fill:url(#radial-gradient-30);}.cls-33{fill:url(#radial-gradient-31);}.cls-34{fill:url(#radial-gradient-32);}.cls-35{fill:url(#radial-gradient-33);}.cls-36{fill:url(#radial-gradient-34);}.cls-37{fill:url(#radial-gradient-35);}.cls-38{fill:url(#radial-gradient-36);}.cls-39{fill:url(#radial-gradient-37);}.cls-40{fill:url(#radial-gradient-38);}.cls-41{fill:url(#radial-gradient-39);}.cls-42{fill:url(#radial-gradient-40);}.cls-43{fill:url(#radial-gradient-41);}.cls-44{fill:url(#radial-gradient-42);}.cls-45{fill:url(#radial-gradient-43);}.cls-46{fill:url(#radial-gradient-44);}.cls-47{fill:url(#radial-gradient-45);}.cls-48{fill:url(#radial-gradient-46);}.cls-49{fill:url(#radial-gradient-47);}.cls-50{fill:url(#radial-gradient-48);}.cls-51{fill:url(#radial-gradient-49);}.cls-52{fill:url(#radial-gradient-50);}.cls-53{fill:url(#radial-gradient-51);}.cls-54{fill:url(#radial-gradient-52);}.cls-55{fill:url(#radial-gradient-53);}.cls-56{fill:url(#radial-gradient-54);}.cls-57{fill:url(#radial-gradient-55);}.cls-58{fill:url(#radial-gradient-56);}.cls-59{fill:url(#radial-gradient-57);}.cls-60{fill:url(#radial-gradient-58);}.cls-139,.cls-61{opacity:0.35;}.cls-62{fill:url(#radial-gradient-59);}.cls-63{fill:url(#radial-gradient-60);}.cls-64{fill:url(#radial-gradient-61);}.cls-139,.cls-65,.cls-66,.cls-68,.cls-69,.cls-70{fill:#e0a326;}.cls-66{opacity:0.54;}.cls-67{fill:url(#radial-gradient-62);}.cls-71{fill:url(#radial-gradient-63);}.cls-72,.cls-73,.cls-74,.cls-75,.cls-76{opacity:0.45;}.cls-72{fill:url(#radial-gradient-64);}.cls-73{fill:url(#radial-gradient-65);}.cls-74{fill:url(#radial-gradient-66);}.cls-75{fill:url(#radial-gradient-67);}.cls-76{fill:url(#radial-gradient-68);}.cls-77{fill:url(#radial-gradient-69);}.cls-78{fill:url(#radial-gradient-70);}.cls-79{fill:url(#radial-gradient-71);}.cls-80{fill:url(#radial-gradient-72);}.cls-81{fill:url(#radial-gradient-73);}.cls-112,.cls-114,.cls-115,.cls-116,.cls-117,.cls-136,.cls-144,.cls-152,.cls-82,.cls-87,.cls-88,.cls-96{opacity:0.25;}.cls-82{fill:url(#radial-gradient-74);}.cls-83{fill:url(#radial-gradient-75);}.cls-84{fill:url(#radial-gradient-76);}.cls-85{fill:url(#radial-gradient-77);}.cls-104,.cls-111,.cls-120,.cls-122,.cls-141,.cls-86,.cls-98{opacity:0.34;mix-blend-mode:color-burn;}.cls-86{fill:url(#radial-gradient-78);}.cls-87{fill:url(#radial-gradient-79);}.cls-88{fill:url(#radial-gradient-80);}.cls-89{fill:url(#radial-gradient-81);}.cls-90{fill:url(#radial-gradient-82);}.cls-92{fill:url(#radial-gradient-83);}.cls-93{fill:url(#radial-gradient-84);}.cls-94{fill:url(#radial-gradient-85);}.cls-95{fill:url(#radial-gradient-86);}.cls-96{fill:url(#radial-gradient-87);}.cls-97{fill:url(#radial-gradient-88);}.cls-98{fill:url(#radial-gradient-89);}.cls-105,.cls-99{opacity:0.6;}.cls-99{fill:url(#radial-gradient-90);}.cls-101{fill:url(#radial-gradient-91);}.cls-102{fill:url(#radial-gradient-92);}.cls-103{fill:url(#radial-gradient-93);}.cls-104{fill:url(#radial-gradient-94);}.cls-105{fill:url(#radial-gradient-95);}.cls-106{fill:url(#radial-gradient-96);}.cls-107{fill:url(#radial-gradient-97);}.cls-108{fill:url(#radial-gradient-98);}.cls-109{fill:url(#radial-gradient-99);}.cls-110{fill:url(#radial-gradient-100);}.cls-111{fill:url(#radial-gradient-101);}.cls-113{fill:url(#radial-gradient-102);}.cls-114{fill:url(#radial-gradient-103);}.cls-115{fill:url(#radial-gradient-104);}.cls-116{fill:url(#radial-gradient-105);}.cls-117{fill:url(#radial-gradient-106);}.cls-118{fill:url(#radial-gradient-107);}.cls-119{fill:url(#radial-gradient-108);}.cls-120{fill:url(#radial-gradient-109);}.cls-121{fill:url(#radial-gradient-110);}.cls-122{fill:url(#radial-gradient-111);}.cls-123{fill:url(#radial-gradient-112);}.cls-124{fill:url(#radial-gradient-113);}.cls-125{fill:url(#radial-gradient-114);}.cls-126{fill:url(#radial-gradient-115);}.cls-127{fill:url(#radial-gradient-116);}.cls-128{fill:url(#radial-gradient-117);}.cls-129{fill:url(#radial-gradient-118);}.cls-130{fill:url(#radial-gradient-119);}.cls-131{fill:url(#radial-gradient-120);}.cls-132{fill:url(#radial-gradient-121);}.cls-133{fill:url(#radial-gradient-122);}.cls-134{fill:url(#radial-gradient-123);}.cls-135{fill:url(#radial-gradient-124);}.cls-136{fill:url(#radial-gradient-125);}.cls-137{fill:url(#radial-gradient-126);}.cls-138{fill:url(#radial-gradient-127);}.cls-140{fill:url(#radial-gradient-128);}.cls-141{fill:url(#radial-gradient-129);}.cls-142{fill:url(#radial-gradient-130);}.cls-143{fill:url(#radial-gradient-131);}.cls-144{fill:url(#radial-gradient-132);}.cls-145{fill:url(#radial-gradient-133);}.cls-146{fill:url(#radial-gradient-134);}.cls-147{fill:url(#radial-gradient-135);}.cls-148{fill:url(#radial-gradient-136);}.cls-149{fill:url(#radial-gradient-137);}.cls-150{fill:url(#radial-gradient-138);}.cls-151{fill:url(#radial-gradient-139);}.cls-152{fill:url(#radial-gradient-140);}.cls-153{fill:url(#radial-gradient-141);}.cls-154{fill:url(#radial-gradient-142);}.cls-155{fill:url(#radial-gradient-143);}.cls-156{fill:url(#radial-gradient-144);}.cls-157{fill:url(#radial-gradient-145);}.cls-158{fill:url(#radial-gradient-147);}.cls-159{fill:url(#radial-gradient-148);}</style><radialGradient id="radial-gradient" cx="132.46" cy="172.39" r="81.32" gradientUnits="userSpaceOnUse"><stop offset="0" stop-color="#f20074"/><stop offset="0.38" stop-color="#f10174" stop-opacity="0.99"/><stop offset="0.51" stop-color="#ed0376" stop-opacity="0.96"/><stop offset="0.61" stop-color="#e70679" stop-opacity="0.92"/><stop offset="0.69" stop-color="#df0b7d" stop-opacity="0.85"/><stop offset="0.75" stop-color="#d31182" stop-opacity="0.75"/><stop offset="0.81" stop-color="#c51988" stop-opacity="0.64"/><stop offset="0.87" stop-color="#b42290" stop-opacity="0.51"/><stop offset="0.92" stop-color="#a02d98" stop-opacity="0.35"/><stop offset="0.96" stop-color="#8b39a2" stop-opacity="0.18"/><stop offset="1" stop-color="#7446ac" stop-opacity="0"/></radialGradient><radialGradient id="radial-gradient-2" cx="140.08" cy="109.72" r="141.78" gradientUnits="userSpaceOnUse"><stop offset="0" stop-color="#f20074"/><stop offset="0.14" stop-color="#ed0376"/><stop offset="0.31" stop-color="#df0b7d"/><stop offset="0.49" stop-color="#c71887"/><stop offset="0.67" stop-color="#a62a96"/><stop offset="0.87" stop-color="#7b42a9"/><stop offset="0.9" stop-color="#7446ac"/></radialGradient><radialGradient id="radial-gradient-3" cx="233.92" cy="120.98" r="134.81" gradientTransform="matrix(1.31, 0.35, -0.31, 1.15, -172.61, -195.84)" gradientUnits="userSpaceOnUse"><stop offset="0.05" stop-color="#e0a326"/><stop offset="0.41" stop-color="#e0a227" stop-opacity="0.99"/><stop offset="0.55" stop-color="#df9e2b" stop-opacity="0.96"/><stop offset="0.64" stop-color="#de9833" stop-opacity="0.91"/><stop offset="0.71" stop-color="#dd8f3e" stop-opacity="0.83"/><stop offset="0.78" stop-color="#db844c" stop-opacity="0.73"/><stop offset="0.84" stop-color="#d8755d" stop-opacity="0.61"/><stop offset="0.89" stop-color="#d56471" stop-opacity="0.47"/><stop offset="0.93" stop-color="#d25089" stop-opacity="0.3"/><stop offset="0.98" stop-color="#ce3ba3" stop-opacity="0.12"/><stop offset="1" stop-color="#cc2db4" stop-opacity="0"/></radialGradient><radialGradient id="radial-gradient-4" cx="138.36" cy="110.46" r="105.49" gradientTransform="matrix(1, 0, 0, 1, 0, 0)" xlink:href="#radial-gradient-3"/><radialGradient id="radial-gradient-5" cx="138.36" cy="110.46" r="105.49" gradientTransform="matrix(1, 0, 0, 1, 0, 0)" xlink:href="#radial-gradient-3"/><radialGradient id="radial-gradient-6" cx="138.36" cy="110.46" r="105.49" gradientTransform="matrix(1, 0, 0, 1, 0, 0)" xlink:href="#radial-gradient-3"/><radialGradient id="radial-gradient-7" cx="138.36" cy="110.46" r="105.49" gradientTransform="matrix(1, 0, 0, 1, 0, 0)" xlink:href="#radial-gradient-3"/><radialGradient id="radial-gradient-8" cx="139.95" cy="129.08" r="124.1" xlink:href="#radial-gradient-2"/><radialGradient id="radial-gradient-9" cx="139.11" cy="167.12" r="91.22" xlink:href="#radial-gradient-2"/><radialGradient id="radial-gradient-10" cx="127.4" cy="96.92" r="31.6" xlink:href="#radial-gradient-2"/><radialGradient id="radial-gradient-11" cx="127.4" cy="96.92" r="31.6" xlink:href="#radial-gradient-2"/><radialGradient id="radial-gradient-12" cx="658.79" cy="-570.43" r="31.6" gradientTransform="translate(862.17 -369.34) rotate(180)" xlink:href="#radial-gradient-2"/><radialGradient id="radial-gradient-13" cx="658.79" cy="-570.43" r="31.6" gradientTransform="translate(-220.17 -578.26) rotate(101.24)" xlink:href="#radial-gradient-2"/><radialGradient id="radial-gradient-14" cx="148.22" cy="-916.64" r="31.6" gradientTransform="translate(295.63 -679.24) rotate(-180)" xlink:href="#radial-gradient-2"/><radialGradient id="radial-gradient-15" cx="148.22" cy="-916.64" r="31.6" gradientTransform="translate(239.35 -687.31) rotate(176.44)" xlink:href="#radial-gradient-2"/><radialGradient id="radial-gradient-16" cx="-168.87" cy="-593.94" r="37.89" gradientTransform="matrix(0, -1, 1.77, 0, 1129.07, 34.8)" xlink:href="#radial-gradient-2"/><radialGradient id="radial-gradient-17" cx="103.35" cy="159.21" r="48.22" xlink:href="#radial-gradient-2"/><radialGradient id="radial-gradient-18" cx="307.4" cy="19.69" r="24.39" gradientTransform="matrix(0, 1, -1.77, 0, 192.81, -176.26)" xlink:href="#radial-gradient-2"/><radialGradient id="radial-gradient-19" cx="309.66" cy="-982.64" r="31.04" gradientTransform="translate(99.07 -872.49) rotate(159.71)" xlink:href="#radial-gradient-2"/><radialGradient id="radial-gradient-20" cx="490.59" cy="-515.97" r="30.6" gradientTransform="matrix(-1, 0, 0, -1.77, 662.23, -694.93)" xlink:href="#radial-gradient-2"/><radialGradient id="radial-gradient-21" cx="-367.41" cy="-308.84" r="38.95" gradientTransform="translate(538 -70.85) rotate(-72.91)" xlink:href="#radial-gradient-2"/><radialGradient id="radial-gradient-22" cx="-233.66" cy="60.75" r="24.91" gradientTransform="translate(317.59 65.41)" xlink:href="#radial-gradient-2"/><radialGradient id="radial-gradient-23" cx="-233.66" cy="60.75" r="24.91" gradientTransform="translate(166.21 -87.08) rotate(-53.79)" xlink:href="#radial-gradient-2"/><radialGradient id="radial-gradient-24" cx="-282.94" cy="-570.73" r="31.6" gradientTransform="translate(634.78 -68.7) rotate(-90)" xlink:href="#radial-gradient-2"/><radialGradient id="radial-gradient-25" cx="-282.94" cy="-570.73" r="31.6" gradientTransform="matrix(-0.51, -0.86, 0.86, -0.51, 419.29, -312.67)" xlink:href="#radial-gradient-2"/><radialGradient id="radial-gradient-26" cx="417.78" cy="3.25" r="17.89" gradientTransform="matrix(0, 1, -1, 0, 178.39, -304.42)" xlink:href="#radial-gradient-2"/><radialGradient id="radial-gradient-27" cx="417.78" cy="3.25" r="17.89" gradientTransform="translate(-194.39 -102.85) rotate(29.94)" xlink:href="#radial-gradient-2"/><radialGradient id="radial-gradient-28" cx="253.51" cy="-879.85" r="17.89" gradientTransform="translate(412.26 -636.57) rotate(180)" xlink:href="#radial-gradient-2"/><radialGradient id="radial-gradient-29" cx="253.51" cy="-879.85" r="17.89" gradientTransform="translate(192.66 -673.4) rotate(165.92)" xlink:href="#radial-gradient-2"/><radialGradient id="radial-gradient-30" cx="-534.25" cy="-308.87" r="17.88" gradientTransform="translate(369.65 -352.46) rotate(-90)" xlink:href="#radial-gradient-2"/><radialGradient id="radial-gradient-31" cx="-534.25" cy="-308.87" r="17.89" gradientTransform="translate(343.12 -366.66) rotate(-92.84)" xlink:href="#radial-gradient-2"/><radialGradient id="radial-gradient-32" cx="-236.71" cy="-808.79" r="17.89" gradientTransform="translate(919.76 5.07) rotate(-90)" xlink:href="#radial-gradient-2"/><radialGradient id="radial-gradient-33" cx="-236.71" cy="-808.79" r="17.89" gradientTransform="translate(76.46 -595.3) rotate(-166.86)" xlink:href="#radial-gradient-2"/><radialGradient id="radial-gradient-34" cx="688.36" cy="-279.41" r="13.72" gradientTransform="matrix(0, 1, -1, 0, -74.47, -532.65)" xlink:href="#radial-gradient-2"/><radialGradient id="radial-gradient-35" cx="688.36" cy="-279.41" r="13.72" gradientTransform="translate(-303.5 -389.89) rotate(69.11)" xlink:href="#radial-gradient-2"/><radialGradient id="radial-gradient-36" cx="599.2" cy="-767.96" r="13.73" gradientTransform="matrix(-1, 0, 0, -1, 789, -549.76)" xlink:href="#radial-gradient-2"/><radialGradient id="radial-gradient-37" cx="599.2" cy="-767.96" r="13.73" gradientTransform="matrix(-0.64, 0.77, -0.77, -0.64, -16.44, -738.67)" xlink:href="#radial-gradient-2"/><radialGradient id="radial-gradient-38" cx="-181.98" cy="-383.59" r="9.35" gradientTransform="translate(459.55 5.64) rotate(-90)" xlink:href="#radial-gradient-2"/><radialGradient id="radial-gradient-39" cx="-181.98" cy="-383.59" r="9.35" gradientTransform="matrix(-0.31, -0.95, 0.95, -0.31, 385.39, -103)" xlink:href="#radial-gradient-2"/><radialGradient id="radial-gradient-40" cx="150.43" cy="53.84" r="9.35" gradientTransform="matrix(1, 0, 0, 1.74, -36.19, 43.02)" xlink:href="#radial-gradient-2"/><radialGradient id="radial-gradient-41" cx="150.43" cy="53.84" r="9.35" gradientTransform="matrix(0.84, -0.54, 0.95, 1.46, -66.74, 142.79)" xlink:href="#radial-gradient-2"/><radialGradient id="radial-gradient-42" cx="663.74" cy="302.39" r="9.35" gradientTransform="translate(460.82 -542.06) rotate(90)" xlink:href="#radial-gradient-2"/><radialGradient id="radial-gradient-43" cx="663.74" cy="302.39" r="9.35" gradientTransform="translate(-352.25 -406.95) rotate(21.68)" xlink:href="#radial-gradient-2"/><radialGradient id="radial-gradient-44" cx="979.05" cy="-290.42" r="7.44" gradientTransform="matrix(-1, 0, 0, -1.64, 1163.07, -292.96)" xlink:href="#radial-gradient-2"/><radialGradient id="radial-gradient-45" cx="979.05" cy="-290.42" r="7.44" gradientTransform="matrix(-0.29, 0.96, -1.57, -0.47, 12.78, -897.98)" xlink:href="#radial-gradient-2"/><radialGradient id="radial-gradient-46" cx="-271.38" cy="80.46" r="17.88" gradientTransform="translate(358.9 31.33)" xlink:href="#radial-gradient-2"/><radialGradient id="radial-gradient-47" cx="-271.38" cy="80.46" r="17.88" gradientTransform="translate(245.36 -114.91) rotate(-38.54)" xlink:href="#radial-gradient-2"/><radialGradient id="radial-gradient-48" cx="-110.73" cy="242.59" r="41.45" gradientTransform="matrix(1, 0, 0, 0.83, 273.33, -9.32)" xlink:href="#radial-gradient-2"/><radialGradient id="radial-gradient-49" cx="-110.73" cy="242.59" r="41.45" gradientTransform="matrix(1, 0, 0, 0.83, 270.8, -12.47)" xlink:href="#radial-gradient-2"/><radialGradient id="radial-gradient-50" cx="514.35" cy="-207.22" r="46.23" gradientTransform="matrix(0, 1, -0.83, 0, -51.71, -317.09)" xlink:href="#radial-gradient-2"/><radialGradient id="radial-gradient-51" cx="522.36" cy="-194.4" r="27.95" gradientTransform="matrix(0, 1, -0.83, 0, -48.58, -318.49)" xlink:href="#radial-gradient-2"/><radialGradient id="radial-gradient-52" cx="514.68" cy="-416.39" r="22.76" gradientTransform="matrix(0, 1, -0.83, 0, -254.64, -339.13)" xlink:href="#radial-gradient-2"/><radialGradient id="radial-gradient-53" cx="509.07" cy="-564.24" r="33.12" gradientTransform="matrix(0, 1, -0.83, 0, -256.09, -352.94)" xlink:href="#radial-gradient-2"/><radialGradient id="radial-gradient-54" cx="515.81" cy="-553.17" r="21.69" gradientTransform="matrix(0, 1, -0.83, 0, -255.33, -352.78)" xlink:href="#radial-gradient-2"/><radialGradient id="radial-gradient-55" cx="420.68" cy="59.2" r="41.45" gradientTransform="matrix(0, 1, -0.83, 0, 176.2, -195.85)" xlink:href="#radial-gradient-2"/><radialGradient id="radial-gradient-56" cx="420.68" cy="59.2" r="41.45" gradientTransform="matrix(0, 1, -0.83, 0, 180.63, -201.08)" xlink:href="#radial-gradient-2"/><radialGradient id="radial-gradient-57" cx="405.86" cy="59.36" r="41.45" gradientTransform="matrix(0, 1, -0.83, 0, 169.09, -195.38)" xlink:href="#radial-gradient-2"/><radialGradient id="radial-gradient-58" cx="125.24" cy="83.74" r="120.44" gradientTransform="matrix(1, 0, 0, 1, 0, 0)" xlink:href="#radial-gradient-3"/><radialGradient id="radial-gradient-59" cx="4.12" cy="348.36" r="264.71" gradientTransform="matrix(0.92, -0.35, 0.18, 0.74, 78.68, -63.09)" gradientUnits="userSpaceOnUse"><stop offset="0" stop-color="#d1e1ee"/><stop offset="0.34" stop-color="#8ee1ee"/><stop offset="0.94" stop-color="#732fa4"/></radialGradient><radialGradient id="radial-gradient-60" cx="264.97" cy="342.35" r="264.71" gradientTransform="matrix(0.98, 0.11, -0.18, 0.75, -65.19, -87.65)" xlink:href="#radial-gradient-59"/><radialGradient id="radial-gradient-61" cx="142.67" cy="118.4" r="25.44" xlink:href="#radial-gradient-2"/><radialGradient id="radial-gradient-62" cx="46.67" cy="33.32" r="79.92" xlink:href="#radial-gradient-2"/><radialGradient id="radial-gradient-63" cx="-41.38" cy="46.52" r="53.29" gradientTransform="translate(78.22 -10.18) rotate(-8.19)" xlink:href="#radial-gradient-3"/><radialGradient id="radial-gradient-64" cx="51.74" cy="37.88" r="33.32" gradientTransform="matrix(1, 0, 0, 1, 0, 0)" xlink:href="#radial-gradient-3"/><radialGradient id="radial-gradient-65" cx="78.79" cy="34.99" r="34.89" gradientTransform="matrix(1, 0, 0, 1, 0, 0)" xlink:href="#radial-gradient-3"/><radialGradient id="radial-gradient-66" cx="39.18" cy="41.64" r="44.79" gradientTransform="matrix(1, 0, 0, 1, 0, 0)" xlink:href="#radial-gradient-3"/><radialGradient id="radial-gradient-67" cx="40.11" cy="40.52" r="45.08" gradientTransform="matrix(1, 0, 0, 1, 0, 0)" xlink:href="#radial-gradient-3"/><radialGradient id="radial-gradient-68" cx="80.94" cy="32.74" r="37.71" gradientTransform="matrix(1, 0, 0, 1, 0, 0)" xlink:href="#radial-gradient-3"/><radialGradient id="radial-gradient-69" cx="139.91" cy="71.75" r="48.83" gradientUnits="userSpaceOnUse"><stop offset="0.06" stop-color="#faf1d6"/><stop offset="0.24" stop-color="#f8edd3"/><stop offset="0.42" stop-color="#f2e1ca"/><stop offset="0.61" stop-color="#e8ccba"/><stop offset="0.8" stop-color="#dab0a5"/><stop offset="0.95" stop-color="#cc928e"/></radialGradient><radialGradient id="radial-gradient-70" cx="161.48" cy="50.01" r="5.26" xlink:href="#radial-gradient-69"/><radialGradient id="radial-gradient-71" cx="161.48" cy="50.01" r="5.26" xlink:href="#radial-gradient-69"/><radialGradient id="radial-gradient-72" cx="122.07" cy="63.04" r="6.55" xlink:href="#radial-gradient-69"/><radialGradient id="radial-gradient-73" cx="133.89" cy="42.9" r="62.42" gradientUnits="userSpaceOnUse"><stop offset="0.06" stop-color="#66b0d8"/><stop offset="1" stop-color="#3f1f7d"/></radialGradient><radialGradient id="radial-gradient-74" cx="158.06" cy="102.4" r="7.54" gradientUnits="userSpaceOnUse"><stop offset="0" stop-color="#b10058"/><stop offset="1" stop-color="#5c2d7d" stop-opacity="0.6"/></radialGradient><radialGradient id="radial-gradient-75" cx="-436.3" cy="-238.37" r="11.75" gradientTransform="matrix(0.32, -0.95, 0.95, 0.32, 515, -234.82)" xlink:href="#radial-gradient-2"/><radialGradient id="radial-gradient-76" cx="152.72" cy="97.61" r="11.08" xlink:href="#radial-gradient-2"/><radialGradient id="radial-gradient-77" cx="155.5" cy="101.63" r="5.9" xlink:href="#radial-gradient-2"/><radialGradient id="radial-gradient-78" cx="137.31" cy="42.93" r="61.03" xlink:href="#radial-gradient-73"/><radialGradient id="radial-gradient-79" cx="79.45" cy="35.17" r="167.04" xlink:href="#radial-gradient-74"/><radialGradient id="radial-gradient-80" cx="-1.05" cy="47.68" r="209.35" xlink:href="#radial-gradient-74"/><radialGradient id="radial-gradient-81" cx="118.12" cy="85.55" r="11.75" xlink:href="#radial-gradient-2"/><radialGradient id="radial-gradient-82" cx="118.13" cy="87.68" r="10.65" xlink:href="#radial-gradient-2"/><radialGradient id="radial-gradient-83" cx="115.21" cy="81.42" r="23.54" xlink:href="#radial-gradient-2"/><radialGradient id="radial-gradient-84" cx="115.21" cy="81.42" r="23.54" xlink:href="#radial-gradient-2"/><radialGradient id="radial-gradient-85" cx="115.21" cy="81.42" r="23.54" xlink:href="#radial-gradient-2"/><radialGradient id="radial-gradient-86" cx="115.21" cy="81.42" r="23.54" xlink:href="#radial-gradient-2"/><radialGradient id="radial-gradient-87" cx="145.72" cy="81.33" r="35.79" xlink:href="#radial-gradient-74"/><radialGradient id="radial-gradient-88" cx="116.33" cy="85.03" r="22.08" gradientTransform="translate(-0.84 19.87) scale(1.02 1.04)" xlink:href="#radial-gradient-73"/><radialGradient id="radial-gradient-89" cx="120.07" cy="102.63" r="62.93" xlink:href="#radial-gradient-73"/><radialGradient id="radial-gradient-90" cx="122.89" cy="106.31" r="8.95" xlink:href="#radial-gradient-73"/><radialGradient id="radial-gradient-91" cx="121.51" cy="110.81" r="9.84" xlink:href="#radial-gradient-73"/><radialGradient id="radial-gradient-92" cx="121.51" cy="110.81" r="9.84" xlink:href="#radial-gradient-73"/><radialGradient id="radial-gradient-93" cx="161.59" cy="6.07" r="22.08" gradientTransform="matrix(1.05, 0.03, -0.03, 1.24, -17.6, 100.53)" xlink:href="#radial-gradient-73"/><radialGradient id="radial-gradient-94" cx="166.35" cy="19.7" r="62.93" gradientTransform="matrix(1.03, 0.03, -0.03, 1.18, -16.26, 77.58)" xlink:href="#radial-gradient-73"/><radialGradient id="radial-gradient-95" cx="169.16" cy="23.38" r="8.95" gradientTransform="matrix(1.03, 0.03, -0.03, 1.18, -16.26, 77.58)" xlink:href="#radial-gradient-73"/><radialGradient id="radial-gradient-96" cx="167.79" cy="27.88" r="9.84" gradientTransform="matrix(1.03, 0.03, -0.03, 1.18, -16.26, 77.58)" xlink:href="#radial-gradient-73"/><radialGradient id="radial-gradient-97" cx="167.79" cy="27.88" r="9.84" gradientTransform="matrix(1.03, 0.03, -0.03, 1.18, -16.26, 77.58)" xlink:href="#radial-gradient-73"/><radialGradient id="radial-gradient-98" cx="94.56" cy="63.35" r="25.82" xlink:href="#radial-gradient-73"/><radialGradient id="radial-gradient-99" cx="177.41" cy="12.3" r="40.48" xlink:href="#radial-gradient-73"/><radialGradient id="radial-gradient-100" cx="135.29" cy="43" r="62.42" xlink:href="#radial-gradient-73"/><radialGradient id="radial-gradient-101" cx="135.32" cy="42.73" r="59.42" xlink:href="#radial-gradient-73"/><radialGradient id="radial-gradient-102" cx="146.48" cy="72.68" r="12.02" xlink:href="#radial-gradient-74"/><radialGradient id="radial-gradient-103" cx="160.78" cy="107.17" r="4.35" xlink:href="#radial-gradient-74"/><radialGradient id="radial-gradient-104" cx="155.52" cy="90.79" r="6.29" xlink:href="#radial-gradient-74"/><radialGradient id="radial-gradient-105" cx="124.33" cy="99.5" r="4.39" xlink:href="#radial-gradient-74"/><radialGradient id="radial-gradient-106" cx="130.46" cy="86.7" r="5.54" xlink:href="#radial-gradient-74"/><radialGradient id="radial-gradient-107" cx="120.37" cy="70.17" r="4.59" xlink:href="#radial-gradient-74"/><radialGradient id="radial-gradient-108" cx="163.5" cy="53.84" r="4.89" xlink:href="#radial-gradient-74"/><radialGradient id="radial-gradient-109" cx="107.27" cy="71.91" r="7.31" xlink:href="#radial-gradient-73"/><radialGradient id="radial-gradient-110" cx="139.18" cy="48.85" r="36.9" xlink:href="#radial-gradient-73"/><radialGradient id="radial-gradient-111" cx="176.32" cy="36.05" r="10.57" xlink:href="#radial-gradient-73"/><radialGradient id="radial-gradient-112" cx="139.72" cy="61.07" r="10.66" xlink:href="#radial-gradient-73"/><radialGradient id="radial-gradient-113" cx="122.89" cy="38.15" r="53.22" xlink:href="#radial-gradient-73"/><radialGradient id="radial-gradient-114" cx="122.89" cy="38.15" r="53.22" xlink:href="#radial-gradient-73"/><radialGradient id="radial-gradient-115" cx="122.89" cy="38.15" r="53.22" xlink:href="#radial-gradient-73"/><radialGradient id="radial-gradient-116" cx="122.89" cy="38.15" r="53.22" xlink:href="#radial-gradient-73"/><radialGradient id="radial-gradient-117" cx="122.89" cy="38.15" r="53.22" xlink:href="#radial-gradient-73"/><radialGradient id="radial-gradient-118" cx="122.89" cy="38.15" r="53.22" xlink:href="#radial-gradient-73"/><radialGradient id="radial-gradient-119" cx="122.9" cy="38.15" r="53.22" xlink:href="#radial-gradient-73"/><radialGradient id="radial-gradient-120" cx="122.9" cy="38.15" r="53.22" xlink:href="#radial-gradient-73"/><radialGradient id="radial-gradient-121" cx="122.89" cy="38.15" r="53.22" xlink:href="#radial-gradient-73"/><radialGradient id="radial-gradient-122" cx="137.51" cy="69.28" r="10.49" xlink:href="#radial-gradient-69"/><radialGradient id="radial-gradient-123" cx="137.51" cy="69.28" r="10.49" xlink:href="#radial-gradient-69"/><radialGradient id="radial-gradient-124" cx="116.92" cy="15.25" r="59.89" gradientTransform="translate(13.39 -37.89) rotate(16.79)" xlink:href="#radial-gradient-69"/><radialGradient id="radial-gradient-125" cx="126.84" cy="16.51" r="51.16" xlink:href="#radial-gradient-74"/><radialGradient id="radial-gradient-126" cx="119.48" cy="9.23" r="47.31" gradientUnits="userSpaceOnUse"><stop offset="0.06" stop-color="#66b0d8"/><stop offset="0.89" stop-color="#93fcce"/></radialGradient><radialGradient id="radial-gradient-127" cx="119.73" cy="15.51" r="43.05" xlink:href="#radial-gradient-126"/><radialGradient id="radial-gradient-128" cx="120.88" cy="9.23" r="46.48" xlink:href="#radial-gradient-73"/><radialGradient id="radial-gradient-129" cx="120.9" cy="10.93" r="43.53" xlink:href="#radial-gradient-73"/><radialGradient id="radial-gradient-130" cx="125.39" cy="7.67" r="32.53" xlink:href="#radial-gradient-69"/><radialGradient id="radial-gradient-131" cx="125.39" cy="7.67" r="32.53" xlink:href="#radial-gradient-69"/><radialGradient id="radial-gradient-132" cx="121.26" cy="2.58" r="20.78" xlink:href="#radial-gradient-74"/><radialGradient id="radial-gradient-133" cx="120.36" cy="0.33" r="21.35" xlink:href="#radial-gradient-2"/><radialGradient id="radial-gradient-134" cx="120.39" cy="0.35" r="21.32" xlink:href="#radial-gradient-2"/><radialGradient id="radial-gradient-135" cx="128.41" cy="0.3" r="14.96" xlink:href="#radial-gradient-2"/><radialGradient id="radial-gradient-136" cx="120.57" cy="3.11" r="25.88" xlink:href="#radial-gradient-2"/><radialGradient id="radial-gradient-137" cx="120.57" cy="3.11" r="25.88" xlink:href="#radial-gradient-2"/><radialGradient id="radial-gradient-138" cx="120.57" cy="3.11" r="25.88" xlink:href="#radial-gradient-2"/><radialGradient id="radial-gradient-139" cx="120.57" cy="3.11" r="25.88" xlink:href="#radial-gradient-2"/><radialGradient id="radial-gradient-140" cx="150.73" cy="14.73" r="18.06" xlink:href="#radial-gradient-74"/><radialGradient id="radial-gradient-141" cx="151.28" cy="14.35" r="17.98" xlink:href="#radial-gradient-2"/><radialGradient id="radial-gradient-142" cx="151.63" cy="14.81" r="17.46" xlink:href="#radial-gradient-2"/><radialGradient id="radial-gradient-143" cx="150.59" cy="14.35" r="16.73" xlink:href="#radial-gradient-2"/><radialGradient id="radial-gradient-144" cx="151.67" cy="14.2" r="11.08" xlink:href="#radial-gradient-2"/><radialGradient id="radial-gradient-145" cx="151.07" cy="19.29" r="25.84" xlink:href="#radial-gradient-2"/><radialGradient id="radial-gradient-147" cx="151.07" cy="19.29" r="25.84" xlink:href="#radial-gradient-2"/><radialGradient id="radial-gradient-148" cx="151.07" cy="19.29" r="25.84" xlink:href="#radial-gradient-2"/></defs><title>illustration-welcome</title><g class="cls-1"><g id="Layer_2" data-name="Layer 2"><g id="BACKGROUND1"><circle class="cls-2" cx="133.21" cy="172.76" r="80.43"/><circle class="cls-3" cx="133.21" cy="172.76" r="72.01"/><path class="cls-4" d="M77.66,163.64c-3.24-6.17-2.26-15-.29-21,4.17-12.68,15-21.79,26.35-28.1,35.33-19.7,74.15,4.69,77.46,20.21s-12.25,23.74-33.41,18.76S110.68,172,96.08,172c-5.57,0-11.3-.9-15.63-4.78A12.83,12.83,0,0,1,77.66,163.64Z"/><g class="cls-5"><path class="cls-6" d="M90,138.68a144.15,144.15,0,0,1-4.17-15.28A68.11,68.11,0,0,0,73,204.18a68.16,68.16,0,0,1,17-65.5Z"/><path class="cls-7" d="M170.15,115.14a68.08,68.08,0,0,0-80.74,5,136.37,136.37,0,0,0,3.92,15.32,68.09,68.09,0,0,1,78.59-8.67A71.33,71.33,0,0,0,170.15,115.14Z"/><path class="cls-8" d="M189,140.35a71.65,71.65,0,0,0-.41-7.62,68.56,68.56,0,0,0-14.71-15,80.63,80.63,0,0,1,1.24,11A68.52,68.52,0,0,1,189,140.35Z"/><path class="cls-9" d="M191.94,143.84a68.06,68.06,0,0,1,6.93,10.54A67.57,67.57,0,0,0,192,138Q192.07,140.92,191.94,143.84Z"/></g><path class="cls-10" d="M181.71,121.46A57.66,57.66,0,1,1,70,141.54c0-.12,0-.24,0-.36a70.73,70.73,0,1,0,111.71-19.71Z"/><path class="cls-11" d="M200.44,162.19c0,.1,0,.2,0,.31,0,38.9-30.6,70.44-68.36,70.44-34.94,0-63.76-27-67.85-61.89.17,38.75,30.71,70.11,68.35,70.11s68.36-31.54,68.36-70.44A73.23,73.23,0,0,0,200.44,162.19Z"/><ellipse class="cls-12" cx="137.08" cy="112.45" rx="16.93" ry="8.04"/><path class="cls-13" d="M121.66,115.76c2.66,2.79,8.56,4.73,15.42,4.73,7.6,0,14-2.38,16.17-5.66-2.66-2.79-8.56-4.73-15.42-4.73C130.23,110.1,123.8,112.48,121.66,115.76Z"/><ellipse class="cls-14" cx="193.72" cy="185.59" rx="16.93" ry="8.04" transform="translate(-26.08 339.39) rotate(-78.75)"/><path class="cls-15" d="M193.48,169.81c-3.25,2.06-6.31,7.47-7.65,14.2-1.48,7.46-.4,14.23,2.4,17,3.25-2.06,6.31-7.47,7.65-14.2C197.36,179.32,196.28,172.55,193.48,169.81Z"/><ellipse class="cls-16" cx="137.7" cy="221.9" rx="16.93" ry="8.04" transform="translate(-13.52 8.98) rotate(-3.56)"/><path class="cls-17" d="M152.88,217.63c-2.83-2.62-8.84-4.19-15.69-3.76-7.59.47-13.86,3.25-15.79,6.66,2.83,2.62,8.84,4.19,15.69,3.76C144.68,223.82,151,221,152.88,217.63Z"/><ellipse class="cls-18" cx="112.04" cy="192.07" rx="17.05" ry="20.3" transform="translate(-109.9 178.46) rotate(-56.23)"/><path class="cls-19" d="M121.52,177.9c-8.41-5.62-18.83-5.11-24.63.78-3.21,7.61.31,17.41,8.7,23s18.83,5.11,24.63-.78C133.43,193.32,129.91,183.51,121.52,177.9Z"/><ellipse class="cls-20" cx="136.83" cy="138.62" rx="10.97" ry="13.06" transform="translate(-29.86 239.38) rotate(-76.52)"/><path class="cls-21" d="M134.27,149.29c6.33,1.52,12.51-1.11,14.69-6,.24-5.31-4.07-10.44-10.39-12s-12.51,1.11-14.69,6C123.64,142.64,128,147.78,134.27,149.29Z"/><ellipse class="cls-22" cx="162.27" cy="190.64" rx="16.39" ry="13.77" transform="translate(-83.92 145.23) rotate(-39.15)"/><path class="cls-23" d="M153.58,180c-6.33,5.16-8.42,13.32-5.24,19.2,5.11,4.29,13.52,3.9,19.84-1.25s8.42-13.32,5.24-19.2C168.31,174.42,159.9,174.81,153.58,180Z"/><ellipse class="cls-24" cx="91.57" cy="138.4" rx="13.34" ry="6.34" transform="translate(-74.19 130.51) rotate(-53.79)"/><path class="cls-25" d="M86.49,149.75c3-.39,7-3.24,10.19-7.61,3.54-4.84,5-10,3.93-12.92-3,.39-7,3.24-10.19,7.61C86.88,141.66,85.4,146.86,86.49,149.75Z"/><ellipse class="cls-26" cx="79.6" cy="204.53" rx="8.04" ry="16.93" transform="translate(-92.79 68.7) rotate(-30.5)"/><path class="cls-27" d="M90.28,216.14c1.05-3.71-.27-9.78-3.75-15.69-3.86-6.55-9.18-10.88-13.09-11.06-1.05,3.71.27,9.78,3.75,15.69C81.06,211.63,86.37,216,90.28,216.14Z"/><ellipse class="cls-28" cx="166.36" cy="118.83" rx="4.55" ry="9.58" transform="translate(-19.65 203.68) rotate(-60.06)"/><path class="cls-29" d="M157.86,116.1c.52,2.12,2.86,4.74,6.23,6.68,3.73,2.15,7.56,2.8,9.53,1.79-.52-2.12-2.86-4.74-6.23-6.68C163.67,115.74,159.84,115.1,157.86,116.1Z"/><ellipse class="cls-30" cx="153.28" cy="234.51" rx="9.58" ry="4.55" transform="translate(-52.43 44.31) rotate(-14.07)"/><path class="cls-31" d="M161.29,230.57c-1.84-1.17-5.35-1.42-9.12-.47-4.17,1-7.38,3.24-8.1,5.33,1.84,1.17,5.35,1.42,9.12.47C157.37,234.86,160.57,232.66,161.29,230.57Z"/><ellipse class="cls-32" cx="69.57" cy="176.32" rx="4.55" ry="9.58" transform="translate(-8.64 3.66) rotate(-2.84)"/><path class="cls-33" d="M71.87,184.95c1.5-1.58,2.43-5,2.24-8.85-.21-4.3-1.74-7.87-3.65-9-1.5,1.58-2.43,5-2.24,8.85C68.43,180.26,70,183.83,71.87,184.95Z"/><ellipse class="cls-34" cx="119.79" cy="236.3" rx="4.55" ry="9.58" transform="translate(-137.55 299.23) rotate(-76.86)"/><path class="cls-35" d="M128.71,236.45c-1.11-1.88-4.11-3.71-7.89-4.59-4.19-1-8-.49-9.64,1,1.11,1.88,4.11,3.71,7.89,4.59C123.26,238.47,127.11,238,128.71,236.45Z"/><ellipse class="cls-36" cx="198.23" cy="159.94" rx="3.49" ry="7.35" transform="translate(-44 81.19) rotate(-20.89)"/><path class="cls-37" d="M194.5,154.2c-.72,1.51-.59,4.21.47,7,1.18,3.09,3.14,5.33,4.8,5.69.72-1.51.59-4.21-.47-7C198.12,156.8,196.16,154.56,194.5,154.2Z"/><ellipse class="cls-38" cx="185.59" cy="211.44" rx="7.35" ry="3.49" transform="translate(-95.62 219.71) rotate(-50.41)"/><path class="cls-39" d="M188.75,205.36c-1.67.12-4,1.56-5.85,3.85-2.1,2.55-3.09,5.36-2.58,7,1.67-.12,4-1.56,5.85-3.85C188.28,209.79,189.26,207,188.75,205.36Z"/><ellipse class="cls-40" cx="80.54" cy="184.75" rx="2.38" ry="5.01" transform="translate(-53.29 34.06) rotate(-18.05)"/><path class="cls-41" d="M82.89,188.79a6.67,6.67,0,0,0-.08-4.78c-.7-2.14-2-3.73-3.08-4a6.67,6.67,0,0,0,.08,4.78C80.51,186.9,81.77,188.49,82.89,188.79Z"/><ellipse class="cls-42" cx="117.1" cy="144.52" rx="5.01" ry="4.14" transform="translate(-59.79 87) rotate(-32.97)"/><path class="cls-43" d="M114.19,148.43a5.15,5.15,0,0,0,5.15-.44,5,5,0,0,0,2.43-5,5.15,5.15,0,0,0-5.15.44A5,5,0,0,0,114.19,148.43Z"/><ellipse class="cls-44" cx="153.83" cy="124.57" rx="2.38" ry="5.01" transform="translate(-18.75 221.51) rotate(-68.32)"/><path class="cls-45" d="M149.23,123.8a6.67,6.67,0,0,0,3.73,3c2.09.83,4.12.88,5.07.21a6.67,6.67,0,0,0-3.73-3C152.2,123.17,150.17,123.13,149.23,123.8Z"/><ellipse class="cls-46" cx="181.73" cy="176.8" rx="3.99" ry="3.1" transform="translate(-39.73 300.26) rotate(-73.35)"/><path class="cls-47" d="M181.54,173a4.16,4.16,0,0,0-2.79,3,4,4,0,0,0,1,4.28,4.16,4.16,0,0,0,2.79-3A4,4,0,0,0,181.54,173Z"/><ellipse class="cls-48" cx="92.99" cy="120.59" rx="9.58" ry="4.55" transform="translate(-54.88 84.21) rotate(-38.54)"/><path class="cls-49" d="M87.33,127.5c2.16.3,5.46-.93,8.5-3.35,3.37-2.68,5.37-6,5.16-8.21-2.16-.3-5.46.93-8.5,3.35C89.13,122,87.12,125.29,87.33,127.5Z"/><ellipse class="cls-50" cx="164.24" cy="219.56" rx="3.58" ry="2.03" transform="translate(-87.17 110.12) rotate(-29.68)"/><ellipse class="cls-51" cx="168.92" cy="213.21" rx="2.18" ry="1.23" transform="translate(-83.41 111.61) rotate(-29.68)"/><ellipse class="cls-52" cx="90.03" cy="199.08" rx="2.26" ry="3.99" transform="translate(-79.91 61.76) rotate(-26.73)"/><ellipse class="cls-53" cx="94.55" cy="204.97" rx="1.37" ry="2.41" transform="translate(-82.08 64.42) rotate(-26.73)"/><ellipse class="cls-54" cx="76.39" cy="176.46" rx="1.11" ry="1.97" transform="translate(-20.5 10.37) rotate(-6.85)"/><ellipse class="cls-55" cx="190.98" cy="157.45" rx="1.62" ry="2.86" transform="translate(-17.41 23.9) rotate(-6.85)"/><ellipse class="cls-56" cx="190.07" cy="163.9" rx="1.06" ry="1.87" transform="translate(-18.19 23.83) rotate(-6.85)"/><ellipse class="cls-57" cx="99.73" cy="226.46" rx="2.03" ry="3.58" transform="translate(-139.56 163.45) rotate(-51.48)"/><ellipse class="cls-58" cx="107.36" cy="228.45" rx="1.23" ry="2.18" transform="translate(-138.24 170.17) rotate(-51.48)"/><ellipse class="cls-59" cx="95.68" cy="219.32" rx="1.23" ry="2.18" transform="translate(-135.5 157.59) rotate(-51.48)"/><path class="cls-60" d="M105.53,117.68c-.38-1.05.82-2.45,2.68-3.12s3.68-.36,4.06.7-.82,2.45-2.68,3.12S105.91,118.73,105.53,117.68Zm-1.91,5.4c1.13-.41,1.86-1.26,1.63-1.9s-1.34-.83-2.47-.42-1.86,1.26-1.63,1.9S102.49,123.49,103.62,123.08Zm13.9-5.15c1.13-.41,1.86-1.26,1.63-1.9s-1.34-.83-2.47-.42-1.86,1.26-1.63,1.9S116.39,118.34,117.52,117.93Zm48.78,12.34c.32-1.07,2.11-1.49,4-.93s3.18,1.89,2.86,3-2.11,1.49-4,.93S166,131.35,166.29,130.27Zm9.51,7.31c1.15.34,2.25.09,2.44-.56s-.58-1.46-1.74-1.8-2.25-.09-2.44.56S174.65,137.24,175.8,137.58Z"/><g class="cls-61"><path class="cls-62" d="M248.11,106.95c-6.15-10.23-28.69-5.75-46.53-.19l-.73.23c-7.73,2.44-16,5.52-24.69,9.16,1.18.74,2.34,1.51,3.45,2.34,7.8-3.22,15.28-6,22.29-8.18l.72-.23c22.83-7.12,38.71-7.62,42.48-1.34s-4.17,20-21.24,36.69c-18.12,17.72-44.62,37.33-74.61,55.22s-59.88,31.9-84.08,39.46c-22.83,7.12-38.71,7.62-42.48,1.34s4.17-20,21.24-36.69c5.56-5.43,11.91-11,18.9-16.74-.16-.78-.28-1.56-.38-2.35q-.16-.8-.29-1.6c-7.69,6.18-14.65,12.29-20.69,18.2-13.34,13-27.95,30.73-21.8,41s28.7,5.75,46.53.19l.73-.23c24.35-7.69,54.19-21.72,84.11-39.57,30.22-18,57-37.83,75.27-55.73C239.64,134.87,254.25,117.18,248.11,106.95Z"/></g><g class="cls-61"><path class="cls-63" d="M266.81,166.3c-.86-12-23.11-18.27-41.63-21.38l-.76-.13c-8-1.32-16.87-2.31-26.3-3,.72,1.21,1.41,2.43,2,3.68,8.46.65,16.41,1.57,23.7,2.77l.75.12c23.7,4,38.17,10.76,38.69,18.15S250.47,182.71,227.57,190c-24.3,7.74-57,13.38-92,15.88s-68.19,1.53-93.33-2.67c-23.7-4-38.17-10.76-38.69-18.15S16.37,168.9,39.27,161.6c7.46-2.38,15.7-4.55,24.56-6.5.21-.77.46-1.54.73-2.29q.22-.79.47-1.57c-9.71,2.08-18.73,4.43-26.83,7-17.89,5.7-39,15-38.17,27.07s23.11,18.27,41.63,21.38l.76.13c25.33,4.16,58.46,5.08,93.4,2.59,35.3-2.52,68.26-8.21,92.82-16C246.53,187.66,267.67,178.34,266.81,166.3Z"/></g><path class="cls-64" d="M140.86,106.34c-7.59-1-26,.39-31.3,9.8s21.18,5.11,30.41,6.71,20.77,12.78,33.2,5.33S160.22,108.83,140.86,106.34Z"/><path class="cls-65" d="M114,114.07,103.74,77.56a1.58,1.58,0,0,1-.66.23,2.56,2.56,0,0,1-1.53-.19l10.37,37a1.06,1.06,0,1,0,2-.57Z"/><path class="cls-65" d="M100.63,67.45a.62.62,0,0,1,.21-.23L88,21.19a1.06,1.06,0,0,0-2,.57L99.59,70.6A8.3,8.3,0,0,1,100.63,67.45Z"/><path class="cls-66" d="M100.07,68.65,86.6,20.55s0,0,0-.07a1.05,1.05,0,0,0-.68,1.28L99.59,70.6A7,7,0,0,1,100.07,68.65Z"/><path class="cls-66" d="M114,114.15l-.06,0a1.06,1.06,0,0,1-1.3-.73l-10-35.61a2.19,2.19,0,0,1-1.09-.22l10.37,37a1.06,1.06,0,0,0,2-.5Z"/><path class="cls-67" d="M88.47,22.6s-3.78,8.55-19.9,8.55-30.43-.49-40.14,16.78l8.72,33.39S44.71,65.21,58.36,65s31.42,3,39.31-8.88Z"/><circle class="cls-65" cx="61.3" cy="47.82" r="10.3" transform="matrix(0.99, -0.14, 0.14, 0.99, -6.19, 9.22)"/><path class="cls-68" d="M53.24,47.66a4.19,4.19,0,0,1-.47-3,7.66,7.66,0,0,1,3.16-4.52c4.6-3.51,10.6-.85,11.38,1.28S66.06,45.07,63,44.79,58.09,48.17,56,48.47a3.22,3.22,0,0,1-2.31-.36A1.84,1.84,0,0,1,53.24,47.66Z"/><g class="cls-5"><path class="cls-68" d="M54.48,43.87a20.65,20.65,0,0,1-.9-2.08,9.75,9.75,0,0,0-.17,11.7,9.75,9.75,0,0,1,1.07-9.62Z"/><path class="cls-68" d="M65.35,38.91A9.74,9.74,0,0,0,54,41.26a19.52,19.52,0,0,0,.87,2.09,9.74,9.74,0,0,1,11-2.83A10.21,10.21,0,0,0,65.35,38.91Z"/><path class="cls-68" d="M68.53,42.09A10.27,10.27,0,0,0,68.32,41a9.81,9.81,0,0,0-2.39-1.83,11.55,11.55,0,0,1,.4,1.53A9.81,9.81,0,0,1,68.53,42.09Z"/><path class="cls-68" d="M69,42.53a9.73,9.73,0,0,1,1.2,1.35,9.67,9.67,0,0,0-1.31-2.18Q69,42.11,69,42.53Z"/></g><path class="cls-69" d="M67.12,39.56a8.25,8.25,0,1,1-15.41,5.12v-.05a10.12,10.12,0,1,0,15.42-5.07Z"/><path class="cls-69" d="M70.6,45v0a9.77,9.77,0,0,1-19.12,4,9.79,9.79,0,1,0,19.36-2.83A10.48,10.48,0,0,0,70.6,45Z"/><ellipse class="cls-69" cx="60.61" cy="39.2" rx="2.42" ry="1.15" transform="translate(-4.96 9.03) rotate(-8.19)"/><path class="cls-69" d="M58.5,40a3.22,3.22,0,0,0,2.28.36A2.91,2.91,0,0,0,63,39.2a3.22,3.22,0,0,0-2.28-.36A2.91,2.91,0,0,0,58.5,40Z"/><ellipse class="cls-69" cx="70.13" cy="48.4" rx="2.42" ry="1.15" transform="translate(18.05 115.85) rotate(-86.94)"/><path class="cls-69" d="M69.77,46.17A3.22,3.22,0,0,0,69,48.34a2.91,2.91,0,0,0,.69,2.35,3.22,3.22,0,0,0,.79-2.17A2.91,2.91,0,0,0,69.77,46.17Z"/><ellipse class="cls-69" cx="62.93" cy="54.69" rx="2.42" ry="1.15" transform="translate(-9.82 13.96) rotate(-11.75)"/><path class="cls-69" d="M65,53.77a3.22,3.22,0,0,0-2.3-.21,2.91,2.91,0,0,0-2.1,1.26,3.22,3.22,0,0,0,2.3.21A2.91,2.91,0,0,0,65,53.77Z"/><ellipse class="cls-69" cx="58.69" cy="50.99" rx="2.44" ry="2.9" transform="translate(-12.64 81.91) rotate(-64.42)"/><path class="cls-69" d="M59.74,48.79a2.8,2.8,0,0,0-3.47.61,3,3,0,0,0,5.17,2.47A2.8,2.8,0,0,0,59.74,48.79Z"/><ellipse class="cls-69" cx="61.11" cy="42.91" rx="1.57" ry="1.87" transform="translate(12.75 99.81) rotate(-84.71)"/><path class="cls-69" d="M61,44.47a1.8,1.8,0,0,0,2-1.15A2,2,0,0,0,59.25,43,1.8,1.8,0,0,0,61,44.47Z"/><ellipse class="cls-69" cx="65.78" cy="49.76" rx="2.35" ry="1.97" transform="translate(-15.39 64.4) rotate(-47.33)"/><path class="cls-69" d="M64.33,48.42A2.26,2.26,0,0,0,64,51.25a2.45,2.45,0,0,0,3.14-3.41A2.26,2.26,0,0,0,64.33,48.42Z"/><ellipse class="cls-69" cx="54.7" cy="43.8" rx="1.91" ry="0.91" transform="translate(-9.67 71.5) rotate(-61.97)"/><path class="cls-69" d="M54.21,45.51a2.54,2.54,0,0,0,1.29-1.29,2.29,2.29,0,0,0,.29-1.91A2.54,2.54,0,0,0,54.5,43.6,2.29,2.29,0,0,0,54.21,45.51Z"/><ellipse class="cls-69" cx="54.35" cy="53.41" rx="1.15" ry="2.42" transform="translate(-21.46 45.69) rotate(-38.69)"/><path class="cls-69" d="M56.1,54.84a3.22,3.22,0,0,0-.85-2.15,2.91,2.91,0,0,0-2.08-1.3A3.22,3.22,0,0,0,54,53.54,2.91,2.91,0,0,0,56.1,54.84Z"/><ellipse class="cls-69" cx="64.89" cy="39.5" rx="0.65" ry="1.37" transform="matrix(0.37, -0.93, 0.93, 0.37, 4.15, 85.14)"/><path class="cls-69" d="M63.63,39.29a1.82,1.82,0,0,0,1,.82,1.64,1.64,0,0,0,1.39.06,1.82,1.82,0,0,0-1-.82A1.64,1.64,0,0,0,63.63,39.29Z"/><ellipse class="cls-69" cx="65.4" cy="56.16" rx="1.37" ry="0.65" transform="translate(-16.4 28.96) rotate(-22.26)"/><path class="cls-69" d="M66.45,55.44a1.82,1.82,0,0,0-1.3.12,1.64,1.64,0,0,0-1,.92,1.82,1.82,0,0,0,1.3-.12A1.64,1.64,0,0,0,66.45,55.44Z"/><ellipse class="cls-69" cx="52.35" cy="49.62" rx="0.65" ry="1.37" transform="translate(-8.52 10.93) rotate(-11.03)"/><path class="cls-69" d="M52.86,50.8A1.82,1.82,0,0,0,53,49.5a1.64,1.64,0,0,0-.7-1.2,1.82,1.82,0,0,0-.14,1.3A1.64,1.64,0,0,0,52.86,50.8Z"/><ellipse class="cls-69" cx="60.69" cy="57.09" rx="0.65" ry="1.37" transform="matrix(0.09, -1, 1, 0.09, -1.43, 112.63)"/><path class="cls-69" d="M62,56.93a1.82,1.82,0,0,0-1.21-.49,1.64,1.64,0,0,0-1.34.34,1.82,1.82,0,0,0,1.21.49A1.64,1.64,0,0,0,62,56.93Z"/><ellipse class="cls-69" cx="70.24" cy="44.68" rx="0.5" ry="1.05" transform="translate(-12.86 39.77) rotate(-29.08)"/><path class="cls-69" d="M69.6,43.94a1.4,1.4,0,0,0,.21,1,1.26,1.26,0,0,0,.8.71,1.4,1.4,0,0,0-.21-1A1.26,1.26,0,0,0,69.6,43.94Z"/><ellipse class="cls-69" cx="69.5" cy="52.23" rx="1.05" ry="0.5" transform="translate(-11.29 84.34) rotate(-58.6)"/><path class="cls-69" d="M69.83,51.3a1.4,1.4,0,0,0-.75.67,1.26,1.26,0,0,0-.22,1,1.4,1.4,0,0,0,.75-.67A1.26,1.26,0,0,0,69.83,51.3Z"/><ellipse class="cls-69" cx="54.08" cy="50.59" rx="0.34" ry="0.72" transform="translate(-16.8 29.13) rotate(-26.24)"/><path class="cls-69" d="M54.5,51.12a1,1,0,0,0-.11-.67c-.14-.29-.35-.49-.52-.51a1,1,0,0,0,.11.67C54.12,50.9,54.33,51.1,54.5,51.12Z"/><ellipse class="cls-69" cx="58.44" cy="44.15" rx="0.72" ry="0.59" transform="translate(-14.61 49.37) rotate(-41.16)"/><path class="cls-69" d="M58.11,44.76a.74.74,0,0,0,.72-.17.72.72,0,0,0,.24-.76.74.74,0,0,0-.72.17A.72.72,0,0,0,58.11,44.76Z"/><ellipse class="cls-69" cx="63.23" cy="40.57" rx="0.34" ry="0.72" transform="translate(9.03 92.6) rotate(-76.51)"/><path class="cls-69" d="M62.57,40.56a1,1,0,0,0,.59.35.86.86,0,0,0,.72-.07,1,1,0,0,0-.59-.35A.86.86,0,0,0,62.57,40.56Z"/><ellipse class="cls-69" cx="68.25" cy="47.4" rx="0.57" ry="0.44" transform="translate(11.33 107.94) rotate(-81.54)"/><path class="cls-69" d="M68.15,46.86a.6.6,0,0,0-.33.48.57.57,0,0,0,.23.59.6.6,0,0,0,.33-.48A.57.57,0,0,0,68.15,46.86Z"/><ellipse class="cls-69" cx="54.54" cy="41.25" rx="1.37" ry="0.65" transform="translate(-12.88 52.68) rotate(-46.73)"/><path class="cls-69" d="M53.87,42.34A1.82,1.82,0,0,0,55,41.7a1.64,1.64,0,0,0,.56-1.27,1.82,1.82,0,0,0-1.14.65A1.64,1.64,0,0,0,53.87,42.34Z"/><ellipse class="cls-69" cx="66.65" cy="53.82" rx="0.51" ry="0.29" transform="translate(-19 52.24) rotate(-37.86)"/><ellipse class="cls-69" cx="67.18" cy="52.82" rx="0.31" ry="0.18" transform="translate(-18.28 52.35) rotate(-37.86)"/><ellipse class="cls-69" cx="55.72" cy="52.43" rx="0.32" ry="0.57" transform="translate(-19.98 41.32) rotate(-34.91)"/><ellipse class="cls-69" cx="56.48" cy="53.17" rx="0.2" ry="0.35" transform="translate(-20.27 41.89) rotate(-34.91)"/><ellipse class="cls-69" cx="53.32" cy="49.5" rx="0.16" ry="0.28" transform="translate(-11.02 15.53) rotate(-15.04)"/><ellipse class="cls-69" cx="69.17" cy="44.47" rx="0.23" ry="0.41" transform="translate(-9.17 19.47) rotate(-15.04)"/><ellipse class="cls-69" cx="69.17" cy="45.41" rx="0.15" ry="0.27" transform="translate(-9.41 19.5) rotate(-15.04)"/><ellipse class="cls-69" cx="57.65" cy="56.11" rx="0.29" ry="0.51" transform="translate(-19.89 77.53) rotate(-59.67)"/><ellipse class="cls-69" cx="58.77" cy="56.23" rx="0.18" ry="0.31" transform="translate(-19.44 78.57) rotate(-59.67)"/><ellipse class="cls-69" cx="56.93" cy="55.18" rx="0.18" ry="0.31" transform="translate(-19.45 76.44) rotate(-59.66)"/><path class="cls-70" d="M56.25,40.58c-.08-.14.07-.36.32-.5s.51-.13.59,0-.07.36-.32.5S56.33,40.72,56.25,40.58Zm-.16.8c.15-.08.24-.22.19-.3s-.21-.09-.36,0-.24.22-.19.3S55.94,41.47,56.09,41.39Zm1.86-1c.15-.08.24-.22.19-.3s-.21-.09-.36,0-.24.22-.19.3S57.8,40.45,58,40.37Zm7.16.75c0-.16.27-.25.55-.21s.49.2.47.36-.27.25-.55.21S65.09,41.29,65.12,41.13Zm1.5.84c.17,0,.32,0,.33-.13s-.11-.19-.28-.22-.32,0-.33.13S66.44,41.94,66.61,42Z"/><path class="cls-71" d="M74.27,42c1.53-2.06,3-4.62,2-5.86s-4.18-.23-6.59.92l-.1,0c-1,.5-2.16,1.11-3.31,1.8.18.08.36.17.54.26,1-.61,2-1.16,3-1.61l.1,0c3.09-1.47,5.33-1.87,6-1.06s-.17,2.87-2.19,5.53h0c-1.17,0-2.44,0-3.79.11.13.16.25.32.36.48,1.07-.07,2.08-.1,3-.09a60.56,60.56,0,0,1-9.12,8.94l-1.07.84-.76.18A60.46,60.46,0,0,1,49.45,54c.64-.83,1.38-1.69,2.19-2.57q-.06-.16-.1-.32l-.07-.22c-1,1-1.82,2-2.56,3l-.08.11c-3.32-.1-5.42-.76-5.64-1.78s1.49-2.55,4.58-4.05c1-.49,2.13-1,3.35-1.42q0-.17.06-.34t0-.23c-1.33.49-2.56,1-3.66,1.54-2.42,1.17-5.22,2.92-4.86,4.61s3.21,2.05,5.77,2.16c-1.47,2-2.79,4.44-1.81,5.65s4.18.23,6.59-.92l.1,0a57.78,57.78,0,0,0,9.93-6.39,58.43,58.43,0,0,0,12-4c2.42-1.17,5.22-2.92,4.86-4.61S76.84,42.12,74.27,42ZM53,58.75c-3.09,1.47-5.33,1.87-6,1.06s.13-2.76,2-5.31h.06a59.67,59.67,0,0,0,13-1.48A55.29,55.29,0,0,1,53,58.75ZM75,48.34A56,56,0,0,1,64.2,52l.25-.19a60.08,60.08,0,0,0,9.44-9.32c3.35.1,5.48.76,5.71,1.78S78.11,46.84,75,48.34Z"/><path class="cls-72" d="M55.3,31.46a52.45,52.45,0,0,0-5.38.69l1.37,34.48a18,18,0,0,1,5.54-1.49Z"/><path class="cls-73" d="M78.33,65.13a45.88,45.88,0,0,0,5.61-.7L82.3,28.27a23.47,23.47,0,0,1-5.35,2Z"/><path class="cls-74" d="M37.84,80a35.48,35.48,0,0,1,9.7-11.21L46,33.09a27.5,27.5,0,0,0-9.84,5.22Z"/><path class="cls-75" d="M32.47,44.36S38,33.92,52.12,33.1c0,0-6,1.65-8,5.22s6,24.32,6,24.32l11.27,1.24S47,62.36,40.85,73.76a20,20,0,0,1,6.32-10.3s-3.43-21-7.83-21.43A8.51,8.51,0,0,0,32.47,44.36Z"/><path class="cls-76" d="M75.56,31.41S83.5,31,87.47,26.17L96,55.37s-4.54,6.38-10.63,6.8c0,0,6.8-2,6.94-7.51S88.74,33.4,85.91,31.84,84.35,32.41,75.56,31.41Z"/><path class="cls-77" d="M129.26,48.18s-1.77,11.44-9.67,15.63-12.89,3.06-12.89,3.06-3.38-4.35-7.41-1.29S94.79,70.09,96.56,74s6.12,5.64,10.47,1.61c0,0,13.21,3.38,19-1.13S130.77,68,130.77,68l.75,10.5s-11.44,3.87-14.66,10.15,8.05,23,8.05,23-7.41.16-9.5,3.7-1.13,3.87,4,4,14-1.45,16.27-3.54-6.53-13.93-5.24-18.6,7.34-5.72,12-6.52,7.73,9.18,10.47,14.18,6.47,11.2,6.47,11.2-7.81.39-9.58,5.7,17,2.59,19.86-2.08-5.24-7.41-7.25-40.92C161.7,66.38,159.71,63,159.71,63s14.5-6,17.88-13.53,1.77-11.76,1.77-11.76,5.48-5.48,4.83-10.79-2.09,1-2.09,1,.32-6.93-3.71-8.86-4,9.18-4,9.18-.48-3.06-2.26-2.74S171.47,33,174.2,36.1c0,0-1.93,11.92-19.33,12.73,0,0-4.67-5.15-10.47-5S129.26,48.18,129.26,48.18Z"/><path class="cls-78" d="M159.32,49.49a11.47,11.47,0,0,0-.12,2.92,62.37,62.37,0,0,0,8.79-6C165.84,48.09,162.18,49,159.32,49.49Z"/><path class="cls-79" d="M157.46,49.77c-1.35.18-2.25.23-2.25.23-.9,2.6.81,3.58.81,3.58a7.19,7.19,0,0,0,1.45-.4A13,13,0,0,1,157.46,49.77Z"/><path class="cls-80" d="M116.36,67s9.35-3.83,11.41-11.22c0,0-.75,11.32-10.66,14.59A5.41,5.41,0,0,0,116.36,67Z"/><path class="cls-81" d="M136,53.07a75.67,75.67,0,0,0,2.29,20.8c.61,2.65,4.69,1.53,4.08-1.12a71.34,71.34,0,0,1-2.14-19.68c.13-2.72-4.1-2.71-4.23,0Z"/><path class="cls-82" d="M164.7,98a8.72,8.72,0,0,1-3.61,1.32l-.07-.2h0a5.88,5.88,0,0,0-1.72-2.45l-.17-.13a6.47,6.47,0,0,0-1.48-.88,6,6,0,0,0-2.43-.5,5.24,5.24,0,0,0-.71.06,4.81,4.81,0,0,0-1.36.42,4.64,4.64,0,0,0-1.21.85,5,5,0,0,0-.52.59q-.24.32-.44.64a7.25,7.25,0,0,0-.74,1.53c1,2.05,1.84,4.1,2.7,5.65.68,1.24,1.42,2.56,2.15,3.84a7.48,7.48,0,0,0,3.29.94,3.45,3.45,0,0,0,2.34-1.16l0,0a3.8,3.8,0,0,0,.26-.36l.1-.15c.07-.12.14-.25.2-.38l.09-.2q.08-.2.15-.41l.07-.23c0-.14.08-.28.11-.43s0-.17,0-.25.06-.3.08-.46,0-.16,0-.24c0-.23,0-.47,0-.71a8.08,8.08,0,0,0,3.92-1.31C165.48,101.73,165.08,100,164.7,98Z"/><path class="cls-65" d="M164.5,96.9c-1.49,1.42-5,1.68-5,1.68s-1.29,2.81.61,4.63c1.36,1.3,4.07,0,5.51-.9C165.24,100.69,164.86,98.9,164.5,96.9Z"/><path class="cls-83" d="M157.92,108.78a8.07,8.07,0,0,1-5.91-3.12c-2.57-3.17-3.65-6-1.05-9.47s8.16-1.92,9.6,2S162.26,108.34,157.92,108.78Z"/><path class="cls-84" d="M160.56,98.22c-1.44-4-7-5.51-9.6-2q-.24.32-.44.64c2.82-2.07,7.31-.45,8.58,3,1,2.62,1.38,6.2.3,8.45C162.16,106.74,161.8,101.65,160.56,98.22Z"/><path class="cls-85" d="M153.71,106.6a5.27,5.27,0,0,1-1.66-1.35,7,7,0,0,1-1.78-3.89,5.27,5.27,0,0,1,.07-2.14c.06,0,0,1.07.24,2.09a10.92,10.92,0,0,0,1.71,3.75C152.91,105.9,153.75,106.55,153.71,106.6Zm2.61,1.12c-.27-.13-.53-.27-.53-.27s-.28-.1-.56-.22-.55-.26-.59-.21.18.28.43.48a2,2,0,0,0,1.15.52c.32.06.63.06.64,0S156.6,107.86,156.33,107.73Zm2.18-10.94a3.64,3.64,0,0,0-2-1.41,2.39,2.39,0,0,0-1.2-.17c0,.06.56.2,1.08.45A9.49,9.49,0,0,1,158.27,97c.41.4.72.9.78.88A2.39,2.39,0,0,0,158.51,96.78Zm2.26,5a4.33,4.33,0,0,0-.58-2c-.24-.46-.55-.88-.6-.85a4.7,4.7,0,0,0,.31,1c.16.48.27,1,.27,1s.16.47.28,1a4.69,4.69,0,0,0,.26,1A2.4,2.4,0,0,0,160.77,101.82Z"/><path class="cls-86" d="M142.4,72.75a71.34,71.34,0,0,1-2.14-19.68,1.84,1.84,0,0,0-1.71-2,1.85,1.85,0,0,1,.51,1.44,71.34,71.34,0,0,0,2.14,19.68,2.18,2.18,0,0,1-2.4,2.63A2.18,2.18,0,0,0,142.4,72.75Z"/><path class="cls-65" d="M162.44,78.79v-.12c-.28,0-.6,0-1,0a17.33,17.33,0,0,0-4.22.85,19.35,19.35,0,0,0-3.94,1.84,11.5,11.5,0,0,0-3.08,2.52,19.35,19.35,0,0,0-2.58,3.5,17.33,17.33,0,0,0-1.67,4c-.06.23-.11.45-.16.65l.41.42.39-.83a23.37,23.37,0,0,1,2.08-3.53,20.3,20.3,0,0,1,2.68-3c.81-.74,1.4-1.18,1.4-1.18s.54-.49,1.43-1.14a20.29,20.29,0,0,1,3.5-2,23.37,23.37,0,0,1,3.87-1.34l.88-.22Z"/><path class="cls-65" d="M140.93,89.15a29.93,29.93,0,0,1-2.75-2.33c-.36-.33-.63-.64-.83-.84l-.31-.32-.32-.31c-.2-.2-.51-.47-.84-.83a29.92,29.92,0,0,1-2.33-2.75c-.77-1.07-1.48-2.18-2-3.05l-.13-.22-.59.22.09.29a20.84,20.84,0,0,0,1.56,3.45,25.41,25.41,0,0,0,2.15,3.15c.32.42.62.73.82,1l.32.36.36.32c.23.2.55.5,1,.82a25.42,25.42,0,0,0,3.15,2.15c.43.24.87.46,1.3.67l.91-.16a3.07,3.07,0,0,1,.76,0C142.51,90.24,141.71,89.71,140.93,89.15Z"/><path class="cls-87" d="M130.59,70.82a24.51,24.51,0,0,1-.54-4c-.17-2-.24-4-.24-4s0-2,.12-4a24.51,24.51,0,0,1,.42-4c.09,0,0,2,.05,4s.08,4,.08,4,0,2,0,4S130.68,70.82,130.59,70.82Zm-.21-3.12L130,65.42l-.51-2.26a11.82,11.82,0,0,0-.59-2.25,9.58,9.58,0,0,0,.12,2.33c.13,1.16.32,2.31.32,2.31s.26,1.14.57,2.26a9.58,9.58,0,0,0,.76,2.21A11.83,11.83,0,0,0,130.38,67.7Zm21.11-9.49a8.51,8.51,0,0,1-.43-2,13.47,13.47,0,0,1,0-1.85,8.51,8.51,0,0,1,.42-2,15.78,15.78,0,0,1,1.39-2.69A6,6,0,0,0,151,52.2a8.41,8.41,0,0,0-.59,2.1,5.67,5.67,0,0,0,0,2,8.41,8.41,0,0,0,.6,2.09,6,6,0,0,0,1.84,2.51A15.79,15.79,0,0,1,151.49,58.21Zm6.15,4.42c-.53-.15-1-.35-1-.35s-.52-.13-1-.31-1-.42-1.08-.34.38.46.87.77a3.84,3.84,0,0,0,2.19.7c.58,0,1.15,0,1.15-.12S158.16,62.78,157.64,62.63ZM147.56,85.53a13.1,13.1,0,0,0-.83,1.48,13.09,13.09,0,0,0-.47,1.63,4.17,4.17,0,0,0-.14,1.69,8.39,8.39,0,0,0,.59-1.56c.28-.77.63-1.5.63-1.5s.28-.76.62-1.51a8.39,8.39,0,0,0,.69-1.52C148.59,84.18,148,84.81,147.56,85.53Zm-6.51,2.7c-.95-.62-1.83-1.33-1.83-1.33s-.93-.64-1.79-1.38A19.38,19.38,0,0,0,135.7,84a7.05,7.05,0,0,0,1.41,1.83,18.94,18.94,0,0,0,1.71,1.57,18.93,18.93,0,0,0,2,1.2,7.05,7.05,0,0,0,2.16.84A19.37,19.37,0,0,0,141.05,88.22Zm-11.85,11a27.25,27.25,0,0,1,1.44-2.63c.43-.62,1-1.18.91-1.25s-.72.37-1.27,1a5.29,5.29,0,0,0-1.52,2.78,3.21,3.21,0,0,0-.12,1.58A10.39,10.39,0,0,0,129.21,99.26Zm7.93-45.42c-1,0-2,0-2,0s-1,.07-1.94.06a16.13,16.13,0,0,0-2-.05,5.08,5.08,0,0,0,1.93.52,16.8,16.8,0,0,0,2,.14s1-.07,2-.22a7.15,7.15,0,0,0,1.94-.44A8.32,8.32,0,0,0,137.14,53.84Zm11-2.2a16.21,16.21,0,0,1-1.57.63,16.19,16.19,0,0,1-1.58.59,10.53,10.53,0,0,0-1.65.51,4.21,4.21,0,0,0,1.76-.05,7.19,7.19,0,0,0,3.27-1.27,4.2,4.2,0,0,0,1.33-1.15A10.53,10.53,0,0,0,148.12,51.65ZM135.94,83.46c-.93-.79-1.75-1.67-1.75-1.67A13.59,13.59,0,0,1,132.63,80a20,20,0,0,1-1.2-2.1,6.13,6.13,0,0,0,.93,2.27,12.46,12.46,0,0,0,1.51,2,20.77,20.77,0,0,0,1.87,1.6,13.87,13.87,0,0,0,2,1.37A23,23,0,0,0,135.94,83.46Z"/><path class="cls-65" d="M177.87,48.64a9,9,0,0,1-2.59-.23,30.27,30.27,0,0,1-2.2-.73,9,9,0,0,1-2.21-1.37,10.56,10.56,0,0,1-1.8-2l-.1-.15-.53.41,0,.05A8.25,8.25,0,0,0,170,47.19a9.33,9.33,0,0,0,2.35,1.94A5.57,5.57,0,0,0,175,50a9.23,9.23,0,0,0,2.32,0c.09-.17.18-.35.26-.53s.24-.56.35-.84Z"/><path class="cls-65" d="M161.21,57.26a7.9,7.9,0,0,1-.77-1.15l-.2-.32a8.26,8.26,0,0,1-.48-.89,11.16,11.16,0,0,1-.89-3,19.15,19.15,0,0,1-.18-3.44l-.69.11a13.12,13.12,0,0,0-.37,3.44,11.42,11.42,0,0,0,.63,3.53,9.28,9.28,0,0,0,.47,1.12l.21.41.27.38a8.12,8.12,0,0,0,.79.93,9.67,9.67,0,0,0,1.29,1.12,10.57,10.57,0,0,0,1.68,1,9.11,9.11,0,0,0,1.24.43l1.23-.66a10,10,0,0,1-1.89-.88A9,9,0,0,1,161.21,57.26Z"/><path class="cls-65" d="M121.53,64.51a14.83,14.83,0,0,1,1.16,3.17c.1.45.18.82.21,1.08l.06.41.08.41c.06.26.1.64.16,1.09a12.32,12.32,0,0,1-.1,3.34,10.51,10.51,0,0,1-.59,2.1,12.67,12.67,0,0,0,1.28-.43,9.84,9.84,0,0,0,.53-1.39,12.47,12.47,0,0,0,.51-3.72c0-.51,0-.94-.07-1.24l-.05-.47-.11-.46c-.06-.29-.19-.7-.34-1.19a14.46,14.46,0,0,0-1.64-3.34,13.35,13.35,0,0,0-1-1.36c-.27.21-.55.41-.83.6A15.53,15.53,0,0,1,121.53,64.51Z"/><path class="cls-65" d="M114.88,72.35a12.64,12.64,0,0,1-.1,1.27,14,14,0,0,1-.64,2.75c0,.1-.07.2-.11.3l1.31.08a13.23,13.23,0,0,0,1-2.84,12.32,12.32,0,0,0,.26-1.42,12.32,12.32,0,0,0,0-1.45A13.2,13.2,0,0,0,116,68a10.8,10.8,0,0,0-1-2.16l-.81.27a14.42,14.42,0,0,1,.75,5A12.66,12.66,0,0,1,114.88,72.35Z"/><path class="cls-88" d="M132,94c-.25-.3-.53-.61-.82-.91h0a8.5,8.5,0,0,0-2.77-2v0a6.32,6.32,0,0,0,.21-.62l0-.15q.07-.26.11-.52l0-.16a6.35,6.35,0,0,0,.06-.64s0-.09,0-.14,0-.35,0-.53,0-.12,0-.17a5.93,5.93,0,0,0-.09-.63l0-.1c0-.18-.09-.35-.15-.52l-.06-.17a5.23,5.23,0,0,0-.25-.58h0a4.7,4.7,0,0,0-2.75-2.35,6.62,6.62,0,0,0-4-.24,15.24,15.24,0,0,0-4.67,5c-.92,1.8-.65,4.46.2,7.33a3.42,3.42,0,0,0,.71.38,5.48,5.48,0,0,0,2.87.14,12.21,12.21,0,0,0,3.16-1.09c.4-.2.8-.42,1.18-.65a9.78,9.78,0,0,1,5.37,4,4.45,4.45,0,0,1,.11-1.49,6.1,6.1,0,0,1,1.79-2.9l-.2-.26Z"/><path class="cls-65" d="M126.78,89.84A3.61,3.61,0,0,0,123,93.4a9.49,9.49,0,0,1,7.38,4.45,3.62,3.62,0,0,1,.1-.62A6.22,6.22,0,0,1,132.68,94C131.34,92.17,129.14,89.79,126.78,89.84Z"/><path class="cls-66" d="M131.13,92.15a4.23,4.23,0,0,1-.47,2.48c-.91,1.47-3.08-1.33-3.08-1.33a4.32,4.32,0,0,0,1.52-2.78,4.49,4.49,0,0,0-2.33-.68A3.61,3.61,0,0,0,123,93.4a9.49,9.49,0,0,1,7.38,4.45,3.62,3.62,0,0,1,.1-.62A6.22,6.22,0,0,1,132.68,94,17.52,17.52,0,0,0,131.13,92.15Z"/><path class="cls-89" d="M115.71,93.43a8.07,8.07,0,0,1,1.1-6.59c2.2-3.43,4.53-5.36,8.65-4s4.4,7.14,1.1,9.75S117.5,97.41,115.71,93.43Z"/><path class="cls-90" d="M128.21,85.2A6.13,6.13,0,0,1,126,90.15c-3.12,2.47-8.45,4.56-10.53,1.4a6.69,6.69,0,0,0,.27,1.88c1.79,4,7.56,1.79,10.85-.82A6.14,6.14,0,0,0,128.21,85.2Z"/><g class="cls-91"><path class="cls-92" d="M120.24,84.2c0,.05-.79.6-1.42,1.34a10.61,10.61,0,0,0-1.89,3.33c-.3.92-.35,1.91-.41,1.91a4.82,4.82,0,0,1,.11-2,6.49,6.49,0,0,1,2-3.47A4.82,4.82,0,0,1,120.24,84.2Z"/><path class="cls-93" d="M123.81,82.75c0,.06-.29.12-.57.21s-.54.19-.54.19-.28.06-.55.15-.55.2-.58.15.18-.27.45-.44a1.79,1.79,0,0,1,1.17-.37C123.51,82.64,123.81,82.69,123.81,82.75Z"/><path class="cls-94" d="M125.34,91.83a6.32,6.32,0,0,1-1.66,1.31,11.66,11.66,0,0,1-1.92.92,11,11,0,0,1-2.09.44,4.26,4.26,0,0,1-1.48-.08,1.24,1.24,0,0,1-.61-.28s.26.07.64.11a4.76,4.76,0,0,0,1.4-.06,12.25,12.25,0,0,0,2-.55,13,13,0,0,0,1.91-.78C124.46,92.41,125.3,91.78,125.34,91.83Z"/><path class="cls-95" d="M128.22,87.92c.06,0,.12.42,0,.85a2.27,2.27,0,0,1-.8,1.5c-.32.3-.7.49-.73.44s.27-.32.5-.64a11.14,11.14,0,0,0,.73-1.37C128.11,88.33,128.16,87.92,128.22,87.92Z"/></g><path class="cls-96" d="M170.18,118.64c1.19-4.21-5.88-8.94-7.73-39.85C161.7,66.38,159.71,63,159.71,63s14.5-6,17.88-13.53a27.51,27.51,0,0,0,1.46-4l-9-2.2-.58.53c.75,1.6,2.23,5.35.86,7.47-1.77,2.74-12.12,9.91-15.57,4.87-1.76-2.57-.89-5.26.38-7.28l-.27,0a17.68,17.68,0,0,0-7.27-4.57c-7.11,3-18.61,8.17-14.16,9.17,6.28,1.42,16.72-3.54,16.72-3.54a10.08,10.08,0,0,0,.27,9.38c1.77,3.54,4.87,10.53,3.27,15S145.21,87,137.25,82.09s-6.37-30-6.37-30l-2.06-1.93c-.21.81-.51,1.82-.92,2.94,1.9,2,.66,11.93-2.6,16.86s-12.12,3.1-12.12,3.1a5.86,5.86,0,0,0-.73,3.45c4.33.5,10.21.55,13.58-2.08,3.77-2.93,4.64-4.79,4.78-5.73l.7,9.76a43.92,43.92,0,0,0-4.85,2.06c5.28.45,3.34,11.45.85,15.1-2.65,3.89-.44,7-3,8.76-1.29.89-3.08-.12-4.56-1.34a85.78,85.78,0,0,0,5,8.6s-7.41.16-9.5,3.7-1.13,3.87,4,4,14-1.45,16.27-3.54-6.53-13.93-5.24-18.6,7.34-5.72,12-6.52c1.65-.28,3.09.77,4.39,2.48,1.09-2.41,2.77-4.62,5.34-5.52,6.81-2.39,10.7,16,10,19.46-.52,2.53-4.41,2.78-6.45,2.73,2,3.38,3.66,6.23,3.66,6.23a16,16,0,0,0-5.52,1.44l3.54,1.9Z"/><path class="cls-97" d="M119.54,119.38c5.26.17,14.3-1.51,16.6-3.7,1.54-1.46-1.7-6.39-3.62-11-3.62,3.13-8.29,2.89-10.7,2.3a28.86,28.86,0,0,0,2.76,4.1s-7,.35-9.16,4S114.28,119.21,119.54,119.38Z"/><path class="cls-98" d="M136.14,115.68c1.54-1.46-1.7-6.39-3.62-11a12,12,0,0,1-9.69,2.5,2.88,2.88,0,0,0-.64.43c.29.48.56.91.82,1.3,2.75,1,9-.35,7.69.63-.94.71-4.52.59-7,.4.53.73.87,1.14.87,1.14s-.72,0-1.78.21c1.37.35,3.46,1,3.42,1.49-.06.76-3.06,3.64-7.46,2.94-1.94-.31-2.3-1.17-2.09-2a5.4,5.4,0,0,0-1.25,1.44c-2.14,3.7-1.15,4,4.11,4.21S133.84,117.87,136.14,115.68Z"/><path class="cls-65" d="M119.54,119.38c-4.59-.15-5.92-.42-4.77-2.95.73.93,2.79,1.8,8.25,1.38a23.4,23.4,0,0,0,13.17-5c.44,1.31.53,2.33,0,2.87C133.84,117.87,124.8,119.55,119.54,119.38Zm13-14.66c-3.62,3.13-8.29,2.89-10.7,2.3.37.66.73,1.24,1.07,1.75,2,.26,6.83.51,10.37-2.41C133,105.83,132.75,105.27,132.52,104.73Z"/><path class="cls-99" d="M127.17,112.91c-.06,0-.28-.28-.56-.53a15.23,15.23,0,0,0-1.19-.85c-.32-.18-.69-.29-.68-.35s.41-.06.8.07a2.15,2.15,0,0,1,1.31.93C127.09,112.51,127.23,112.89,127.17,112.91Zm0-2.17a2.72,2.72,0,0,0-1.9-.14,1.67,1.67,0,0,0-.87.4,6.43,6.43,0,0,0,.91-.09A11.2,11.2,0,0,1,127,111a6.43,6.43,0,0,0,.89.23S127.59,110.92,127.14,110.74Z"/><g class="cls-100"><path class="cls-65" d="M125.22,118.76s0-.61-.11-1.19l-.3,0c0,.57,0,1.16,0,1.16l0,.32.41,0C125.22,118.87,125.22,118.76,125.22,118.76Z"/><path class="cls-65" d="M127.3,107.86s.26.41.49.86l.32-.05v0a9,9,0,0,0-.41-1s-.13-.21-.32-.48l-.4.06Z"/><path class="cls-65" d="M125.18,108.08s.18.42.39.85h.34v0l-.31-1-.22-.54H125C125.08,107.77,125.18,108.08,125.18,108.08Z"/><path class="cls-65" d="M130.15,106.8s.22.49.39,1l.05.15.27-.12,0-.12a8.87,8.87,0,0,0-.28-1.07s-.09-.2-.22-.47l-.35.16C130.08,106.61,130.15,106.8,130.15,106.8Z"/><path class="cls-65" d="M119.86,119.39v0s-.05-.6-.07-1.2c0-.09,0-.17,0-.26h-.28c0,.08,0,.17,0,.25-.06.58-.06,1.16-.05,1.22h.44Z"/><path class="cls-65" d="M132.09,105.07l-.25.2a9.33,9.33,0,0,1,.47.9,5.12,5.12,0,0,1,.32.69l.31-.23a4.44,4.44,0,0,0-.23-.65A6.86,6.86,0,0,0,132.09,105.07Z"/><path class="cls-65" d="M122.92,108.08a7.65,7.65,0,0,0,.46.76l.43,0a9.4,9.4,0,0,1-.48-1s-.14-.28-.3-.64l-.4-.06A7.59,7.59,0,0,0,122.92,108.08Z"/><path class="cls-65" d="M122.3,118.61s0-.35-.08-.74l-.35,0c0,.4,0,.74,0,.74s0,.33.07.72l.35,0C122.29,118.94,122.3,118.61,122.3,118.61Z"/><path class="cls-65" d="M115.55,117.47c0-.12,0-.24.06-.35l-.22-.13c-.05.13-.1.27-.14.42a6.7,6.7,0,0,0-.22,1.13s0,.11,0,.28a2.68,2.68,0,0,0,.41.16c0-.24,0-.42,0-.42A8.69,8.69,0,0,1,115.55,117.47Z"/><path class="cls-65" d="M117.41,119l0-1v-.37l-.24,0c0,.12,0,.26-.06.39-.07.5-.09,1-.09,1s0,.08,0,.22l.42,0Z"/><path class="cls-65" d="M128.13,118.22s-.15-.7-.29-1.23l-.25.07c0,.54.1,1.23.1,1.23l.08.36.39-.08C128.14,118.36,128.13,118.22,128.13,118.22Z"/><path class="cls-65" d="M136.53,114.72v0a7.05,7.05,0,0,0-.55-1.15c-.07-.13-.15-.24-.23-.36l-.21.15.16.35a8.72,8.72,0,0,1,.41,1.14s.11.29.21.67A1.54,1.54,0,0,0,136.53,114.72Z"/><path class="cls-65" d="M134.25,116.51a9.92,9.92,0,0,0-.6-1.39l-.23-.41-.23.13.17.42a12.35,12.35,0,0,1,.46,1.39s0,.13.1.33l.39-.17C134.28,116.62,134.25,116.51,134.25,116.51Z"/><path class="cls-65" d="M131.59,117a7.1,7.1,0,0,0-.4-1.14l-.3.13a8.46,8.46,0,0,1,.27,1.11s.09.34.15.78l.36-.11A7.26,7.26,0,0,0,131.59,117Z"/></g><path class="cls-66" d="M119.54,119.38c5.26.17,14.3-1.51,16.6-3.7.57-.54.48-1.57,0-2.87a23.4,23.4,0,0,1-13.17,5c-5.45.42-7.52-.45-8.25-1.38-.06.13-.11.25-.15.37,1,.86,2.66,1.52,8.16,1.36,6.9-.19,10.41-2.43,8.82-1.19s-6.07,2.09-11.82,1.9c-3.25-.11-4.72-.61-5.39-1C114.41,119.08,116,119.27,119.54,119.38Z"/><path class="cls-66" d="M122.13,107.55c2.91.86,8.33-1,7.16.24-1,1.06-5.33.76-6.63.64l.22.35c2,.26,6.83.51,10.37-2.41-.26-.55-.51-1.1-.74-1.65-3.62,3.13-8.29,2.89-10.7,2.3Z"/><g class="cls-91"><path class="cls-101" d="M121.58,112.49a9.55,9.55,0,0,1-1.34.62,14.28,14.28,0,0,0-1.29.66,9.21,9.21,0,0,0-1.23.74c-.59.42-1.07,1-1.12.94a3.33,3.33,0,0,1,.92-1.18,7.84,7.84,0,0,1,1.22-.89,10.94,10.94,0,0,1,1.39-.57A4.85,4.85,0,0,1,121.58,112.49Z"/><path class="cls-102" d="M123.72,111.81c0,.12-.6.41-.6.41s-.69.1-.72,0,.6-.4.6-.4S123.69,111.69,123.72,111.81Z"/></g><path class="cls-103" d="M153.29,125c5.41.33,14.76-1.43,17.19-4,1.63-1.69-1.56-7.61-3.41-13.05A11.32,11.32,0,0,1,156,110.41a34.72,34.72,0,0,0,2.72,4.92s-7.23.23-9.54,4.55S147.88,124.63,153.29,125Z"/><path class="cls-104" d="M170.48,121c1.63-1.69-1.56-7.61-3.41-13.05a11.18,11.18,0,0,1-10,2.71,3,3,0,0,0-.67.49c.28.57.55,1.1.8,1.56,2.8,1.26,9.24-.18,7.89.94-1,.82-4.67.58-7.2.3.52.88.86,1.37.86,1.37a16.12,16.12,0,0,0-1.83.2c1.4.45,3.53,1.24,3.48,1.85-.08.9-3.25,4.23-7.77,3.29-2-.42-2.33-1.44-2.09-2.45a6.23,6.23,0,0,0-1.33,1.68c-2.31,4.33-1.3,4.75,4.11,5.08S168,123.54,170.48,121Z"/><path class="cls-65" d="M153.29,125c-4.72-.29-6.08-.65-4.82-3.61.72,1.12,2.82,2.2,8.45,1.84a22.47,22.47,0,0,0,13.7-5.59c.41,1.56.47,2.77-.13,3.4C168,123.54,158.69,125.3,153.29,125Zm13.79-17A11.32,11.32,0,0,1,156,110.41c.36.78.72,1.49,1,2.1,2,.36,7,.78,10.74-2.58C167.54,109.27,167.3,108.61,167.07,108Z"/><path class="cls-105" d="M161.33,117.5c-.06,0-.28-.34-.56-.64a4.39,4.39,0,0,0-.59-.53,4.34,4.34,0,0,0-.61-.5c-.33-.22-.7-.36-.69-.44s.42-.06.82.1a3.3,3.3,0,0,1,.75.42,3.79,3.79,0,0,1,.56.71A1.65,1.65,0,0,1,161.33,117.5Zm0-2.57a3.76,3.76,0,0,0-1-.31,3.68,3.68,0,0,0-1,.09c-.49.12-.93.38-.9.45s.48-.07.94-.08a10.06,10.06,0,0,1,1.8.2c.45.12.87.35.91.29S161.82,115.16,161.36,114.93Z"/><g class="cls-100"><path class="cls-65" d="M159.16,124.37s0-.72-.08-1.41l-.31,0c0,.67-.06,1.37-.06,1.37s0,.15,0,.38l.42,0C159.15,124.5,159.16,124.37,159.16,124.37Z"/><path class="cls-65" d="M161.61,111.53s.25.5.48,1l.33-.05v0a11.57,11.57,0,0,0-.4-1.18s-.13-.26-.31-.58l-.41.07Z"/><path class="cls-65" d="M159.42,111.73s.17.5.38,1h.35v0l-.29-1.15-.22-.64h-.4C159.33,111.36,159.42,111.73,159.42,111.73Z"/><path class="cls-65" d="M164.57,110.35s.21.58.37,1.18l0,.18.28-.13,0-.14a11.75,11.75,0,0,0-.26-1.27s-.08-.24-.22-.56l-.37.18C164.51,110.12,164.57,110.35,164.57,110.35Z"/><path class="cls-65" d="M153.62,125v0s0-.71,0-1.42c0-.1,0-.2,0-.3h-.29c0,.1,0,.2,0,.3-.08.68-.09,1.37-.09,1.44h.45Z"/><path class="cls-65" d="M166.62,108.35l-.26.23c.26.53.45,1.08.45,1.08a6.48,6.48,0,0,1,.31.82l.32-.26a5.8,5.8,0,0,0-.22-.78A8.31,8.31,0,0,0,166.62,108.35Z"/><path class="cls-65" d="M157.1,111.68a9.43,9.43,0,0,0,.45.91l.44.06a11.9,11.9,0,0,1-.47-1.17s-.14-.33-.29-.77l-.41-.08A9.93,9.93,0,0,0,157.1,111.68Z"/><path class="cls-65" d="M156.15,124.12s0-.41-.06-.88h-.36c0,.47,0,.88,0,.88s0,.39.06.85l.36,0C156.13,124.51,156.15,124.12,156.15,124.12Z"/><path class="cls-65" d="M149.24,122.59c0-.14,0-.28.07-.42l-.22-.16c-.06.15-.11.32-.16.49a9,9,0,0,0-.26,1.34s0,.13,0,.33a2.56,2.56,0,0,0,.41.2c0-.29,0-.49,0-.49A11.81,11.81,0,0,1,149.24,122.59Z"/><path class="cls-65" d="M151.11,124.49v-1.17c0-.15,0-.29,0-.43l-.25-.06c0,.15-.05.31-.07.47-.08.59-.13,1.18-.13,1.18s0,.1,0,.25l.43.05Z"/><path class="cls-65" d="M162.16,123.81s-.13-.83-.26-1.46l-.26.07c0,.64.07,1.45.07,1.45l.07.42.41-.08C162.17,124,162.16,123.81,162.16,123.81Z"/><path class="cls-65" d="M170.91,119.89v-.06a9,9,0,0,0-.53-1.38c-.07-.15-.15-.29-.23-.43l-.22.18c.05.13.11.27.16.42a11.4,11.4,0,0,1,.38,1.36s.1.34.2.8A2,2,0,0,0,170.91,119.89Z"/><path class="cls-65" d="M168.51,121.94a12.77,12.77,0,0,0-.57-1.66l-.22-.49-.24.14.16.5a16.22,16.22,0,0,1,.43,1.65s0,.15.09.39l.41-.19C168.54,122.07,168.51,121.94,168.51,121.94Z"/><path class="cls-65" d="M165.76,122.42a9.3,9.3,0,0,0-.38-1.36l-.32.14a11.29,11.29,0,0,1,.25,1.31s.08.41.13.93l.37-.12C165.81,122.82,165.76,122.42,165.76,122.42Z"/></g><path class="cls-66" d="M153.29,125c5.41.33,14.76-1.43,17.19-4,.61-.63.54-1.84.13-3.4a22.47,22.47,0,0,1-13.7,5.59c-5.62.36-7.72-.72-8.45-1.84-.06.15-.12.29-.17.43,1,1,2.7,1.86,8.36,1.82,7.1-.05,10.78-2.6,9.11-1.19s-6.31,2.32-12.22,1.94c-3.34-.21-4.84-.84-5.52-1.34C148,124.47,149.66,124.74,153.29,125Z"/><path class="cls-66" d="M156.3,111c3,1.09,8.61-.94,7.37.46-1.08,1.23-5.51.76-6.84.59l.22.43c2,.36,7,.78,10.74-2.58-.25-.66-.49-1.32-.71-2A11.32,11.32,0,0,1,156,110.41Z"/><g class="cls-91"><path class="cls-106" d="M155.59,116.86a9.31,9.31,0,0,1-1.4.69,14.11,14.11,0,0,0-1.35.75,9.3,9.3,0,0,0-1.29.85c-.62.48-1.13,1.12-1.18,1.08a4,4,0,0,1,1-1.37,8.19,8.19,0,0,1,1.28-1,10.51,10.51,0,0,1,1.44-.64A4.43,4.43,0,0,1,155.59,116.86Z"/><path class="cls-107" d="M157.81,116.11c0,.14-.63.46-.63.46s-.71.1-.75,0,.63-.46.63-.46S157.78,116,157.81,116.11Z"/></g><path class="cls-108" d="M115.69,72.11A11.47,11.47,0,0,0,114.48,66c-4.87,1.54-7.77.89-7.77.89s-3.38-4.35-7.41-1.29S94.79,70.09,96.56,74s6.12,5.64,10.47,1.61a46.07,46.07,0,0,0,7.67,1.15A25.06,25.06,0,0,0,115.69,72.11Z"/><path class="cls-109" d="M184.19,26.92c-.64-5.32-2.09,1-2.09,1s.32-6.93-3.71-8.86-4,9.18-4,9.18-.48-3.06-2.26-2.74S171.47,33,174.2,36.1a14.51,14.51,0,0,1-5.49,8.29,9.44,9.44,0,0,0,4.54,4.31,7.47,7.47,0,0,0,4.41.59c3.27-7.45,1.69-11.57,1.69-11.57S184.84,32.23,184.19,26.92Z"/><path class="cls-110" d="M128.27,49.66s-2.63,4.13,7.41,3.52,16.14-5.34,17.82-7.65-2.15-4.37-2.15-4.37Z"/><path class="cls-111" d="M128.27,49.66a2,2,0,0,0-.14.29c.68.91,2.58,1.7,7.38,1.41,10-.61,16.14-5.34,17.82-7.65a2.35,2.35,0,0,0,.27-.48,6.56,6.56,0,0,0-2.25-2.06Z"/><g class="cls-112"><path class="cls-113" d="M139.41,77.86c-6.92,0-9-3-9.13-3.17l.59-.39-.29.2.29-.2s2.71,3.8,12,2.63c9.61-1.22,17-6.24,19.21-9.41l.58.4c-2.27,3.29-9.88,8.47-19.71,9.71A28.37,28.37,0,0,1,139.41,77.86Z"/></g><path class="cls-114" d="M166.3,104.91a13.88,13.88,0,0,1-11.25,3.74l.41.72c.36,0,.75.05,1.19.05a15,15,0,0,0,9.85-3.77Z"/><path class="cls-115" d="M147.93,94.77l.39.67c2-3,7.22-9.13,14.77-8.55l-.07-.71C155.41,85.66,150.17,91.6,147.93,94.77Z"/><path class="cls-116" d="M130.35,98c-6.83,3.26-10.5,2.28-12,1.44q.21.5.42,1A8.83,8.83,0,0,0,122,101a20.16,20.16,0,0,0,8.39-2.22A5.61,5.61,0,0,1,130.35,98Z"/><path class="cls-117" d="M126.24,80.74l-.87.45c2.43.89,6.39,3.55,9.51,11.47l.65-.27C132.55,84.81,128.84,81.87,126.24,80.74Z"/><g class="cls-112"><path class="cls-118" d="M118.81,64.2c.83.89,2,2.71,2.29,6.16a22.47,22.47,0,0,1-.18,6.11l.75-.14a23.53,23.53,0,0,0,.13-6,11.13,11.13,0,0,0-2.34-6.42Z"/><path class="cls-119" d="M160.36,48.12l-.72.15c-.06,2.11.15,6.48,2.64,8.79a11.66,11.66,0,0,0,4.25,2.52l.84-.49a11,11,0,0,1-4.61-2.54C160.43,54.39,160.29,50,160.36,48.12Z"/></g><path class="cls-120" d="M98.81,76.78c2.16,1.58,5.19,1.6,8.23-1.21a46.07,46.07,0,0,0,7.67,1.15,25.06,25.06,0,0,0,1-4.61A11.47,11.47,0,0,0,114.48,66c-.4.13-.79.24-1.17.34,1.15,2.64,1.54,7.52-1.55,6.75-1.91-.48-2.85-3.56-3.3-6.06a9.06,9.06,0,0,1-1.75-.13l0,0a4.16,4.16,0,0,1-.11,2c-.74,2.39-2.63,1.15-2.63,1.15s.41,2.71-1.73,3-2.63-4-2.63-4c-2.14,5.26,3.54,6.33,3,7.73C102.24,77.45,100.41,77.18,98.81,76.78Z"/><path class="cls-121" d="M100.56,75.28a3.15,3.15,0,0,1-.91.36,2,2,0,0,1-.89,0,3.15,3.15,0,0,1-.93-.29,2.06,2.06,0,0,1-1-.92,7.47,7.47,0,0,0,1.15.63,3.6,3.6,0,0,0,2.46-.1,7.46,7.46,0,0,0,1.09-.72A2.06,2.06,0,0,1,100.56,75.28Zm2.93-.83a1.34,1.34,0,0,0-.37-.27,2.39,2.39,0,0,0,.95-.69,2.52,2.52,0,0,0,.5-1,2.67,2.67,0,0,0,0-.94,1.54,1.54,0,0,0-.06-.28c0-.05-.08-.18,0-.13a.73.73,0,0,0,.54,0,.76.76,0,0,0,.31-.2c.11-.13.11-.19.11-.19s0,0-.15.15a.78.78,0,0,1-.3.16.74.74,0,0,1-.67-.12c-.09,0,.08.4.06.6a2.68,2.68,0,0,1-.1.86,2.17,2.17,0,0,1-1.41,1.5,2,2,0,0,1-1,.06,2.09,2.09,0,0,1-.79-.38,3,3,0,0,1-.61-.61,2.67,2.67,0,0,1-.2-.26,4.2,4.2,0,0,1-.42-.75,4.48,4.48,0,0,1-.3-2.58A4.61,4.61,0,0,1,100.81,67a11.51,11.51,0,0,1,1-.79.92.92,0,0,0-.32.13,3.92,3.92,0,0,0-.75.53,4.64,4.64,0,0,0-1.42,2.39,4.77,4.77,0,0,0,.23,2.8l.07.14a3.17,3.17,0,0,1-1.06.08,3,3,0,0,1-.92-.24,4.68,4.68,0,0,1-.73-.43,3,3,0,0,1-.65-.69,5.68,5.68,0,0,1-.55-1.31A2.14,2.14,0,0,0,96,71.12a3.09,3.09,0,0,0,.65.84,2.06,2.06,0,0,0,.84.5,3.09,3.09,0,0,0,1.05.17,2.68,2.68,0,0,0,1.13-.26,5,5,0,0,0,.31.56,3,3,0,0,0,.21.29,3.3,3.3,0,0,0,.71.67,2.49,2.49,0,0,0,.93.41s0,0,0,.05,0,0,.1,0a2.29,2.29,0,0,0,.9,0,1.2,1.2,0,0,1,.49.37.75.75,0,0,1,.21.48,1.06,1.06,0,0,1-.18.44A2.64,2.64,0,0,1,103,76a2.7,2.7,0,0,1-.36.38,2.87,2.87,0,0,1-1,.57,4.46,4.46,0,0,1-1.73.1,2.42,2.42,0,0,0,1.82.2,3.08,3.08,0,0,0,1.18-.56,3,3,0,0,0,.44-.41,2.89,2.89,0,0,0,.33-.5,1.36,1.36,0,0,0,.19-.64A1.06,1.06,0,0,0,103.5,74.45Zm1.18,1.46a.82.82,0,0,0-.54-.17c-.16,0-.24.08-.23.1s.37,0,.57.3a.7.7,0,0,1,.1.66.92.92,0,0,1-.24.34c-.24.23-.58.4-.55.46s.39,0,.74-.21a1.17,1.17,0,0,0,.42-.4.88.88,0,0,0,.11-.27.79.79,0,0,0,0-.3A.92.92,0,0,0,104.68,75.91Zm2.44-2.31s-.34.09-.65.12a6.29,6.29,0,0,1-1.22-.07c-.3-.07-.59-.24-.63-.2s.19.32.52.49a1.52,1.52,0,0,0,1.41.09C106.89,73.89,107.15,73.64,107.12,73.59Zm.34-4.53s.13.47.23.95a4.25,4.25,0,0,0,.22,1,2.35,2.35,0,0,0,.1-1,8,8,0,0,0-.11-1,8,8,0,0,0-.34-1,2.35,2.35,0,0,0-.52-.87,4.25,4.25,0,0,0,.23,1C107.37,68.58,107.45,69.06,107.45,69.06Zm.91-.54a7.74,7.74,0,0,0-.57-.85c-.31-.41-.68-.76-.73-.72a4.37,4.37,0,0,0,.46.89c.24.43.43.88.43.88s.24.42.45.87a4.37,4.37,0,0,0,.44.9,2.34,2.34,0,0,0-.14-1A7.73,7.73,0,0,0,108.36,68.53Zm-.15,5.28a18.57,18.57,0,0,1-.77,1.21c-.22.28-.51.53-.48.58s.39-.1.7-.36a2.11,2.11,0,0,0,.84-1.32c.1-.39.09-.78,0-.79S108.37,73.48,108.21,73.8Zm69.36-43.53a2.34,2.34,0,0,0-.33-.45,3.8,3.8,0,0,0-.95-.7l-1-.52c-.27-.14-.44-.26-.46-.23s.12.18.37.38.6.42.93.65a3.74,3.74,0,0,1,.81.7,2,2,0,0,1,.25.39,2,2,0,0,1,.19.43,3.28,3.28,0,0,1,.15,1.05c0,.8-.19,1.61-.13,1.62a4.18,4.18,0,0,0,.44-1.61,3.41,3.41,0,0,0-.07-1.18A2.32,2.32,0,0,0,177.57,30.28Zm.08-8.32a6.05,6.05,0,0,0-1-1.87c-.05,0,.4,1,.66,2a12.17,12.17,0,0,1,.35,2,12.16,12.16,0,0,1,.08,2c0,1-.3,2-.24,2.06a6.05,6.05,0,0,0,.55-2,11,11,0,0,0,0-2.12A11,11,0,0,0,177.65,22Zm2.14,3.66c0,.41,0,1,0,1.5a6.94,6.94,0,0,1-.25,1.46,5.14,5.14,0,0,0-.21.65,1.53,1.53,0,0,0,.37-.59,5.83,5.83,0,0,0,.4-1.49c.08-.55.11-1.11.14-1.52l0-.69a14.77,14.77,0,0,0-.13-2.22,5,5,0,0,0-.69-2.11,16.13,16.13,0,0,1,.37,2.14,17.31,17.31,0,0,1,0,2.17Zm2.79,1.14a3.21,3.21,0,0,0-.18.84c-.08.42-.19.82-.19.82s-.06.41-.17.82a3.22,3.22,0,0,0-.19.84c.05,0,.3-.33.49-.74a6.08,6.08,0,0,0,.31-.83,6.09,6.09,0,0,0,.07-.88A1.79,1.79,0,0,0,182.59,26.76Zm-6.76,9.76a5.35,5.35,0,0,1-.58-.17c-.29-.1-.57-.25-.61-.2s.19.29.46.48a1.87,1.87,0,0,0,1.25.41c.33,0,.66-.05.65-.11s-.32-.11-.61-.19A5.36,5.36,0,0,1,175.82,36.52Zm4.65-.5a9,9,0,0,1-1.22,1c-.34.2-.74.31-.73.37s.44.06.85-.08a2.21,2.21,0,0,0,1.35-1.06c.24-.37.34-.79.28-.81S180.74,35.73,180.47,36Z"/><path class="cls-122" d="M179.36,37.71a22,22,0,0,0,3.07-4.1c-1.42.07-2.38-.33-1.52-1.4s1.66-4.26,2.18-7.14a11.89,11.89,0,0,0-1,2.81,16.23,16.23,0,0,0-.29-3.42c-.46,2.19-2.15,3.85-4.33,3.25-1.4-.39-2.17-2.78-2.57-5a31.32,31.32,0,0,0-.54,5.49,4.57,4.57,0,0,0-1.21-2.48,10.51,10.51,0,0,0,2.17,3.8c1.75,1.61,2.29,4.24.07,4.91-1.13.34-2.53-1.51-3.65-3.41a12.78,12.78,0,0,0,2.46,5.07s0,.26-.17.7a6.92,6.92,0,0,0,1.63.46c3.09.47,2.89,5.38.94,8.14s-7.06.34-7.06.34h0a10.87,10.87,0,0,0,3.71,3,7.47,7.47,0,0,0,4.41.59C180.93,41.83,179.36,37.71,179.36,37.71Z"/><path class="cls-123" d="M138.16,68.68a4.54,4.54,0,0,1-.26-1c-.13-.58-.28-1.35-.41-2.13-.27-1.55-.46-3.12-.46-3.12s-.14-1.57-.21-3.15c0-.79,0-1.58,0-2.17a4.54,4.54,0,0,1,.05-1,4.88,4.88,0,0,1,.12,1l.18,2.15c.14,1.57.34,3.12.34,3.12s.14,1.56.33,3.12l.27,2.14A4.87,4.87,0,0,1,138.16,68.68Zm1,3.94c-.18-.49-.31-1-.31-1s-.18-.49-.3-1a5.62,5.62,0,0,0-.26-1,2.48,2.48,0,0,0-.05,1.08,7.34,7.34,0,0,0,.19,1.07,7.34,7.34,0,0,0,.45,1,2.48,2.48,0,0,0,.65.87A5.62,5.62,0,0,0,139.16,72.62Zm.45-20.71a31.05,31.05,0,0,1-5.47.49c-1.38,0-2.75-.23-2.76-.16a11.15,11.15,0,0,0,2.75.48,15.44,15.44,0,0,0,5.55-.49,11.16,11.16,0,0,0,2.62-1C142.28,51.2,141,51.65,139.61,51.91Zm7.27-2.77c-.58.31-1.18.58-1.18.58s-.57.32-1.17.59a7.88,7.88,0,0,0-1.2.57,4,4,0,0,0,1.32-.28,12.74,12.74,0,0,0,1.26-.49,12.75,12.75,0,0,0,1.15-.71,4,4,0,0,0,1-.89A7.88,7.88,0,0,0,146.88,49.14Z"/><g class="cls-91"><path class="cls-124" d="M101.21,65.69c0,.06-.72.32-1.37.74a8,8,0,0,0-1.21.93,6.35,6.35,0,0,0-1.06,1.08,2.71,2.71,0,0,0-.46.91c-.07.27-.06.47-.1.47s-.1-.19-.07-.5a2.51,2.51,0,0,1,.36-1.06,5.86,5.86,0,0,1,1-1.24,7.22,7.22,0,0,1,1.35-.87A3.71,3.71,0,0,1,101.21,65.69Z"/><path class="cls-125" d="M101.67,71.83s-.44-.29-.69-.75a2.64,2.64,0,0,1-.35-2,1.7,1.7,0,0,1,.4-.94c.06,0-.08.5-.09,1a6.89,6.89,0,0,0,.32,1.84C101.42,71.39,101.71,71.79,101.67,71.83Z"/><path class="cls-126" d="M99.06,74.54c0,.06-.4.13-.82,0a1.95,1.95,0,0,1-1.38-.87c-.25-.34-.37-.74-.31-.76s.26.3.54.55a7.05,7.05,0,0,0,1.23.78C98.67,74.44,99.05,74.48,99.06,74.54Z"/><path class="cls-127" d="M113.51,67.51a2.44,2.44,0,0,1-1,.45,4.2,4.2,0,0,1-2.17.13,2.44,2.44,0,0,1-1-.32,6,6,0,0,1,1.07,0,49.51,49.51,0,0,0,2.08-.12A6,6,0,0,1,113.51,67.51Z"/><path class="cls-128" d="M173.95,38.67a4.79,4.79,0,0,1-.33,1.6,11.2,11.2,0,0,1-.64,1.51,11.19,11.19,0,0,1-1,1.34,4.78,4.78,0,0,1-1.19,1.12s.5-.65.95-1.31a13.93,13.93,0,0,0,.82-1.36,13.92,13.92,0,0,0,.74-1.41C173.66,39.43,173.89,38.66,173.95,38.67Z"/><path class="cls-129" d="M174.38,34a7.67,7.67,0,0,1-1.21-1.4,10.22,10.22,0,0,1-1-1.61,6.17,6.17,0,0,1-.43-1.84,3.15,3.15,0,0,1,.33-1.84,7.91,7.91,0,0,0,0,1.8,6.39,6.39,0,0,0,.53,1.7,11.54,11.54,0,0,0,.82,1.61A14.11,14.11,0,0,1,174.38,34Z"/><path class="cls-130" d="M177.05,24.93a2.88,2.88,0,0,1-.27-.87l-.23-.86-.15-.88a2.88,2.88,0,0,1-.12-.9c.06,0,.26.39.42.82s.28.87.28.87.08.45.11.91A2.2,2.2,0,0,1,177.05,24.93Z"/><path class="cls-131" d="M179.43,24.16a5.85,5.85,0,0,1-.23-1.08c-.11-.53-.27-1-.27-1s-.11-.53-.28-1a5.84,5.84,0,0,1-.33-1.05,2.67,2.67,0,0,1,.62.93,8,8,0,0,1,.42,1,8,8,0,0,1,.15,1.12A2.67,2.67,0,0,1,179.43,24.16Z"/><path class="cls-132" d="M182.66,31.66a10.37,10.37,0,0,1,.34-1.25,11,11,0,0,0,.24-1.25,11,11,0,0,0,.18-1.26,10.38,10.38,0,0,1,.08-1.29,3.34,3.34,0,0,1,.23,1.3,8.51,8.51,0,0,1-.06,1.33,8.51,8.51,0,0,1-.38,1.27A3.34,3.34,0,0,1,182.66,31.66Z"/></g><path class="cls-133" d="M133.66,75.73l.1,0a13.45,13.45,0,0,0,5.58.54c-3.23-5.2-7.22-13-7.94-20.54,0,0-.29,11.64,1.59,17.92C133.22,74.44,133.44,75.12,133.66,75.73Z"/><path class="cls-134" d="M140.42,78a17.2,17.2,0,0,1-5.94-.16,10.13,10.13,0,0,0,2.15,3.55s3.82,2.17,7,1.12C143.63,82.5,142.25,80.78,140.42,78Z"/><ellipse class="cls-135" cx="135.04" cy="26.41" rx="26.72" ry="23.88" transform="translate(-1.87 40.14) rotate(-16.79)"/><path class="cls-136" d="M160.62,18.69A22.88,22.88,0,0,0,146.36,4a22.38,22.38,0,0,1,10.86,13.13c3.81,12.62-4.55,26.31-18.68,30.58a28.55,28.55,0,0,1-18.22-.45,28.09,28.09,0,0,0,21.62,2C156.07,45,164.43,31.31,160.62,18.69Z"/><path class="cls-137" d="M127.1,8.65a29,29,0,0,0-13.71,5.12,22.92,22.92,0,0,0-3.92,20.36,22.53,22.53,0,0,0,11.9,13.67,29.93,29.93,0,0,0,10.1.59c13.63-1.5,23.7-11.6,22.5-22.58S140.73,7.15,127.1,8.65Z"/><path class="cls-138" d="M154,25.81a17.38,17.38,0,0,0-5.76-10.94c.91,10.81-9.07,20.68-22.53,22.16-3.53.39-7.05.51-10.1-.59a18.26,18.26,0,0,1-6.7-4.85,21.57,21.57,0,0,0,.6,2.54,22.53,22.53,0,0,0,11.9,13.67,29.93,29.93,0,0,0,10.1.59C145.09,46.88,155.16,36.78,154,25.81Z"/><path class="cls-139" d="M142.52,21.72c1.1,5.93-5.67,7.43-14.24,9s-15.7,2.66-16.8-3.27,5-12,13.53-13.61S141.42,15.79,142.52,21.72Z"/><path class="cls-139" d="M134.35,20.63C135,24.15,131,25,125.9,26s-9.32,1.58-10-1.94,2.95-7.14,8-8.08S133.7,17.11,134.35,20.63Z"/><path class="cls-139" d="M120.58,41.9c-1-3.53,4.69-2,11-3.71s10.87-6.12,11.84-2.58-3.35,7.81-9.65,9.55S121.55,45.43,120.58,41.9Z"/><path class="cls-139" d="M111.37,35.52a22.92,22.92,0,0,1,3.92-20.36A29,29,0,0,1,129,10a28,28,0,0,1,18.22,4c-5-4.07-12.31-6.24-20.13-5.38a29,29,0,0,0-13.71,5.12,22.92,22.92,0,0,0-3.92,20.36,22.14,22.14,0,0,0,9.23,12.14A21.88,21.88,0,0,1,111.37,35.52Z"/><path class="cls-140" d="M154,25.81c-1.21-11-13.23-18.65-26.86-17.15a29,29,0,0,0-13.71,5.12,25.4,25.4,0,0,0-3,5.26,23.45,23.45,0,0,1,2.17-3.43,27.71,27.71,0,0,1,12.89-4.69c12.82-1.37,24.12,5.67,25.26,15.72s-8.34,19.32-21.15,20.69a28.85,28.85,0,0,1-9.5-.54,23.41,23.41,0,0,1-3.41-2,24.53,24.53,0,0,0,4.72,3,29.93,29.93,0,0,0,10.1.59C145.09,46.88,155.16,36.78,154,25.81Z"/><path class="cls-141" d="M128,46.72a28.92,28.92,0,0,1-9.22-.5c-.24-.11-.46-.24-.69-.35a24.63,24.63,0,0,0,2.18,1.36,30,30,0,0,0,9.59.51c13.24-1.41,23-10.91,21.85-21.22S138.86,9,125.62,10.38a28.78,28.78,0,0,0-13.14,4.7,25.46,25.46,0,0,0-1.36,2.35c.13-.17.24-.35.37-.52A27.47,27.47,0,0,1,124,12.49c12.44-1.29,23.42,5.33,24.53,14.78S140.45,45.43,128,46.72Z"/><path class="cls-142" d="M136.29,2.93c-8.21-.05-14.06,4.18-16.17,6.67,0,0,4.38-3,12.77-1.92A15.65,15.65,0,0,1,136.29,2.93Z"/><path class="cls-143" d="M140.29,3.29c-.72-.12-1.42-.21-2.11-.27a14.58,14.58,0,0,0-3.92,4.87A36.51,36.51,0,0,1,139.07,9c12.41,3.88,14.41,11.52,14.41,11.52S150.6,5.06,140.29,3.29Z"/><path class="cls-144" d="M128.14,3.55a29.11,29.11,0,0,0-11.53,6.6c-2.12,4.77,0,8.14,5.45,7.6,5.94-.58,7.49-2.68,8-5.13s-.66-8.72,8.46-10.29A29.41,29.41,0,0,0,128.14,3.55Z"/><path class="cls-145" d="M124,1.61a15.61,15.61,0,0,0-7.5,6.83c-3,5.26-1.12,9.18,4.48,8.62s7.05-2.57,7.5-4.93-.67-8.62,8.51-10C137,2.17,135.33-2.31,124,1.61Z"/><path class="cls-146" d="M132.67,0c-6.27,2.07-5.43,7.26-5.83,9.35-.45,2.35-1.9,4.37-7.5,4.93a6.49,6.49,0,0,1-4.22-.76c.28,2.43,2.33,3.87,5.87,3.51,5.6-.56,7.05-2.57,7.5-4.93s-.67-8.62,8.51-10C137,2.17,136.29.27,132.67,0Z"/><path class="cls-147" d="M137,2.17S136.29.27,132.67,0c-6.27,2.07-5.43,7.26-5.83,9.35a5.11,5.11,0,0,1-1.16,2.51,6.4,6.4,0,0,0,1.81,2.57,5.22,5.22,0,0,0,1-2.33C128.95,9.78,127.83,3.51,137,2.17Z"/><g class="cls-91"><path class="cls-148" d="M116.59,12.36A7.25,7.25,0,0,1,117,9.74a12.93,12.93,0,0,1,1.13-2.43,16.64,16.64,0,0,1,1.65-2.1,10.64,10.64,0,0,1,2-1.75s-.92.95-1.76,2a18.52,18.52,0,0,0-1.51,2.12,13.89,13.89,0,0,0-1.21,2.3A24.33,24.33,0,0,0,116.59,12.36Z"/><path class="cls-149" d="M124.89,14.85a4,4,0,0,1-1.3.77,9.22,9.22,0,0,1-1.45.46,9.22,9.22,0,0,1-1.52.1,4,4,0,0,1-1.49-.23c0-.06.75,0,1.48-.08a11.26,11.26,0,0,0,1.44-.22,11.26,11.26,0,0,0,1.42-.32C124.18,15.12,124.86,14.8,124.89,14.85Z"/><path class="cls-150" d="M125.06,11.43s.19-.18.39-.5a3.35,3.35,0,0,0,.46-1.27A11.61,11.61,0,0,0,126,8.28l0-.64a17.73,17.73,0,0,1,.32-2,5.25,5.25,0,0,1,.74-1.94c.05,0-.31,1-.43,2s-.19,2-.19,2l-.07.64a10.29,10.29,0,0,1-.23,1.42,3.18,3.18,0,0,1-.63,1.31A1.05,1.05,0,0,1,125.06,11.43Z"/><path class="cls-151" d="M124.45,11.51s-.16.38-.44.66a3.85,3.85,0,0,1-.63.5,3.84,3.84,0,0,1-.76.26c-.39.09-.79.07-.8,0s.36-.16.7-.31a5.18,5.18,0,0,0,.65-.35,5.18,5.18,0,0,0,.64-.36C124.12,11.73,124.4,11.47,124.45,11.51Z"/></g><path class="cls-152" d="M158.8,14.4c-.58,1.18-3,5.15-10,7.79,0,0-2,1.52-1.4,5s1.52,4.31,4.57,4.31c2.35,0,6.59-.73,9.3-3.37a21.55,21.55,0,0,0-2.5-13.78Z"/><path class="cls-153" d="M148.83,21.37a4.37,4.37,0,0,0-1.4,4.54c.61,3.17,1.52,3.88,4.57,3.88s9.28-1.1,11.23-5.62S162,14.29,159,14C159,14,157.13,18.56,148.83,21.37Z"/><path class="cls-154" d="M160.36,14.52a8.19,8.19,0,0,1,.61,7.32c-2,4.52-8.18,5.62-11.23,5.62a8.73,8.73,0,0,1-2-.18c.63,2,1.69,2.51,4.24,2.51,3.05,0,9.28-1.1,11.23-5.62C164.88,20.36,162.87,15.94,160.36,14.52Z"/><path class="cls-155" d="M149.27,26.74a4.37,4.37,0,0,1,1.4-4.54c8.3-2.81,10.13-7.32,10.13-7.32l.13,0a3.79,3.79,0,0,0-2-.85s-1.83,4.52-10.13,7.32a4.37,4.37,0,0,0-1.4,4.54c.49,2.56,1.18,3.52,3,3.79A5.68,5.68,0,0,1,149.27,26.74Z"/><path class="cls-156" d="M160.8,14.88l.13,0a3.79,3.79,0,0,0-2-.85s-1.83,4.52-10.13,7.32l-.09.07,1.89.8,0,0C159,19.39,160.8,14.88,160.8,14.88Z"/><g class="cls-91"><path class="cls-157" d="M151.3,23.27s-.34.54-.56,1.11a4.92,4.92,0,0,0-.28,1.17,4.91,4.91,0,0,0-.07,1.21c0,.61.27,1.2.21,1.23a2.36,2.36,0,0,1-.52-1.18A4.6,4.6,0,0,1,150,25.5a4.6,4.6,0,0,1,.44-1.24A2.36,2.36,0,0,1,151.3,23.27Z"/><path class="cls-157" d="M158.22,19.14a7.35,7.35,0,0,1-1.37,1.09c-.72.5-1.47,1-1.47,1s-.77.41-1.57.77a7.35,7.35,0,0,1-1.64.62,11.23,11.23,0,0,1,1.49-.9l1.49-.88,1.52-.83A11.23,11.23,0,0,1,158.22,19.14Z"/><path class="cls-158" d="M160.81,26.32c-.05,0,.61-.72,1.15-1.46a5.29,5.29,0,0,0,.62-1.07,3.51,3.51,0,0,0,.18-.52,4.31,4.31,0,0,0,.13-.54,6.1,6.1,0,0,0,.08-1.24c0-.92-.18-1.85-.11-1.86a6.51,6.51,0,0,1,.42,1.84,5.87,5.87,0,0,1,0,1.32,4.4,4.4,0,0,1-.11.6,3.7,3.7,0,0,1-.23.57,5.21,5.21,0,0,1-.74,1.1A6.26,6.26,0,0,1,160.81,26.32Z"/><path class="cls-159" d="M159.72,26.91s-.23.32-.52.56-.61.45-.61.45-.34.17-.69.3-.72.23-.74.17.29-.25.6-.45l.61-.4.66-.33C159.35,27,159.68,26.86,159.72,26.91Z"/></g></g></g></g></svg>